G04 #@! TF.GenerationSoftware,KiCad,Pcbnew,(5.1.9-0-10_14)*
G04 #@! TF.CreationDate,2022-09-06T13:19:47-05:00*
G04 #@! TF.ProjectId,My6502,4d793635-3032-42e6-9b69-6361645f7063,rev?*
G04 #@! TF.SameCoordinates,Original*
G04 #@! TF.FileFunction,Legend,Top*
G04 #@! TF.FilePolarity,Positive*
%FSLAX46Y46*%
G04 Gerber Fmt 4.6, Leading zero omitted, Abs format (unit mm)*
G04 Created by KiCad (PCBNEW (5.1.9-0-10_14)) date 2022-09-06 13:19:47*
%MOMM*%
%LPD*%
G01*
G04 APERTURE LIST*
%ADD10C,0.150000*%
%ADD11C,0.300000*%
%ADD12C,0.500000*%
%ADD13C,0.120000*%
G04 APERTURE END LIST*
D10*
X44958095Y-63000000D02*
X44862857Y-62952380D01*
X44720000Y-62952380D01*
X44577142Y-63000000D01*
X44481904Y-63095238D01*
X44434285Y-63190476D01*
X44386666Y-63380952D01*
X44386666Y-63523809D01*
X44434285Y-63714285D01*
X44481904Y-63809523D01*
X44577142Y-63904761D01*
X44720000Y-63952380D01*
X44815238Y-63952380D01*
X44958095Y-63904761D01*
X45005714Y-63857142D01*
X45005714Y-63523809D01*
X44815238Y-63523809D01*
X45434285Y-63952380D02*
X45434285Y-62952380D01*
X46005714Y-63952380D01*
X46005714Y-62952380D01*
X46481904Y-63952380D02*
X46481904Y-62952380D01*
X46720000Y-62952380D01*
X46862857Y-63000000D01*
X46958095Y-63095238D01*
X47005714Y-63190476D01*
X47053333Y-63380952D01*
X47053333Y-63523809D01*
X47005714Y-63714285D01*
X46958095Y-63809523D01*
X46862857Y-63904761D01*
X46720000Y-63952380D01*
X46481904Y-63952380D01*
X47656904Y-57221428D02*
X48418809Y-57221428D01*
X48037857Y-57602380D02*
X48037857Y-56840476D01*
X49371190Y-56602380D02*
X48895000Y-56602380D01*
X48847380Y-57078571D01*
X48895000Y-57030952D01*
X48990238Y-56983333D01*
X49228333Y-56983333D01*
X49323571Y-57030952D01*
X49371190Y-57078571D01*
X49418809Y-57173809D01*
X49418809Y-57411904D01*
X49371190Y-57507142D01*
X49323571Y-57554761D01*
X49228333Y-57602380D01*
X48990238Y-57602380D01*
X48895000Y-57554761D01*
X48847380Y-57507142D01*
X49752142Y-56935714D02*
X49990238Y-57602380D01*
X50228333Y-56935714D01*
X63992380Y-138850714D02*
X64230476Y-139517380D01*
X64468571Y-138850714D01*
X64849523Y-139422142D02*
X64897142Y-139469761D01*
X64849523Y-139517380D01*
X64801904Y-139469761D01*
X64849523Y-139422142D01*
X64849523Y-139517380D01*
X66611428Y-139517380D02*
X66040000Y-139517380D01*
X66325714Y-139517380D02*
X66325714Y-138517380D01*
X66230476Y-138660238D01*
X66135238Y-138755476D01*
X66040000Y-138803095D01*
X67040000Y-139422142D02*
X67087619Y-139469761D01*
X67040000Y-139517380D01*
X66992380Y-139469761D01*
X67040000Y-139422142D01*
X67040000Y-139517380D01*
X67706666Y-138517380D02*
X67801904Y-138517380D01*
X67897142Y-138565000D01*
X67944761Y-138612619D01*
X67992380Y-138707857D01*
X68040000Y-138898333D01*
X68040000Y-139136428D01*
X67992380Y-139326904D01*
X67944761Y-139422142D01*
X67897142Y-139469761D01*
X67801904Y-139517380D01*
X67706666Y-139517380D01*
X67611428Y-139469761D01*
X67563809Y-139422142D01*
X67516190Y-139326904D01*
X67468571Y-139136428D01*
X67468571Y-138898333D01*
X67516190Y-138707857D01*
X67563809Y-138612619D01*
X67611428Y-138565000D01*
X67706666Y-138517380D01*
D11*
X43334642Y-147935000D02*
X43272142Y-147863571D01*
X43156071Y-147649285D01*
X43102499Y-147506428D01*
X43057857Y-147292142D01*
X43031071Y-146935000D01*
X43066785Y-146649285D01*
X43182857Y-146292142D01*
X43281071Y-146077857D01*
X43370357Y-145935000D01*
X43539999Y-145720714D01*
X43620357Y-145649285D01*
X44852499Y-147220714D02*
X44772142Y-147292142D01*
X44548928Y-147363571D01*
X44406071Y-147363571D01*
X44200714Y-147292142D01*
X44075714Y-147149285D01*
X44022142Y-147006428D01*
X43986428Y-146720714D01*
X44013214Y-146506428D01*
X44120357Y-146220714D01*
X44209642Y-146077857D01*
X44370357Y-145935000D01*
X44593571Y-145863571D01*
X44736428Y-145863571D01*
X44941785Y-145935000D01*
X45004285Y-146006428D01*
X45263214Y-147935000D02*
X45343571Y-147863571D01*
X45513214Y-147649285D01*
X45602499Y-147506428D01*
X45700714Y-147292142D01*
X45816785Y-146935000D01*
X45852499Y-146649285D01*
X45825714Y-146292142D01*
X45781071Y-146077857D01*
X45727499Y-145935000D01*
X45611428Y-145720714D01*
X45548928Y-145649285D01*
X47620357Y-147363571D02*
X47807857Y-145863571D01*
X48173928Y-146935000D01*
X48807857Y-145863571D01*
X48620357Y-147363571D01*
X49977499Y-147363571D02*
X50075714Y-146577857D01*
X50022142Y-146435000D01*
X49888214Y-146363571D01*
X49602499Y-146363571D01*
X49450714Y-146435000D01*
X49986428Y-147292142D02*
X49834642Y-147363571D01*
X49477499Y-147363571D01*
X49343571Y-147292142D01*
X49289999Y-147149285D01*
X49307857Y-147006428D01*
X49397142Y-146863571D01*
X49548928Y-146792142D01*
X49906071Y-146792142D01*
X50057857Y-146720714D01*
X50691785Y-147363571D02*
X50816785Y-146363571D01*
X50781071Y-146649285D02*
X50870357Y-146506428D01*
X50950714Y-146435000D01*
X51102499Y-146363571D01*
X51245357Y-146363571D01*
X51620357Y-147363571D02*
X51745357Y-146363571D01*
X51807857Y-145863571D02*
X51727499Y-145935000D01*
X51789999Y-146006428D01*
X51870357Y-145935000D01*
X51807857Y-145863571D01*
X51789999Y-146006428D01*
X52977499Y-147363571D02*
X53075714Y-146577857D01*
X53022142Y-146435000D01*
X52888214Y-146363571D01*
X52602499Y-146363571D01*
X52450714Y-146435000D01*
X52986428Y-147292142D02*
X52834642Y-147363571D01*
X52477499Y-147363571D01*
X52343571Y-147292142D01*
X52289999Y-147149285D01*
X52307857Y-147006428D01*
X52397142Y-146863571D01*
X52548928Y-146792142D01*
X52906071Y-146792142D01*
X53057857Y-146720714D01*
X53816785Y-146363571D02*
X53691785Y-147363571D01*
X53798928Y-146506428D02*
X53879285Y-146435000D01*
X54031071Y-146363571D01*
X54245357Y-146363571D01*
X54379285Y-146435000D01*
X54432857Y-146577857D01*
X54334642Y-147363571D01*
X55263214Y-147363571D02*
X55129285Y-147292142D01*
X55066785Y-147220714D01*
X55013214Y-147077857D01*
X55066785Y-146649285D01*
X55156071Y-146506428D01*
X55236428Y-146435000D01*
X55388214Y-146363571D01*
X55602499Y-146363571D01*
X55736428Y-146435000D01*
X55798928Y-146506428D01*
X55852499Y-146649285D01*
X55798928Y-147077857D01*
X55709642Y-147220714D01*
X55629285Y-147292142D01*
X55477499Y-147363571D01*
X55263214Y-147363571D01*
X58263214Y-147363571D02*
X57548928Y-147363571D01*
X57736428Y-145863571D01*
X59531071Y-146363571D02*
X59406071Y-147363571D01*
X58888214Y-146363571D02*
X58789999Y-147149285D01*
X58843571Y-147292142D01*
X58977499Y-147363571D01*
X59191785Y-147363571D01*
X59343571Y-147292142D01*
X59423928Y-147220714D01*
X60245357Y-146363571D02*
X60120357Y-147363571D01*
X60227499Y-146506428D02*
X60307857Y-146435000D01*
X60459642Y-146363571D01*
X60673928Y-146363571D01*
X60807857Y-146435000D01*
X60861428Y-146577857D01*
X60763214Y-147363571D01*
X62120357Y-147363571D02*
X62218571Y-146577857D01*
X62164999Y-146435000D01*
X62031071Y-146363571D01*
X61745357Y-146363571D01*
X61593571Y-146435000D01*
X62129285Y-147292142D02*
X61977499Y-147363571D01*
X61620357Y-147363571D01*
X61486428Y-147292142D01*
X61432857Y-147149285D01*
X61450714Y-147006428D01*
X61539999Y-146863571D01*
X61691785Y-146792142D01*
X62048928Y-146792142D01*
X62200714Y-146720714D01*
D12*
X50298184Y-135159523D02*
X50798184Y-131159523D01*
X51441041Y-134016666D01*
X52798184Y-131159523D01*
X52298184Y-135159523D01*
X53774375Y-132492857D02*
X54155327Y-135159523D01*
X55202946Y-132492857D02*
X54155327Y-135159523D01*
X53750565Y-136111904D01*
X53583898Y-136302380D01*
X53274375Y-136492857D01*
X60083898Y-131159523D02*
X59512470Y-131159523D01*
X59202946Y-131350000D01*
X59036279Y-131540476D01*
X58679136Y-132111904D01*
X58441041Y-132873809D01*
X58250565Y-134397619D01*
X58345803Y-134778571D01*
X58464851Y-134969047D01*
X58726755Y-135159523D01*
X59298184Y-135159523D01*
X59607708Y-134969047D01*
X59774375Y-134778571D01*
X59964851Y-134397619D01*
X60083898Y-133445238D01*
X59988660Y-133064285D01*
X59869613Y-132873809D01*
X59607708Y-132683333D01*
X59036279Y-132683333D01*
X58726755Y-132873809D01*
X58560089Y-133064285D01*
X58369613Y-133445238D01*
X63083898Y-131159523D02*
X61655327Y-131159523D01*
X61274375Y-133064285D01*
X61441041Y-132873809D01*
X61750565Y-132683333D01*
X62464851Y-132683333D01*
X62726755Y-132873809D01*
X62845803Y-133064285D01*
X62941041Y-133445238D01*
X62821994Y-134397619D01*
X62631517Y-134778571D01*
X62464851Y-134969047D01*
X62155327Y-135159523D01*
X61441041Y-135159523D01*
X61179136Y-134969047D01*
X61060089Y-134778571D01*
X65083898Y-131159523D02*
X65369613Y-131159523D01*
X65631517Y-131350000D01*
X65750565Y-131540476D01*
X65845803Y-131921428D01*
X65893422Y-132683333D01*
X65774375Y-133635714D01*
X65536279Y-134397619D01*
X65345803Y-134778571D01*
X65179136Y-134969047D01*
X64869613Y-135159523D01*
X64583898Y-135159523D01*
X64321994Y-134969047D01*
X64202946Y-134778571D01*
X64107708Y-134397619D01*
X64060089Y-133635714D01*
X64179136Y-132683333D01*
X64417232Y-131921428D01*
X64607708Y-131540476D01*
X64774375Y-131350000D01*
X65083898Y-131159523D01*
X67179136Y-131540476D02*
X67345803Y-131350000D01*
X67655327Y-131159523D01*
X68369613Y-131159523D01*
X68631517Y-131350000D01*
X68750565Y-131540476D01*
X68845803Y-131921428D01*
X68798184Y-132302380D01*
X68583898Y-132873809D01*
X66583898Y-135159523D01*
X68441041Y-135159523D01*
D13*
X124630000Y-111005000D02*
X106510000Y-111005000D01*
X124630000Y-146805000D02*
X124630000Y-111005000D01*
X106510000Y-146805000D02*
X124630000Y-146805000D01*
X106510000Y-111005000D02*
X106510000Y-146805000D01*
X121630000Y-111065000D02*
X116570000Y-111065000D01*
X121630000Y-146745000D02*
X121630000Y-111065000D01*
X109510000Y-146745000D02*
X121630000Y-146745000D01*
X109510000Y-111065000D02*
X109510000Y-146745000D01*
X114570000Y-111065000D02*
X109510000Y-111065000D01*
X116570000Y-111065000D02*
G75*
G02*
X114570000Y-111065000I-1000000J0D01*
G01*
X41479698Y-75105000D02*
X41479698Y-74305000D01*
X41879698Y-74705000D02*
X41079698Y-74705000D01*
X33389000Y-72923000D02*
X33389000Y-71857000D01*
X33429000Y-73158000D02*
X33429000Y-71622000D01*
X33469000Y-73338000D02*
X33469000Y-71442000D01*
X33509000Y-73488000D02*
X33509000Y-71292000D01*
X33549000Y-73619000D02*
X33549000Y-71161000D01*
X33589000Y-73736000D02*
X33589000Y-71044000D01*
X33629000Y-73843000D02*
X33629000Y-70937000D01*
X33669000Y-73942000D02*
X33669000Y-70838000D01*
X33709000Y-74035000D02*
X33709000Y-70745000D01*
X33749000Y-74121000D02*
X33749000Y-70659000D01*
X33789000Y-74203000D02*
X33789000Y-70577000D01*
X33829000Y-74280000D02*
X33829000Y-70500000D01*
X33869000Y-74354000D02*
X33869000Y-70426000D01*
X33909000Y-74424000D02*
X33909000Y-70356000D01*
X33949000Y-74492000D02*
X33949000Y-70288000D01*
X33989000Y-74556000D02*
X33989000Y-70224000D01*
X34029000Y-74618000D02*
X34029000Y-70162000D01*
X34069000Y-74677000D02*
X34069000Y-70103000D01*
X34109000Y-74735000D02*
X34109000Y-70045000D01*
X34149000Y-74790000D02*
X34149000Y-69990000D01*
X34189000Y-74844000D02*
X34189000Y-69936000D01*
X34229000Y-74895000D02*
X34229000Y-69885000D01*
X34269000Y-74946000D02*
X34269000Y-69834000D01*
X34309000Y-74994000D02*
X34309000Y-69786000D01*
X34349000Y-75041000D02*
X34349000Y-69739000D01*
X34389000Y-75087000D02*
X34389000Y-69693000D01*
X34429000Y-75131000D02*
X34429000Y-69649000D01*
X34469000Y-75174000D02*
X34469000Y-69606000D01*
X34509000Y-75216000D02*
X34509000Y-69564000D01*
X34549000Y-71350000D02*
X34549000Y-69523000D01*
X34549000Y-75257000D02*
X34549000Y-73430000D01*
X34589000Y-71350000D02*
X34589000Y-69483000D01*
X34589000Y-75297000D02*
X34589000Y-73430000D01*
X34629000Y-71350000D02*
X34629000Y-69445000D01*
X34629000Y-75335000D02*
X34629000Y-73430000D01*
X34669000Y-71350000D02*
X34669000Y-69407000D01*
X34669000Y-75373000D02*
X34669000Y-73430000D01*
X34709000Y-71350000D02*
X34709000Y-69371000D01*
X34709000Y-75409000D02*
X34709000Y-73430000D01*
X34749000Y-71350000D02*
X34749000Y-69335000D01*
X34749000Y-75445000D02*
X34749000Y-73430000D01*
X34789000Y-71350000D02*
X34789000Y-69300000D01*
X34789000Y-75480000D02*
X34789000Y-73430000D01*
X34829000Y-71350000D02*
X34829000Y-69266000D01*
X34829000Y-75514000D02*
X34829000Y-73430000D01*
X34869000Y-71350000D02*
X34869000Y-69234000D01*
X34869000Y-75546000D02*
X34869000Y-73430000D01*
X34909000Y-71350000D02*
X34909000Y-69201000D01*
X34909000Y-75579000D02*
X34909000Y-73430000D01*
X34949000Y-71350000D02*
X34949000Y-69170000D01*
X34949000Y-75610000D02*
X34949000Y-73430000D01*
X34989000Y-71350000D02*
X34989000Y-69140000D01*
X34989000Y-75640000D02*
X34989000Y-73430000D01*
X35029000Y-71350000D02*
X35029000Y-69110000D01*
X35029000Y-75670000D02*
X35029000Y-73430000D01*
X35069000Y-71350000D02*
X35069000Y-69081000D01*
X35069000Y-75699000D02*
X35069000Y-73430000D01*
X35109000Y-71350000D02*
X35109000Y-69052000D01*
X35109000Y-75728000D02*
X35109000Y-73430000D01*
X35149000Y-71350000D02*
X35149000Y-69025000D01*
X35149000Y-75755000D02*
X35149000Y-73430000D01*
X35189000Y-71350000D02*
X35189000Y-68998000D01*
X35189000Y-75782000D02*
X35189000Y-73430000D01*
X35229000Y-71350000D02*
X35229000Y-68972000D01*
X35229000Y-75808000D02*
X35229000Y-73430000D01*
X35269000Y-71350000D02*
X35269000Y-68946000D01*
X35269000Y-75834000D02*
X35269000Y-73430000D01*
X35309000Y-71350000D02*
X35309000Y-68921000D01*
X35309000Y-75859000D02*
X35309000Y-73430000D01*
X35349000Y-71350000D02*
X35349000Y-68897000D01*
X35349000Y-75883000D02*
X35349000Y-73430000D01*
X35389000Y-71350000D02*
X35389000Y-68873000D01*
X35389000Y-75907000D02*
X35389000Y-73430000D01*
X35429000Y-71350000D02*
X35429000Y-68850000D01*
X35429000Y-75930000D02*
X35429000Y-73430000D01*
X35469000Y-71350000D02*
X35469000Y-68828000D01*
X35469000Y-75952000D02*
X35469000Y-73430000D01*
X35509000Y-71350000D02*
X35509000Y-68806000D01*
X35509000Y-75974000D02*
X35509000Y-73430000D01*
X35549000Y-71350000D02*
X35549000Y-68784000D01*
X35549000Y-75996000D02*
X35549000Y-73430000D01*
X35589000Y-71350000D02*
X35589000Y-68763000D01*
X35589000Y-76017000D02*
X35589000Y-73430000D01*
X35629000Y-71350000D02*
X35629000Y-68743000D01*
X35629000Y-76037000D02*
X35629000Y-73430000D01*
X35669000Y-71350000D02*
X35669000Y-68724000D01*
X35669000Y-76056000D02*
X35669000Y-73430000D01*
X35709000Y-71350000D02*
X35709000Y-68704000D01*
X35709000Y-76076000D02*
X35709000Y-73430000D01*
X35749000Y-71350000D02*
X35749000Y-68686000D01*
X35749000Y-76094000D02*
X35749000Y-73430000D01*
X35789000Y-71350000D02*
X35789000Y-68668000D01*
X35789000Y-76112000D02*
X35789000Y-73430000D01*
X35829000Y-71350000D02*
X35829000Y-68650000D01*
X35829000Y-76130000D02*
X35829000Y-73430000D01*
X35869000Y-71350000D02*
X35869000Y-68633000D01*
X35869000Y-76147000D02*
X35869000Y-73430000D01*
X35909000Y-71350000D02*
X35909000Y-68616000D01*
X35909000Y-76164000D02*
X35909000Y-73430000D01*
X35949000Y-71350000D02*
X35949000Y-68600000D01*
X35949000Y-76180000D02*
X35949000Y-73430000D01*
X35989000Y-71350000D02*
X35989000Y-68585000D01*
X35989000Y-76195000D02*
X35989000Y-73430000D01*
X36029000Y-71350000D02*
X36029000Y-68569000D01*
X36029000Y-76211000D02*
X36029000Y-73430000D01*
X36069000Y-71350000D02*
X36069000Y-68555000D01*
X36069000Y-76225000D02*
X36069000Y-73430000D01*
X36109000Y-71350000D02*
X36109000Y-68540000D01*
X36109000Y-76240000D02*
X36109000Y-73430000D01*
X36149000Y-71350000D02*
X36149000Y-68527000D01*
X36149000Y-76253000D02*
X36149000Y-73430000D01*
X36189000Y-71350000D02*
X36189000Y-68513000D01*
X36189000Y-76267000D02*
X36189000Y-73430000D01*
X36229000Y-71350000D02*
X36229000Y-68501000D01*
X36229000Y-76279000D02*
X36229000Y-73430000D01*
X36269000Y-71350000D02*
X36269000Y-68488000D01*
X36269000Y-76292000D02*
X36269000Y-73430000D01*
X36309000Y-71350000D02*
X36309000Y-68476000D01*
X36309000Y-76304000D02*
X36309000Y-73430000D01*
X36349000Y-71350000D02*
X36349000Y-68465000D01*
X36349000Y-76315000D02*
X36349000Y-73430000D01*
X36389000Y-71350000D02*
X36389000Y-68454000D01*
X36389000Y-76326000D02*
X36389000Y-73430000D01*
X36429000Y-71350000D02*
X36429000Y-68443000D01*
X36429000Y-76337000D02*
X36429000Y-73430000D01*
X36469000Y-71350000D02*
X36469000Y-68433000D01*
X36469000Y-76347000D02*
X36469000Y-73430000D01*
X36509000Y-71350000D02*
X36509000Y-68423000D01*
X36509000Y-76357000D02*
X36509000Y-73430000D01*
X36549000Y-71350000D02*
X36549000Y-68414000D01*
X36549000Y-76366000D02*
X36549000Y-73430000D01*
X36589000Y-71350000D02*
X36589000Y-68405000D01*
X36589000Y-76375000D02*
X36589000Y-73430000D01*
X36629000Y-76384000D02*
X36629000Y-68396000D01*
X36669000Y-76392000D02*
X36669000Y-68388000D01*
X36709000Y-76400000D02*
X36709000Y-68380000D01*
X36749000Y-76407000D02*
X36749000Y-68373000D01*
X36790000Y-76414000D02*
X36790000Y-68366000D01*
X36830000Y-76420000D02*
X36830000Y-68360000D01*
X36870000Y-76427000D02*
X36870000Y-68353000D01*
X36910000Y-76432000D02*
X36910000Y-68348000D01*
X36950000Y-76438000D02*
X36950000Y-68342000D01*
X36990000Y-76442000D02*
X36990000Y-68338000D01*
X37030000Y-76447000D02*
X37030000Y-68333000D01*
X37070000Y-76451000D02*
X37070000Y-68329000D01*
X37110000Y-76455000D02*
X37110000Y-68325000D01*
X37150000Y-76458000D02*
X37150000Y-68322000D01*
X37190000Y-76461000D02*
X37190000Y-68319000D01*
X37230000Y-76464000D02*
X37230000Y-68316000D01*
X37270000Y-76466000D02*
X37270000Y-68314000D01*
X37310000Y-76467000D02*
X37310000Y-68313000D01*
X37350000Y-76469000D02*
X37350000Y-68311000D01*
X37390000Y-76470000D02*
X37390000Y-68310000D01*
X37430000Y-76470000D02*
X37430000Y-68310000D01*
X37470000Y-76470000D02*
X37470000Y-68310000D01*
X41590000Y-72390000D02*
G75*
G03*
X41590000Y-72390000I-4120000J0D01*
G01*
X95465000Y-93750000D02*
X95450000Y-93750000D01*
X97590000Y-93750000D02*
X97575000Y-93750000D01*
X95465000Y-89210000D02*
X95450000Y-89210000D01*
X97590000Y-89210000D02*
X97575000Y-89210000D01*
X95450000Y-89210000D02*
X95450000Y-93750000D01*
X97590000Y-89210000D02*
X97590000Y-93750000D01*
X98735000Y-144980000D02*
X103275000Y-144980000D01*
X98735000Y-147120000D02*
X103275000Y-147120000D01*
X98735000Y-144980000D02*
X98735000Y-144995000D01*
X98735000Y-147105000D02*
X98735000Y-147120000D01*
X103275000Y-144980000D02*
X103275000Y-144995000D01*
X103275000Y-147105000D02*
X103275000Y-147120000D01*
X46775000Y-94845000D02*
X46790000Y-94845000D01*
X44650000Y-94845000D02*
X44665000Y-94845000D01*
X46775000Y-99385000D02*
X46790000Y-99385000D01*
X44650000Y-99385000D02*
X44665000Y-99385000D01*
X46790000Y-99385000D02*
X46790000Y-94845000D01*
X44650000Y-99385000D02*
X44650000Y-94845000D01*
X44650000Y-86130000D02*
X44650000Y-81590000D01*
X46790000Y-86130000D02*
X46790000Y-81590000D01*
X44650000Y-86130000D02*
X44665000Y-86130000D01*
X46775000Y-86130000D02*
X46790000Y-86130000D01*
X44650000Y-81590000D02*
X44665000Y-81590000D01*
X46775000Y-81590000D02*
X46790000Y-81590000D01*
X70890000Y-147105000D02*
X70890000Y-147120000D01*
X70890000Y-144980000D02*
X70890000Y-144995000D01*
X66350000Y-147105000D02*
X66350000Y-147120000D01*
X66350000Y-144980000D02*
X66350000Y-144995000D01*
X66350000Y-147120000D02*
X70890000Y-147120000D01*
X66350000Y-144980000D02*
X70890000Y-144980000D01*
X44650000Y-75415000D02*
X44650000Y-70875000D01*
X46790000Y-75415000D02*
X46790000Y-70875000D01*
X44650000Y-75415000D02*
X44665000Y-75415000D01*
X46775000Y-75415000D02*
X46790000Y-75415000D01*
X44650000Y-70875000D02*
X44665000Y-70875000D01*
X46775000Y-70875000D02*
X46790000Y-70875000D01*
X86420000Y-91380000D02*
X86420000Y-92710000D01*
X85090000Y-91380000D02*
X86420000Y-91380000D01*
X83820000Y-91380000D02*
X83820000Y-94040000D01*
X83820000Y-94040000D02*
X73600000Y-94040000D01*
X83820000Y-91380000D02*
X73600000Y-91380000D01*
X73600000Y-91380000D02*
X73600000Y-94040000D01*
X83245000Y-66615000D02*
X83245000Y-67945000D01*
X81915000Y-66615000D02*
X83245000Y-66615000D01*
X80645000Y-66615000D02*
X80645000Y-69275000D01*
X80645000Y-69275000D02*
X75505000Y-69275000D01*
X80645000Y-66615000D02*
X75505000Y-66615000D01*
X75505000Y-66615000D02*
X75505000Y-69275000D01*
X45985000Y-52550000D02*
X45985000Y-55150000D01*
X31285000Y-52550000D02*
X45985000Y-52550000D01*
X45985000Y-61750000D02*
X44085000Y-61750000D01*
X45985000Y-59050000D02*
X45985000Y-61750000D01*
X31285000Y-61750000D02*
X31285000Y-52550000D01*
X40085000Y-61750000D02*
X31285000Y-61750000D01*
X45135000Y-52350000D02*
X46185000Y-52350000D01*
X46185000Y-53400000D02*
X46185000Y-52350000D01*
X36830000Y-148015000D02*
X35500000Y-148015000D01*
X35500000Y-148015000D02*
X35500000Y-146685000D01*
X38100000Y-148015000D02*
X38100000Y-145415000D01*
X38100000Y-145415000D02*
X35500000Y-145415000D01*
X35500000Y-145415000D02*
X35500000Y-97095000D01*
X40700000Y-97095000D02*
X35500000Y-97095000D01*
X40700000Y-148015000D02*
X40700000Y-97095000D01*
X40700000Y-148015000D02*
X38100000Y-148015000D01*
X64830000Y-58360000D02*
X64830000Y-59690000D01*
X63500000Y-58360000D02*
X64830000Y-58360000D01*
X64830000Y-60960000D02*
X64830000Y-63560000D01*
X62230000Y-60960000D02*
X64830000Y-60960000D01*
X62230000Y-58360000D02*
X62230000Y-60960000D01*
X64830000Y-63560000D02*
X52010000Y-63560000D01*
X62230000Y-58360000D02*
X52010000Y-58360000D01*
X52010000Y-58360000D02*
X52010000Y-63560000D01*
X95190000Y-64710000D02*
X96520000Y-64710000D01*
X95190000Y-66040000D02*
X95190000Y-64710000D01*
X95190000Y-67310000D02*
X97850000Y-67310000D01*
X97850000Y-67310000D02*
X97850000Y-69910000D01*
X95190000Y-67310000D02*
X95190000Y-69910000D01*
X95190000Y-69910000D02*
X97850000Y-69910000D01*
X39470000Y-84360000D02*
X36730000Y-84360000D01*
X36730000Y-84360000D02*
X36730000Y-90900000D01*
X36730000Y-90900000D02*
X39470000Y-90900000D01*
X39470000Y-90900000D02*
X39470000Y-84360000D01*
X38100000Y-83590000D02*
X38100000Y-84360000D01*
X38100000Y-91670000D02*
X38100000Y-90900000D01*
X71120000Y-61825000D02*
X71120000Y-61055000D01*
X71120000Y-53745000D02*
X71120000Y-54515000D01*
X72490000Y-61055000D02*
X72490000Y-54515000D01*
X69750000Y-61055000D02*
X72490000Y-61055000D01*
X69750000Y-54515000D02*
X69750000Y-61055000D01*
X72490000Y-54515000D02*
X69750000Y-54515000D01*
X96520000Y-75970000D02*
X96520000Y-76740000D01*
X96520000Y-84050000D02*
X96520000Y-83280000D01*
X95150000Y-76740000D02*
X95150000Y-83280000D01*
X97890000Y-76740000D02*
X95150000Y-76740000D01*
X97890000Y-83280000D02*
X97890000Y-76740000D01*
X95150000Y-83280000D02*
X97890000Y-83280000D01*
X78840000Y-54515000D02*
X76100000Y-54515000D01*
X76100000Y-54515000D02*
X76100000Y-61055000D01*
X76100000Y-61055000D02*
X78840000Y-61055000D01*
X78840000Y-61055000D02*
X78840000Y-54515000D01*
X77470000Y-53745000D02*
X77470000Y-54515000D01*
X77470000Y-61825000D02*
X77470000Y-61055000D01*
X83820000Y-61825000D02*
X83820000Y-61055000D01*
X83820000Y-53745000D02*
X83820000Y-54515000D01*
X85190000Y-61055000D02*
X85190000Y-54515000D01*
X82450000Y-61055000D02*
X85190000Y-61055000D01*
X82450000Y-54515000D02*
X82450000Y-61055000D01*
X85190000Y-54515000D02*
X82450000Y-54515000D01*
X61690000Y-55345000D02*
X61690000Y-52605000D01*
X61690000Y-52605000D02*
X55150000Y-52605000D01*
X55150000Y-52605000D02*
X55150000Y-55345000D01*
X55150000Y-55345000D02*
X61690000Y-55345000D01*
X62460000Y-53975000D02*
X61690000Y-53975000D01*
X54380000Y-53975000D02*
X55150000Y-53975000D01*
X95270000Y-54250000D02*
X95270000Y-56930000D01*
X89030000Y-56930000D02*
X89030000Y-54250000D01*
X89180000Y-52470000D02*
X95120000Y-52470000D01*
X89180000Y-58710000D02*
X95120000Y-58710000D01*
X93564214Y-55590000D02*
G75*
G03*
X93564214Y-55590000I-1414214J0D01*
G01*
X82185000Y-111065000D02*
X77125000Y-111065000D01*
X77125000Y-111065000D02*
X77125000Y-146745000D01*
X77125000Y-146745000D02*
X89245000Y-146745000D01*
X89245000Y-146745000D02*
X89245000Y-111065000D01*
X89245000Y-111065000D02*
X84185000Y-111065000D01*
X74125000Y-111005000D02*
X74125000Y-146805000D01*
X74125000Y-146805000D02*
X92245000Y-146805000D01*
X92245000Y-146805000D02*
X92245000Y-111005000D01*
X92245000Y-111005000D02*
X74125000Y-111005000D01*
X84185000Y-111065000D02*
G75*
G02*
X82185000Y-111065000I-1000000J0D01*
G01*
X128440000Y-53855000D02*
X100160000Y-53855000D01*
X128440000Y-104895000D02*
X128440000Y-53855000D01*
X100160000Y-104895000D02*
X128440000Y-104895000D01*
X100160000Y-53855000D02*
X100160000Y-104895000D01*
X125440000Y-53915000D02*
X115300000Y-53915000D01*
X125440000Y-104835000D02*
X125440000Y-53915000D01*
X103160000Y-104835000D02*
X125440000Y-104835000D01*
X103160000Y-53915000D02*
X103160000Y-104835000D01*
X113300000Y-53915000D02*
X103160000Y-53915000D01*
X115300000Y-53915000D02*
G75*
G02*
X113300000Y-53915000I-1000000J0D01*
G01*
X49410000Y-93175000D02*
X49410000Y-103675000D01*
X67430000Y-93175000D02*
X49410000Y-93175000D01*
X67430000Y-103675000D02*
X67430000Y-93175000D01*
X49410000Y-103675000D02*
X67430000Y-103675000D01*
X49470000Y-96175000D02*
X49470000Y-97425000D01*
X67370000Y-96175000D02*
X49470000Y-96175000D01*
X67370000Y-100675000D02*
X67370000Y-96175000D01*
X49470000Y-100675000D02*
X67370000Y-100675000D01*
X49470000Y-99425000D02*
X49470000Y-100675000D01*
X49470000Y-97425000D02*
G75*
G02*
X49470000Y-99425000I0J-1000000D01*
G01*
X49470000Y-86725000D02*
X49470000Y-87975000D01*
X49470000Y-87975000D02*
X67370000Y-87975000D01*
X67370000Y-87975000D02*
X67370000Y-83475000D01*
X67370000Y-83475000D02*
X49470000Y-83475000D01*
X49470000Y-83475000D02*
X49470000Y-84725000D01*
X49410000Y-90975000D02*
X67430000Y-90975000D01*
X67430000Y-90975000D02*
X67430000Y-80475000D01*
X67430000Y-80475000D02*
X49410000Y-80475000D01*
X49410000Y-80475000D02*
X49410000Y-90975000D01*
X49470000Y-84725000D02*
G75*
G02*
X49470000Y-86725000I0J-1000000D01*
G01*
X91335000Y-66095000D02*
X87735000Y-66095000D01*
X91373478Y-66106522D02*
G75*
G02*
X89535000Y-70545000I-1838478J-1838478D01*
G01*
X87696522Y-66106522D02*
G75*
G03*
X89535000Y-70545000I1838478J-1838478D01*
G01*
X49410000Y-67775000D02*
X49410000Y-78275000D01*
X67430000Y-67775000D02*
X49410000Y-67775000D01*
X67430000Y-78275000D02*
X67430000Y-67775000D01*
X49410000Y-78275000D02*
X67430000Y-78275000D01*
X49470000Y-70775000D02*
X49470000Y-72025000D01*
X67370000Y-70775000D02*
X49470000Y-70775000D01*
X67370000Y-75275000D02*
X67370000Y-70775000D01*
X49470000Y-75275000D02*
X67370000Y-75275000D01*
X49470000Y-74025000D02*
X49470000Y-75275000D01*
X49470000Y-72025000D02*
G75*
G02*
X49470000Y-74025000I0J-1000000D01*
G01*
X70830000Y-87095000D02*
X90980000Y-87095000D01*
X91730000Y-86345000D02*
X91730000Y-74945000D01*
X90980000Y-74195000D02*
X71580000Y-74195000D01*
X70830000Y-74945000D02*
X70830000Y-87095000D01*
X90980000Y-87095000D02*
G75*
G03*
X91730000Y-86345000I0J750000D01*
G01*
X91730000Y-74945000D02*
G75*
G03*
X90980000Y-74195000I-750000J0D01*
G01*
X71580000Y-74195000D02*
G75*
G03*
X70830000Y-74945000I0J-750000D01*
G01*
D10*
X114808095Y-109517380D02*
X114808095Y-110326904D01*
X114855714Y-110422142D01*
X114903333Y-110469761D01*
X114998571Y-110517380D01*
X115189047Y-110517380D01*
X115284285Y-110469761D01*
X115331904Y-110422142D01*
X115379523Y-110326904D01*
X115379523Y-109517380D01*
X115760476Y-109517380D02*
X116379523Y-109517380D01*
X116046190Y-109898333D01*
X116189047Y-109898333D01*
X116284285Y-109945952D01*
X116331904Y-109993571D01*
X116379523Y-110088809D01*
X116379523Y-110326904D01*
X116331904Y-110422142D01*
X116284285Y-110469761D01*
X116189047Y-110517380D01*
X115903333Y-110517380D01*
X115808095Y-110469761D01*
X115760476Y-110422142D01*
X112117619Y-148197380D02*
X111784285Y-147721190D01*
X111546190Y-148197380D02*
X111546190Y-147197380D01*
X111927142Y-147197380D01*
X112022380Y-147245000D01*
X112070000Y-147292619D01*
X112117619Y-147387857D01*
X112117619Y-147530714D01*
X112070000Y-147625952D01*
X112022380Y-147673571D01*
X111927142Y-147721190D01*
X111546190Y-147721190D01*
X112498571Y-147911666D02*
X112974761Y-147911666D01*
X112403333Y-148197380D02*
X112736666Y-147197380D01*
X113070000Y-148197380D01*
X113403333Y-148197380D02*
X113403333Y-147197380D01*
X113736666Y-147911666D01*
X114070000Y-147197380D01*
X114070000Y-148197380D01*
X115736666Y-147197380D02*
X115546190Y-147197380D01*
X115450952Y-147245000D01*
X115403333Y-147292619D01*
X115308095Y-147435476D01*
X115260476Y-147625952D01*
X115260476Y-148006904D01*
X115308095Y-148102142D01*
X115355714Y-148149761D01*
X115450952Y-148197380D01*
X115641428Y-148197380D01*
X115736666Y-148149761D01*
X115784285Y-148102142D01*
X115831904Y-148006904D01*
X115831904Y-147768809D01*
X115784285Y-147673571D01*
X115736666Y-147625952D01*
X115641428Y-147578333D01*
X115450952Y-147578333D01*
X115355714Y-147625952D01*
X115308095Y-147673571D01*
X115260476Y-147768809D01*
X116212857Y-147292619D02*
X116260476Y-147245000D01*
X116355714Y-147197380D01*
X116593809Y-147197380D01*
X116689047Y-147245000D01*
X116736666Y-147292619D01*
X116784285Y-147387857D01*
X116784285Y-147483095D01*
X116736666Y-147625952D01*
X116165238Y-148197380D01*
X116784285Y-148197380D01*
X117165238Y-147292619D02*
X117212857Y-147245000D01*
X117308095Y-147197380D01*
X117546190Y-147197380D01*
X117641428Y-147245000D01*
X117689047Y-147292619D01*
X117736666Y-147387857D01*
X117736666Y-147483095D01*
X117689047Y-147625952D01*
X117117619Y-148197380D01*
X117736666Y-148197380D01*
X118641428Y-147197380D02*
X118165238Y-147197380D01*
X118117619Y-147673571D01*
X118165238Y-147625952D01*
X118260476Y-147578333D01*
X118498571Y-147578333D01*
X118593809Y-147625952D01*
X118641428Y-147673571D01*
X118689047Y-147768809D01*
X118689047Y-148006904D01*
X118641428Y-148102142D01*
X118593809Y-148149761D01*
X118498571Y-148197380D01*
X118260476Y-148197380D01*
X118165238Y-148149761D01*
X118117619Y-148102142D01*
X119546190Y-147197380D02*
X119355714Y-147197380D01*
X119260476Y-147245000D01*
X119212857Y-147292619D01*
X119117619Y-147435476D01*
X119070000Y-147625952D01*
X119070000Y-148006904D01*
X119117619Y-148102142D01*
X119165238Y-148149761D01*
X119260476Y-148197380D01*
X119450952Y-148197380D01*
X119546190Y-148149761D01*
X119593809Y-148102142D01*
X119641428Y-148006904D01*
X119641428Y-147768809D01*
X119593809Y-147673571D01*
X119546190Y-147625952D01*
X119450952Y-147578333D01*
X119260476Y-147578333D01*
X119165238Y-147625952D01*
X119117619Y-147673571D01*
X119070000Y-147768809D01*
X37303333Y-77997142D02*
X37255714Y-78044761D01*
X37112857Y-78092380D01*
X37017619Y-78092380D01*
X36874761Y-78044761D01*
X36779523Y-77949523D01*
X36731904Y-77854285D01*
X36684285Y-77663809D01*
X36684285Y-77520952D01*
X36731904Y-77330476D01*
X36779523Y-77235238D01*
X36874761Y-77140000D01*
X37017619Y-77092380D01*
X37112857Y-77092380D01*
X37255714Y-77140000D01*
X37303333Y-77187619D01*
X38255714Y-78092380D02*
X37684285Y-78092380D01*
X37970000Y-78092380D02*
X37970000Y-77092380D01*
X37874761Y-77235238D01*
X37779523Y-77330476D01*
X37684285Y-77378095D01*
X99077142Y-91646666D02*
X99124761Y-91694285D01*
X99172380Y-91837142D01*
X99172380Y-91932380D01*
X99124761Y-92075238D01*
X99029523Y-92170476D01*
X98934285Y-92218095D01*
X98743809Y-92265714D01*
X98600952Y-92265714D01*
X98410476Y-92218095D01*
X98315238Y-92170476D01*
X98220000Y-92075238D01*
X98172380Y-91932380D01*
X98172380Y-91837142D01*
X98220000Y-91694285D01*
X98267619Y-91646666D01*
X98267619Y-91265714D02*
X98220000Y-91218095D01*
X98172380Y-91122857D01*
X98172380Y-90884761D01*
X98220000Y-90789523D01*
X98267619Y-90741904D01*
X98362857Y-90694285D01*
X98458095Y-90694285D01*
X98600952Y-90741904D01*
X99172380Y-91313333D01*
X99172380Y-90694285D01*
X100798333Y-144502142D02*
X100750714Y-144549761D01*
X100607857Y-144597380D01*
X100512619Y-144597380D01*
X100369761Y-144549761D01*
X100274523Y-144454523D01*
X100226904Y-144359285D01*
X100179285Y-144168809D01*
X100179285Y-144025952D01*
X100226904Y-143835476D01*
X100274523Y-143740238D01*
X100369761Y-143645000D01*
X100512619Y-143597380D01*
X100607857Y-143597380D01*
X100750714Y-143645000D01*
X100798333Y-143692619D01*
X101131666Y-143597380D02*
X101750714Y-143597380D01*
X101417380Y-143978333D01*
X101560238Y-143978333D01*
X101655476Y-144025952D01*
X101703095Y-144073571D01*
X101750714Y-144168809D01*
X101750714Y-144406904D01*
X101703095Y-144502142D01*
X101655476Y-144549761D01*
X101560238Y-144597380D01*
X101274523Y-144597380D01*
X101179285Y-144549761D01*
X101131666Y-144502142D01*
X43877142Y-97281666D02*
X43924761Y-97329285D01*
X43972380Y-97472142D01*
X43972380Y-97567380D01*
X43924761Y-97710238D01*
X43829523Y-97805476D01*
X43734285Y-97853095D01*
X43543809Y-97900714D01*
X43400952Y-97900714D01*
X43210476Y-97853095D01*
X43115238Y-97805476D01*
X43020000Y-97710238D01*
X42972380Y-97567380D01*
X42972380Y-97472142D01*
X43020000Y-97329285D01*
X43067619Y-97281666D01*
X43305714Y-96424523D02*
X43972380Y-96424523D01*
X42924761Y-96662619D02*
X43639047Y-96900714D01*
X43639047Y-96281666D01*
X43877142Y-84026666D02*
X43924761Y-84074285D01*
X43972380Y-84217142D01*
X43972380Y-84312380D01*
X43924761Y-84455238D01*
X43829523Y-84550476D01*
X43734285Y-84598095D01*
X43543809Y-84645714D01*
X43400952Y-84645714D01*
X43210476Y-84598095D01*
X43115238Y-84550476D01*
X43020000Y-84455238D01*
X42972380Y-84312380D01*
X42972380Y-84217142D01*
X43020000Y-84074285D01*
X43067619Y-84026666D01*
X42972380Y-83121904D02*
X42972380Y-83598095D01*
X43448571Y-83645714D01*
X43400952Y-83598095D01*
X43353333Y-83502857D01*
X43353333Y-83264761D01*
X43400952Y-83169523D01*
X43448571Y-83121904D01*
X43543809Y-83074285D01*
X43781904Y-83074285D01*
X43877142Y-83121904D01*
X43924761Y-83169523D01*
X43972380Y-83264761D01*
X43972380Y-83502857D01*
X43924761Y-83598095D01*
X43877142Y-83645714D01*
X68413333Y-144502142D02*
X68365714Y-144549761D01*
X68222857Y-144597380D01*
X68127619Y-144597380D01*
X67984761Y-144549761D01*
X67889523Y-144454523D01*
X67841904Y-144359285D01*
X67794285Y-144168809D01*
X67794285Y-144025952D01*
X67841904Y-143835476D01*
X67889523Y-143740238D01*
X67984761Y-143645000D01*
X68127619Y-143597380D01*
X68222857Y-143597380D01*
X68365714Y-143645000D01*
X68413333Y-143692619D01*
X69270476Y-143597380D02*
X69080000Y-143597380D01*
X68984761Y-143645000D01*
X68937142Y-143692619D01*
X68841904Y-143835476D01*
X68794285Y-144025952D01*
X68794285Y-144406904D01*
X68841904Y-144502142D01*
X68889523Y-144549761D01*
X68984761Y-144597380D01*
X69175238Y-144597380D01*
X69270476Y-144549761D01*
X69318095Y-144502142D01*
X69365714Y-144406904D01*
X69365714Y-144168809D01*
X69318095Y-144073571D01*
X69270476Y-144025952D01*
X69175238Y-143978333D01*
X68984761Y-143978333D01*
X68889523Y-144025952D01*
X68841904Y-144073571D01*
X68794285Y-144168809D01*
X43877142Y-73311666D02*
X43924761Y-73359285D01*
X43972380Y-73502142D01*
X43972380Y-73597380D01*
X43924761Y-73740238D01*
X43829523Y-73835476D01*
X43734285Y-73883095D01*
X43543809Y-73930714D01*
X43400952Y-73930714D01*
X43210476Y-73883095D01*
X43115238Y-73835476D01*
X43020000Y-73740238D01*
X42972380Y-73597380D01*
X42972380Y-73502142D01*
X43020000Y-73359285D01*
X43067619Y-73311666D01*
X42972380Y-72978333D02*
X42972380Y-72311666D01*
X43972380Y-72740238D01*
X86872380Y-93043333D02*
X87586666Y-93043333D01*
X87729523Y-93090952D01*
X87824761Y-93186190D01*
X87872380Y-93329047D01*
X87872380Y-93424285D01*
X87872380Y-92043333D02*
X87872380Y-92614761D01*
X87872380Y-92329047D02*
X86872380Y-92329047D01*
X87015238Y-92424285D01*
X87110476Y-92519523D01*
X87158095Y-92614761D01*
X79811904Y-95702380D02*
X79811904Y-94702380D01*
X80859523Y-95702380D02*
X80526190Y-95226190D01*
X80288095Y-95702380D02*
X80288095Y-94702380D01*
X80669047Y-94702380D01*
X80764285Y-94750000D01*
X80811904Y-94797619D01*
X80859523Y-94892857D01*
X80859523Y-95035714D01*
X80811904Y-95130952D01*
X80764285Y-95178571D01*
X80669047Y-95226190D01*
X80288095Y-95226190D01*
X81954761Y-95797619D02*
X81859523Y-95750000D01*
X81764285Y-95654761D01*
X81621428Y-95511904D01*
X81526190Y-95464285D01*
X81430952Y-95464285D01*
X81478571Y-95702380D02*
X81383333Y-95654761D01*
X81288095Y-95559523D01*
X81240476Y-95369047D01*
X81240476Y-95035714D01*
X81288095Y-94845238D01*
X81383333Y-94750000D01*
X81478571Y-94702380D01*
X81669047Y-94702380D01*
X81764285Y-94750000D01*
X81859523Y-94845238D01*
X81907142Y-95035714D01*
X81907142Y-95369047D01*
X81859523Y-95559523D01*
X81764285Y-95654761D01*
X81669047Y-95702380D01*
X81478571Y-95702380D01*
X82097619Y-95797619D02*
X82859523Y-95797619D01*
X83050000Y-95654761D02*
X83192857Y-95702380D01*
X83430952Y-95702380D01*
X83526190Y-95654761D01*
X83573809Y-95607142D01*
X83621428Y-95511904D01*
X83621428Y-95416666D01*
X83573809Y-95321428D01*
X83526190Y-95273809D01*
X83430952Y-95226190D01*
X83240476Y-95178571D01*
X83145238Y-95130952D01*
X83097619Y-95083333D01*
X83050000Y-94988095D01*
X83050000Y-94892857D01*
X83097619Y-94797619D01*
X83145238Y-94750000D01*
X83240476Y-94702380D01*
X83478571Y-94702380D01*
X83621428Y-94750000D01*
X84050000Y-95178571D02*
X84383333Y-95178571D01*
X84526190Y-95702380D02*
X84050000Y-95702380D01*
X84050000Y-94702380D01*
X84526190Y-94702380D01*
X85430952Y-95702380D02*
X84954761Y-95702380D01*
X84954761Y-94702380D01*
X83697380Y-68278333D02*
X84411666Y-68278333D01*
X84554523Y-68325952D01*
X84649761Y-68421190D01*
X84697380Y-68564047D01*
X84697380Y-68659285D01*
X83792619Y-67849761D02*
X83745000Y-67802142D01*
X83697380Y-67706904D01*
X83697380Y-67468809D01*
X83745000Y-67373571D01*
X83792619Y-67325952D01*
X83887857Y-67278333D01*
X83983095Y-67278333D01*
X84125952Y-67325952D01*
X84697380Y-67897380D01*
X84697380Y-67278333D01*
X76343333Y-70842142D02*
X76295714Y-70889761D01*
X76152857Y-70937380D01*
X76057619Y-70937380D01*
X75914761Y-70889761D01*
X75819523Y-70794523D01*
X75771904Y-70699285D01*
X75724285Y-70508809D01*
X75724285Y-70365952D01*
X75771904Y-70175476D01*
X75819523Y-70080238D01*
X75914761Y-69985000D01*
X76057619Y-69937380D01*
X76152857Y-69937380D01*
X76295714Y-69985000D01*
X76343333Y-70032619D01*
X77248095Y-70937380D02*
X76771904Y-70937380D01*
X76771904Y-69937380D01*
X77581428Y-70937380D02*
X77581428Y-69937380D01*
X78152857Y-70937380D02*
X77724285Y-70365952D01*
X78152857Y-69937380D02*
X77581428Y-70508809D01*
X79629047Y-69937380D02*
X79629047Y-70651666D01*
X79581428Y-70794523D01*
X79486190Y-70889761D01*
X79343333Y-70937380D01*
X79248095Y-70937380D01*
X80533809Y-70270714D02*
X80533809Y-70937380D01*
X80105238Y-70270714D02*
X80105238Y-70794523D01*
X80152857Y-70889761D01*
X80248095Y-70937380D01*
X80390952Y-70937380D01*
X80486190Y-70889761D01*
X80533809Y-70842142D01*
X81010000Y-70937380D02*
X81010000Y-70270714D01*
X81010000Y-70365952D02*
X81057619Y-70318333D01*
X81152857Y-70270714D01*
X81295714Y-70270714D01*
X81390952Y-70318333D01*
X81438571Y-70413571D01*
X81438571Y-70937380D01*
X81438571Y-70413571D02*
X81486190Y-70318333D01*
X81581428Y-70270714D01*
X81724285Y-70270714D01*
X81819523Y-70318333D01*
X81867142Y-70413571D01*
X81867142Y-70937380D01*
X82343333Y-70270714D02*
X82343333Y-71270714D01*
X82343333Y-70318333D02*
X82438571Y-70270714D01*
X82629047Y-70270714D01*
X82724285Y-70318333D01*
X82771904Y-70365952D01*
X82819523Y-70461190D01*
X82819523Y-70746904D01*
X82771904Y-70842142D01*
X82724285Y-70889761D01*
X82629047Y-70937380D01*
X82438571Y-70937380D01*
X82343333Y-70889761D01*
X83629047Y-70889761D02*
X83533809Y-70937380D01*
X83343333Y-70937380D01*
X83248095Y-70889761D01*
X83200476Y-70794523D01*
X83200476Y-70413571D01*
X83248095Y-70318333D01*
X83343333Y-70270714D01*
X83533809Y-70270714D01*
X83629047Y-70318333D01*
X83676666Y-70413571D01*
X83676666Y-70508809D01*
X83200476Y-70604047D01*
X84105238Y-70937380D02*
X84105238Y-70270714D01*
X84105238Y-70461190D02*
X84152857Y-70365952D01*
X84200476Y-70318333D01*
X84295714Y-70270714D01*
X84390952Y-70270714D01*
X33885476Y-63952380D02*
X33885476Y-62952380D01*
X34266428Y-62952380D01*
X34361666Y-63000000D01*
X34409285Y-63047619D01*
X34456904Y-63142857D01*
X34456904Y-63285714D01*
X34409285Y-63380952D01*
X34361666Y-63428571D01*
X34266428Y-63476190D01*
X33885476Y-63476190D01*
X35075952Y-62952380D02*
X35266428Y-62952380D01*
X35361666Y-63000000D01*
X35456904Y-63095238D01*
X35504523Y-63285714D01*
X35504523Y-63619047D01*
X35456904Y-63809523D01*
X35361666Y-63904761D01*
X35266428Y-63952380D01*
X35075952Y-63952380D01*
X34980714Y-63904761D01*
X34885476Y-63809523D01*
X34837857Y-63619047D01*
X34837857Y-63285714D01*
X34885476Y-63095238D01*
X34980714Y-63000000D01*
X35075952Y-62952380D01*
X35837857Y-62952380D02*
X36075952Y-63952380D01*
X36266428Y-63238095D01*
X36456904Y-63952380D01*
X36695000Y-62952380D01*
X37075952Y-63428571D02*
X37409285Y-63428571D01*
X37552142Y-63952380D02*
X37075952Y-63952380D01*
X37075952Y-62952380D01*
X37552142Y-62952380D01*
X38552142Y-63952380D02*
X38218809Y-63476190D01*
X37980714Y-63952380D02*
X37980714Y-62952380D01*
X38361666Y-62952380D01*
X38456904Y-63000000D01*
X38504523Y-63047619D01*
X38552142Y-63142857D01*
X38552142Y-63285714D01*
X38504523Y-63380952D01*
X38456904Y-63428571D01*
X38361666Y-63476190D01*
X37980714Y-63476190D01*
X33956666Y-146137380D02*
X33956666Y-146851666D01*
X33909047Y-146994523D01*
X33813809Y-147089761D01*
X33670952Y-147137380D01*
X33575714Y-147137380D01*
X34861428Y-146470714D02*
X34861428Y-147137380D01*
X34623333Y-146089761D02*
X34385238Y-146804047D01*
X35004285Y-146804047D01*
X34218571Y-133087380D02*
X34218571Y-132754047D01*
X34742380Y-132611190D02*
X34742380Y-133087380D01*
X33742380Y-133087380D01*
X33742380Y-132611190D01*
X34742380Y-132277857D02*
X34075714Y-131754047D01*
X34075714Y-132277857D02*
X34742380Y-131754047D01*
X34075714Y-131373095D02*
X35075714Y-131373095D01*
X34123333Y-131373095D02*
X34075714Y-131277857D01*
X34075714Y-131087380D01*
X34123333Y-130992142D01*
X34170952Y-130944523D01*
X34266190Y-130896904D01*
X34551904Y-130896904D01*
X34647142Y-130944523D01*
X34694761Y-130992142D01*
X34742380Y-131087380D01*
X34742380Y-131277857D01*
X34694761Y-131373095D01*
X34742380Y-130039761D02*
X34218571Y-130039761D01*
X34123333Y-130087380D01*
X34075714Y-130182619D01*
X34075714Y-130373095D01*
X34123333Y-130468333D01*
X34694761Y-130039761D02*
X34742380Y-130135000D01*
X34742380Y-130373095D01*
X34694761Y-130468333D01*
X34599523Y-130515952D01*
X34504285Y-130515952D01*
X34409047Y-130468333D01*
X34361428Y-130373095D01*
X34361428Y-130135000D01*
X34313809Y-130039761D01*
X34075714Y-129563571D02*
X34742380Y-129563571D01*
X34170952Y-129563571D02*
X34123333Y-129515952D01*
X34075714Y-129420714D01*
X34075714Y-129277857D01*
X34123333Y-129182619D01*
X34218571Y-129135000D01*
X34742380Y-129135000D01*
X34694761Y-128706428D02*
X34742380Y-128611190D01*
X34742380Y-128420714D01*
X34694761Y-128325476D01*
X34599523Y-128277857D01*
X34551904Y-128277857D01*
X34456666Y-128325476D01*
X34409047Y-128420714D01*
X34409047Y-128563571D01*
X34361428Y-128658809D01*
X34266190Y-128706428D01*
X34218571Y-128706428D01*
X34123333Y-128658809D01*
X34075714Y-128563571D01*
X34075714Y-128420714D01*
X34123333Y-128325476D01*
X34742380Y-127849285D02*
X34075714Y-127849285D01*
X33742380Y-127849285D02*
X33790000Y-127896904D01*
X33837619Y-127849285D01*
X33790000Y-127801666D01*
X33742380Y-127849285D01*
X33837619Y-127849285D01*
X34742380Y-127230238D02*
X34694761Y-127325476D01*
X34647142Y-127373095D01*
X34551904Y-127420714D01*
X34266190Y-127420714D01*
X34170952Y-127373095D01*
X34123333Y-127325476D01*
X34075714Y-127230238D01*
X34075714Y-127087380D01*
X34123333Y-126992142D01*
X34170952Y-126944523D01*
X34266190Y-126896904D01*
X34551904Y-126896904D01*
X34647142Y-126944523D01*
X34694761Y-126992142D01*
X34742380Y-127087380D01*
X34742380Y-127230238D01*
X34075714Y-126468333D02*
X34742380Y-126468333D01*
X34170952Y-126468333D02*
X34123333Y-126420714D01*
X34075714Y-126325476D01*
X34075714Y-126182619D01*
X34123333Y-126087380D01*
X34218571Y-126039761D01*
X34742380Y-126039761D01*
X34742380Y-124801666D02*
X33742380Y-124801666D01*
X33742380Y-124420714D01*
X33790000Y-124325476D01*
X33837619Y-124277857D01*
X33932857Y-124230238D01*
X34075714Y-124230238D01*
X34170952Y-124277857D01*
X34218571Y-124325476D01*
X34266190Y-124420714D01*
X34266190Y-124801666D01*
X34742380Y-123658809D02*
X34694761Y-123754047D01*
X34647142Y-123801666D01*
X34551904Y-123849285D01*
X34266190Y-123849285D01*
X34170952Y-123801666D01*
X34123333Y-123754047D01*
X34075714Y-123658809D01*
X34075714Y-123515952D01*
X34123333Y-123420714D01*
X34170952Y-123373095D01*
X34266190Y-123325476D01*
X34551904Y-123325476D01*
X34647142Y-123373095D01*
X34694761Y-123420714D01*
X34742380Y-123515952D01*
X34742380Y-123658809D01*
X34742380Y-122896904D02*
X34075714Y-122896904D01*
X34266190Y-122896904D02*
X34170952Y-122849285D01*
X34123333Y-122801666D01*
X34075714Y-122706428D01*
X34075714Y-122611190D01*
X34075714Y-122420714D02*
X34075714Y-122039761D01*
X33742380Y-122277857D02*
X34599523Y-122277857D01*
X34694761Y-122230238D01*
X34742380Y-122135000D01*
X34742380Y-122039761D01*
X65282380Y-61293333D02*
X65996666Y-61293333D01*
X66139523Y-61340952D01*
X66234761Y-61436190D01*
X66282380Y-61579047D01*
X66282380Y-61674285D01*
X65282380Y-60340952D02*
X65282380Y-60817142D01*
X65758571Y-60864761D01*
X65710952Y-60817142D01*
X65663333Y-60721904D01*
X65663333Y-60483809D01*
X65710952Y-60388571D01*
X65758571Y-60340952D01*
X65853809Y-60293333D01*
X66091904Y-60293333D01*
X66187142Y-60340952D01*
X66234761Y-60388571D01*
X66282380Y-60483809D01*
X66282380Y-60721904D01*
X66234761Y-60817142D01*
X66187142Y-60864761D01*
X54634285Y-65222380D02*
X54634285Y-64222380D01*
X55681904Y-65222380D02*
X55348571Y-64746190D01*
X55110476Y-65222380D02*
X55110476Y-64222380D01*
X55491428Y-64222380D01*
X55586666Y-64270000D01*
X55634285Y-64317619D01*
X55681904Y-64412857D01*
X55681904Y-64555714D01*
X55634285Y-64650952D01*
X55586666Y-64698571D01*
X55491428Y-64746190D01*
X55110476Y-64746190D01*
X56777142Y-65317619D02*
X56681904Y-65270000D01*
X56586666Y-65174761D01*
X56443809Y-65031904D01*
X56348571Y-64984285D01*
X56253333Y-64984285D01*
X56300952Y-65222380D02*
X56205714Y-65174761D01*
X56110476Y-65079523D01*
X56062857Y-64889047D01*
X56062857Y-64555714D01*
X56110476Y-64365238D01*
X56205714Y-64270000D01*
X56300952Y-64222380D01*
X56491428Y-64222380D01*
X56586666Y-64270000D01*
X56681904Y-64365238D01*
X56729523Y-64555714D01*
X56729523Y-64889047D01*
X56681904Y-65079523D01*
X56586666Y-65174761D01*
X56491428Y-65222380D01*
X56300952Y-65222380D01*
X56920000Y-65317619D02*
X57681904Y-65317619D01*
X57920000Y-65222380D02*
X57920000Y-64222380D01*
X58300952Y-64222380D01*
X58396190Y-64270000D01*
X58443809Y-64317619D01*
X58491428Y-64412857D01*
X58491428Y-64555714D01*
X58443809Y-64650952D01*
X58396190Y-64698571D01*
X58300952Y-64746190D01*
X57920000Y-64746190D01*
X59348571Y-64555714D02*
X59348571Y-65222380D01*
X58920000Y-64555714D02*
X58920000Y-65079523D01*
X58967619Y-65174761D01*
X59062857Y-65222380D01*
X59205714Y-65222380D01*
X59300952Y-65174761D01*
X59348571Y-65127142D01*
X59967619Y-65222380D02*
X59872380Y-65174761D01*
X59824761Y-65079523D01*
X59824761Y-64222380D01*
X60491428Y-65222380D02*
X60396190Y-65174761D01*
X60348571Y-65079523D01*
X60348571Y-64222380D01*
X61300952Y-64555714D02*
X61300952Y-65222380D01*
X60872380Y-64555714D02*
X60872380Y-65079523D01*
X60920000Y-65174761D01*
X61015238Y-65222380D01*
X61158095Y-65222380D01*
X61253333Y-65174761D01*
X61300952Y-65127142D01*
X61777142Y-64555714D02*
X61777142Y-65555714D01*
X61777142Y-64603333D02*
X61872380Y-64555714D01*
X62062857Y-64555714D01*
X62158095Y-64603333D01*
X62205714Y-64650952D01*
X62253333Y-64746190D01*
X62253333Y-65031904D01*
X62205714Y-65127142D01*
X62158095Y-65174761D01*
X62062857Y-65222380D01*
X61872380Y-65222380D01*
X61777142Y-65174761D01*
X95686666Y-63162380D02*
X95686666Y-63876666D01*
X95639047Y-64019523D01*
X95543809Y-64114761D01*
X95400952Y-64162380D01*
X95305714Y-64162380D01*
X96162857Y-64162380D02*
X96162857Y-63162380D01*
X96543809Y-63162380D01*
X96639047Y-63210000D01*
X96686666Y-63257619D01*
X96734285Y-63352857D01*
X96734285Y-63495714D01*
X96686666Y-63590952D01*
X96639047Y-63638571D01*
X96543809Y-63686190D01*
X96162857Y-63686190D01*
X97686666Y-64162380D02*
X97115238Y-64162380D01*
X97400952Y-64162380D02*
X97400952Y-63162380D01*
X97305714Y-63305238D01*
X97210476Y-63400476D01*
X97115238Y-63448095D01*
X95591428Y-69995000D02*
X96448571Y-69995000D01*
X95686666Y-70362380D02*
X96020000Y-71362380D01*
X96353333Y-70362380D01*
X96448571Y-69995000D02*
X97448571Y-69995000D01*
X96686666Y-71362380D02*
X96686666Y-70362380D01*
X97067619Y-70362380D01*
X97162857Y-70410000D01*
X97210476Y-70457619D01*
X97258095Y-70552857D01*
X97258095Y-70695714D01*
X97210476Y-70790952D01*
X97162857Y-70838571D01*
X97067619Y-70886190D01*
X96686666Y-70886190D01*
X40922380Y-87796666D02*
X40446190Y-88130000D01*
X40922380Y-88368095D02*
X39922380Y-88368095D01*
X39922380Y-87987142D01*
X39970000Y-87891904D01*
X40017619Y-87844285D01*
X40112857Y-87796666D01*
X40255714Y-87796666D01*
X40350952Y-87844285D01*
X40398571Y-87891904D01*
X40446190Y-87987142D01*
X40446190Y-88368095D01*
X40922380Y-86844285D02*
X40922380Y-87415714D01*
X40922380Y-87130000D02*
X39922380Y-87130000D01*
X40065238Y-87225238D01*
X40160476Y-87320476D01*
X40208095Y-87415714D01*
X73942380Y-57951666D02*
X73466190Y-58285000D01*
X73942380Y-58523095D02*
X72942380Y-58523095D01*
X72942380Y-58142142D01*
X72990000Y-58046904D01*
X73037619Y-57999285D01*
X73132857Y-57951666D01*
X73275714Y-57951666D01*
X73370952Y-57999285D01*
X73418571Y-58046904D01*
X73466190Y-58142142D01*
X73466190Y-58523095D01*
X73037619Y-57570714D02*
X72990000Y-57523095D01*
X72942380Y-57427857D01*
X72942380Y-57189761D01*
X72990000Y-57094523D01*
X73037619Y-57046904D01*
X73132857Y-56999285D01*
X73228095Y-56999285D01*
X73370952Y-57046904D01*
X73942380Y-57618333D01*
X73942380Y-56999285D01*
X94602380Y-80176666D02*
X94126190Y-80510000D01*
X94602380Y-80748095D02*
X93602380Y-80748095D01*
X93602380Y-80367142D01*
X93650000Y-80271904D01*
X93697619Y-80224285D01*
X93792857Y-80176666D01*
X93935714Y-80176666D01*
X94030952Y-80224285D01*
X94078571Y-80271904D01*
X94126190Y-80367142D01*
X94126190Y-80748095D01*
X93602380Y-79843333D02*
X93602380Y-79224285D01*
X93983333Y-79557619D01*
X93983333Y-79414761D01*
X94030952Y-79319523D01*
X94078571Y-79271904D01*
X94173809Y-79224285D01*
X94411904Y-79224285D01*
X94507142Y-79271904D01*
X94554761Y-79319523D01*
X94602380Y-79414761D01*
X94602380Y-79700476D01*
X94554761Y-79795714D01*
X94507142Y-79843333D01*
X80292380Y-57951666D02*
X79816190Y-58285000D01*
X80292380Y-58523095D02*
X79292380Y-58523095D01*
X79292380Y-58142142D01*
X79340000Y-58046904D01*
X79387619Y-57999285D01*
X79482857Y-57951666D01*
X79625714Y-57951666D01*
X79720952Y-57999285D01*
X79768571Y-58046904D01*
X79816190Y-58142142D01*
X79816190Y-58523095D01*
X79625714Y-57094523D02*
X80292380Y-57094523D01*
X79244761Y-57332619D02*
X79959047Y-57570714D01*
X79959047Y-56951666D01*
X86642380Y-57951666D02*
X86166190Y-58285000D01*
X86642380Y-58523095D02*
X85642380Y-58523095D01*
X85642380Y-58142142D01*
X85690000Y-58046904D01*
X85737619Y-57999285D01*
X85832857Y-57951666D01*
X85975714Y-57951666D01*
X86070952Y-57999285D01*
X86118571Y-58046904D01*
X86166190Y-58142142D01*
X86166190Y-58523095D01*
X85642380Y-57046904D02*
X85642380Y-57523095D01*
X86118571Y-57570714D01*
X86070952Y-57523095D01*
X86023333Y-57427857D01*
X86023333Y-57189761D01*
X86070952Y-57094523D01*
X86118571Y-57046904D01*
X86213809Y-56999285D01*
X86451904Y-56999285D01*
X86547142Y-57046904D01*
X86594761Y-57094523D01*
X86642380Y-57189761D01*
X86642380Y-57427857D01*
X86594761Y-57523095D01*
X86547142Y-57570714D01*
X58253333Y-56797380D02*
X57920000Y-56321190D01*
X57681904Y-56797380D02*
X57681904Y-55797380D01*
X58062857Y-55797380D01*
X58158095Y-55845000D01*
X58205714Y-55892619D01*
X58253333Y-55987857D01*
X58253333Y-56130714D01*
X58205714Y-56225952D01*
X58158095Y-56273571D01*
X58062857Y-56321190D01*
X57681904Y-56321190D01*
X59110476Y-55797380D02*
X58920000Y-55797380D01*
X58824761Y-55845000D01*
X58777142Y-55892619D01*
X58681904Y-56035476D01*
X58634285Y-56225952D01*
X58634285Y-56606904D01*
X58681904Y-56702142D01*
X58729523Y-56749761D01*
X58824761Y-56797380D01*
X59015238Y-56797380D01*
X59110476Y-56749761D01*
X59158095Y-56702142D01*
X59205714Y-56606904D01*
X59205714Y-56368809D01*
X59158095Y-56273571D01*
X59110476Y-56225952D01*
X59015238Y-56178333D01*
X58824761Y-56178333D01*
X58729523Y-56225952D01*
X58681904Y-56273571D01*
X58634285Y-56368809D01*
X88836666Y-60729761D02*
X88979523Y-60777380D01*
X89217619Y-60777380D01*
X89312857Y-60729761D01*
X89360476Y-60682142D01*
X89408095Y-60586904D01*
X89408095Y-60491666D01*
X89360476Y-60396428D01*
X89312857Y-60348809D01*
X89217619Y-60301190D01*
X89027142Y-60253571D01*
X88931904Y-60205952D01*
X88884285Y-60158333D01*
X88836666Y-60063095D01*
X88836666Y-59967857D01*
X88884285Y-59872619D01*
X88931904Y-59825000D01*
X89027142Y-59777380D01*
X89265238Y-59777380D01*
X89408095Y-59825000D01*
X89741428Y-59777380D02*
X89979523Y-60777380D01*
X90170000Y-60063095D01*
X90360476Y-60777380D01*
X90598571Y-59777380D01*
X91503333Y-60777380D02*
X90931904Y-60777380D01*
X91217619Y-60777380D02*
X91217619Y-59777380D01*
X91122380Y-59920238D01*
X91027142Y-60015476D01*
X90931904Y-60063095D01*
X90622619Y-51887380D02*
X90289285Y-51411190D01*
X90051190Y-51887380D02*
X90051190Y-50887380D01*
X90432142Y-50887380D01*
X90527380Y-50935000D01*
X90575000Y-50982619D01*
X90622619Y-51077857D01*
X90622619Y-51220714D01*
X90575000Y-51315952D01*
X90527380Y-51363571D01*
X90432142Y-51411190D01*
X90051190Y-51411190D01*
X91051190Y-51363571D02*
X91384523Y-51363571D01*
X91527380Y-51887380D02*
X91051190Y-51887380D01*
X91051190Y-50887380D01*
X91527380Y-50887380D01*
X91908333Y-51839761D02*
X92051190Y-51887380D01*
X92289285Y-51887380D01*
X92384523Y-51839761D01*
X92432142Y-51792142D01*
X92479761Y-51696904D01*
X92479761Y-51601666D01*
X92432142Y-51506428D01*
X92384523Y-51458809D01*
X92289285Y-51411190D01*
X92098809Y-51363571D01*
X92003571Y-51315952D01*
X91955952Y-51268333D01*
X91908333Y-51173095D01*
X91908333Y-51077857D01*
X91955952Y-50982619D01*
X92003571Y-50935000D01*
X92098809Y-50887380D01*
X92336904Y-50887380D01*
X92479761Y-50935000D01*
X92908333Y-51363571D02*
X93241666Y-51363571D01*
X93384523Y-51887380D02*
X92908333Y-51887380D01*
X92908333Y-50887380D01*
X93384523Y-50887380D01*
X93670238Y-50887380D02*
X94241666Y-50887380D01*
X93955952Y-51887380D02*
X93955952Y-50887380D01*
X82423095Y-109517380D02*
X82423095Y-110326904D01*
X82470714Y-110422142D01*
X82518333Y-110469761D01*
X82613571Y-110517380D01*
X82804047Y-110517380D01*
X82899285Y-110469761D01*
X82946904Y-110422142D01*
X82994523Y-110326904D01*
X82994523Y-109517380D01*
X83994523Y-110517380D02*
X83423095Y-110517380D01*
X83708809Y-110517380D02*
X83708809Y-109517380D01*
X83613571Y-109660238D01*
X83518333Y-109755476D01*
X83423095Y-109803095D01*
X79137380Y-148197380D02*
X78804047Y-147721190D01*
X78565952Y-148197380D02*
X78565952Y-147197380D01*
X78946904Y-147197380D01*
X79042142Y-147245000D01*
X79089761Y-147292619D01*
X79137380Y-147387857D01*
X79137380Y-147530714D01*
X79089761Y-147625952D01*
X79042142Y-147673571D01*
X78946904Y-147721190D01*
X78565952Y-147721190D01*
X79756428Y-147197380D02*
X79946904Y-147197380D01*
X80042142Y-147245000D01*
X80137380Y-147340238D01*
X80185000Y-147530714D01*
X80185000Y-147864047D01*
X80137380Y-148054523D01*
X80042142Y-148149761D01*
X79946904Y-148197380D01*
X79756428Y-148197380D01*
X79661190Y-148149761D01*
X79565952Y-148054523D01*
X79518333Y-147864047D01*
X79518333Y-147530714D01*
X79565952Y-147340238D01*
X79661190Y-147245000D01*
X79756428Y-147197380D01*
X80613571Y-148197380D02*
X80613571Y-147197380D01*
X80946904Y-147911666D01*
X81280238Y-147197380D01*
X81280238Y-148197380D01*
X82470714Y-147292619D02*
X82518333Y-147245000D01*
X82613571Y-147197380D01*
X82851666Y-147197380D01*
X82946904Y-147245000D01*
X82994523Y-147292619D01*
X83042142Y-147387857D01*
X83042142Y-147483095D01*
X82994523Y-147625952D01*
X82423095Y-148197380D01*
X83042142Y-148197380D01*
X83613571Y-147625952D02*
X83518333Y-147578333D01*
X83470714Y-147530714D01*
X83423095Y-147435476D01*
X83423095Y-147387857D01*
X83470714Y-147292619D01*
X83518333Y-147245000D01*
X83613571Y-147197380D01*
X83804047Y-147197380D01*
X83899285Y-147245000D01*
X83946904Y-147292619D01*
X83994523Y-147387857D01*
X83994523Y-147435476D01*
X83946904Y-147530714D01*
X83899285Y-147578333D01*
X83804047Y-147625952D01*
X83613571Y-147625952D01*
X83518333Y-147673571D01*
X83470714Y-147721190D01*
X83423095Y-147816428D01*
X83423095Y-148006904D01*
X83470714Y-148102142D01*
X83518333Y-148149761D01*
X83613571Y-148197380D01*
X83804047Y-148197380D01*
X83899285Y-148149761D01*
X83946904Y-148102142D01*
X83994523Y-148006904D01*
X83994523Y-147816428D01*
X83946904Y-147721190D01*
X83899285Y-147673571D01*
X83804047Y-147625952D01*
X84994523Y-148102142D02*
X84946904Y-148149761D01*
X84804047Y-148197380D01*
X84708809Y-148197380D01*
X84565952Y-148149761D01*
X84470714Y-148054523D01*
X84423095Y-147959285D01*
X84375476Y-147768809D01*
X84375476Y-147625952D01*
X84423095Y-147435476D01*
X84470714Y-147340238D01*
X84565952Y-147245000D01*
X84708809Y-147197380D01*
X84804047Y-147197380D01*
X84946904Y-147245000D01*
X84994523Y-147292619D01*
X85375476Y-147292619D02*
X85423095Y-147245000D01*
X85518333Y-147197380D01*
X85756428Y-147197380D01*
X85851666Y-147245000D01*
X85899285Y-147292619D01*
X85946904Y-147387857D01*
X85946904Y-147483095D01*
X85899285Y-147625952D01*
X85327857Y-148197380D01*
X85946904Y-148197380D01*
X86851666Y-147197380D02*
X86375476Y-147197380D01*
X86327857Y-147673571D01*
X86375476Y-147625952D01*
X86470714Y-147578333D01*
X86708809Y-147578333D01*
X86804047Y-147625952D01*
X86851666Y-147673571D01*
X86899285Y-147768809D01*
X86899285Y-148006904D01*
X86851666Y-148102142D01*
X86804047Y-148149761D01*
X86708809Y-148197380D01*
X86470714Y-148197380D01*
X86375476Y-148149761D01*
X86327857Y-148102142D01*
X87756428Y-147197380D02*
X87565952Y-147197380D01*
X87470714Y-147245000D01*
X87423095Y-147292619D01*
X87327857Y-147435476D01*
X87280238Y-147625952D01*
X87280238Y-148006904D01*
X87327857Y-148102142D01*
X87375476Y-148149761D01*
X87470714Y-148197380D01*
X87661190Y-148197380D01*
X87756428Y-148149761D01*
X87804047Y-148102142D01*
X87851666Y-148006904D01*
X87851666Y-147768809D01*
X87804047Y-147673571D01*
X87756428Y-147625952D01*
X87661190Y-147578333D01*
X87470714Y-147578333D01*
X87375476Y-147625952D01*
X87327857Y-147673571D01*
X87280238Y-147768809D01*
X113538095Y-52367380D02*
X113538095Y-53176904D01*
X113585714Y-53272142D01*
X113633333Y-53319761D01*
X113728571Y-53367380D01*
X113919047Y-53367380D01*
X114014285Y-53319761D01*
X114061904Y-53272142D01*
X114109523Y-53176904D01*
X114109523Y-52367380D01*
X114538095Y-52462619D02*
X114585714Y-52415000D01*
X114680952Y-52367380D01*
X114919047Y-52367380D01*
X115014285Y-52415000D01*
X115061904Y-52462619D01*
X115109523Y-52557857D01*
X115109523Y-52653095D01*
X115061904Y-52795952D01*
X114490476Y-53367380D01*
X115109523Y-53367380D01*
X103680000Y-53062142D02*
X103632380Y-53109761D01*
X103489523Y-53157380D01*
X103394285Y-53157380D01*
X103251428Y-53109761D01*
X103156190Y-53014523D01*
X103108571Y-52919285D01*
X103060952Y-52728809D01*
X103060952Y-52585952D01*
X103108571Y-52395476D01*
X103156190Y-52300238D01*
X103251428Y-52205000D01*
X103394285Y-52157380D01*
X103489523Y-52157380D01*
X103632380Y-52205000D01*
X103680000Y-52252619D01*
X104108571Y-53157380D02*
X104108571Y-52157380D01*
X104489523Y-52157380D01*
X104584761Y-52205000D01*
X104632380Y-52252619D01*
X104680000Y-52347857D01*
X104680000Y-52490714D01*
X104632380Y-52585952D01*
X104584761Y-52633571D01*
X104489523Y-52681190D01*
X104108571Y-52681190D01*
X105108571Y-52157380D02*
X105108571Y-52966904D01*
X105156190Y-53062142D01*
X105203809Y-53109761D01*
X105299047Y-53157380D01*
X105489523Y-53157380D01*
X105584761Y-53109761D01*
X105632380Y-53062142D01*
X105680000Y-52966904D01*
X105680000Y-52157380D01*
X107346666Y-52157380D02*
X107156190Y-52157380D01*
X107060952Y-52205000D01*
X107013333Y-52252619D01*
X106918095Y-52395476D01*
X106870476Y-52585952D01*
X106870476Y-52966904D01*
X106918095Y-53062142D01*
X106965714Y-53109761D01*
X107060952Y-53157380D01*
X107251428Y-53157380D01*
X107346666Y-53109761D01*
X107394285Y-53062142D01*
X107441904Y-52966904D01*
X107441904Y-52728809D01*
X107394285Y-52633571D01*
X107346666Y-52585952D01*
X107251428Y-52538333D01*
X107060952Y-52538333D01*
X106965714Y-52585952D01*
X106918095Y-52633571D01*
X106870476Y-52728809D01*
X108346666Y-52157380D02*
X107870476Y-52157380D01*
X107822857Y-52633571D01*
X107870476Y-52585952D01*
X107965714Y-52538333D01*
X108203809Y-52538333D01*
X108299047Y-52585952D01*
X108346666Y-52633571D01*
X108394285Y-52728809D01*
X108394285Y-52966904D01*
X108346666Y-53062142D01*
X108299047Y-53109761D01*
X108203809Y-53157380D01*
X107965714Y-53157380D01*
X107870476Y-53109761D01*
X107822857Y-53062142D01*
X109013333Y-52157380D02*
X109108571Y-52157380D01*
X109203809Y-52205000D01*
X109251428Y-52252619D01*
X109299047Y-52347857D01*
X109346666Y-52538333D01*
X109346666Y-52776428D01*
X109299047Y-52966904D01*
X109251428Y-53062142D01*
X109203809Y-53109761D01*
X109108571Y-53157380D01*
X109013333Y-53157380D01*
X108918095Y-53109761D01*
X108870476Y-53062142D01*
X108822857Y-52966904D01*
X108775238Y-52776428D01*
X108775238Y-52538333D01*
X108822857Y-52347857D01*
X108870476Y-52252619D01*
X108918095Y-52205000D01*
X109013333Y-52157380D01*
X109727619Y-52252619D02*
X109775238Y-52205000D01*
X109870476Y-52157380D01*
X110108571Y-52157380D01*
X110203809Y-52205000D01*
X110251428Y-52252619D01*
X110299047Y-52347857D01*
X110299047Y-52443095D01*
X110251428Y-52585952D01*
X109680000Y-53157380D01*
X110299047Y-53157380D01*
X47922380Y-99186904D02*
X48731904Y-99186904D01*
X48827142Y-99139285D01*
X48874761Y-99091666D01*
X48922380Y-98996428D01*
X48922380Y-98805952D01*
X48874761Y-98710714D01*
X48827142Y-98663095D01*
X48731904Y-98615476D01*
X47922380Y-98615476D01*
X48255714Y-97710714D02*
X48922380Y-97710714D01*
X47874761Y-97948809D02*
X48589047Y-98186904D01*
X48589047Y-97567857D01*
X67822380Y-101591666D02*
X67822380Y-100925000D01*
X68822380Y-101353571D01*
X68155714Y-100115476D02*
X68822380Y-100115476D01*
X67774761Y-100353571D02*
X68489047Y-100591666D01*
X68489047Y-99972619D01*
X68822380Y-99591666D02*
X67822380Y-99591666D01*
X68298571Y-99591666D02*
X68298571Y-99020238D01*
X68822380Y-99020238D02*
X67822380Y-99020238D01*
X68727142Y-97972619D02*
X68774761Y-98020238D01*
X68822380Y-98163095D01*
X68822380Y-98258333D01*
X68774761Y-98401190D01*
X68679523Y-98496428D01*
X68584285Y-98544047D01*
X68393809Y-98591666D01*
X68250952Y-98591666D01*
X68060476Y-98544047D01*
X67965238Y-98496428D01*
X67870000Y-98401190D01*
X67822380Y-98258333D01*
X67822380Y-98163095D01*
X67870000Y-98020238D01*
X67917619Y-97972619D01*
X67822380Y-97686904D02*
X67822380Y-97115476D01*
X68822380Y-97401190D02*
X67822380Y-97401190D01*
X67822380Y-96591666D02*
X67822380Y-96496428D01*
X67870000Y-96401190D01*
X67917619Y-96353571D01*
X68012857Y-96305952D01*
X68203333Y-96258333D01*
X68441428Y-96258333D01*
X68631904Y-96305952D01*
X68727142Y-96353571D01*
X68774761Y-96401190D01*
X68822380Y-96496428D01*
X68822380Y-96591666D01*
X68774761Y-96686904D01*
X68727142Y-96734523D01*
X68631904Y-96782142D01*
X68441428Y-96829761D01*
X68203333Y-96829761D01*
X68012857Y-96782142D01*
X67917619Y-96734523D01*
X67870000Y-96686904D01*
X67822380Y-96591666D01*
X67822380Y-95639285D02*
X67822380Y-95544047D01*
X67870000Y-95448809D01*
X67917619Y-95401190D01*
X68012857Y-95353571D01*
X68203333Y-95305952D01*
X68441428Y-95305952D01*
X68631904Y-95353571D01*
X68727142Y-95401190D01*
X68774761Y-95448809D01*
X68822380Y-95544047D01*
X68822380Y-95639285D01*
X68774761Y-95734523D01*
X68727142Y-95782142D01*
X68631904Y-95829761D01*
X68441428Y-95877380D01*
X68203333Y-95877380D01*
X68012857Y-95829761D01*
X67917619Y-95782142D01*
X67870000Y-95734523D01*
X67822380Y-95639285D01*
X47922380Y-86486904D02*
X48731904Y-86486904D01*
X48827142Y-86439285D01*
X48874761Y-86391666D01*
X48922380Y-86296428D01*
X48922380Y-86105952D01*
X48874761Y-86010714D01*
X48827142Y-85963095D01*
X48731904Y-85915476D01*
X47922380Y-85915476D01*
X47922380Y-84963095D02*
X47922380Y-85439285D01*
X48398571Y-85486904D01*
X48350952Y-85439285D01*
X48303333Y-85344047D01*
X48303333Y-85105952D01*
X48350952Y-85010714D01*
X48398571Y-84963095D01*
X48493809Y-84915476D01*
X48731904Y-84915476D01*
X48827142Y-84963095D01*
X48874761Y-85010714D01*
X48922380Y-85105952D01*
X48922380Y-85344047D01*
X48874761Y-85439285D01*
X48827142Y-85486904D01*
X67822380Y-88891666D02*
X67822380Y-88225000D01*
X68822380Y-88653571D01*
X68155714Y-87415476D02*
X68822380Y-87415476D01*
X67774761Y-87653571D02*
X68489047Y-87891666D01*
X68489047Y-87272619D01*
X68822380Y-86891666D02*
X67822380Y-86891666D01*
X68298571Y-86891666D02*
X68298571Y-86320238D01*
X68822380Y-86320238D02*
X67822380Y-86320238D01*
X68727142Y-85272619D02*
X68774761Y-85320238D01*
X68822380Y-85463095D01*
X68822380Y-85558333D01*
X68774761Y-85701190D01*
X68679523Y-85796428D01*
X68584285Y-85844047D01*
X68393809Y-85891666D01*
X68250952Y-85891666D01*
X68060476Y-85844047D01*
X67965238Y-85796428D01*
X67870000Y-85701190D01*
X67822380Y-85558333D01*
X67822380Y-85463095D01*
X67870000Y-85320238D01*
X67917619Y-85272619D01*
X67822380Y-84986904D02*
X67822380Y-84415476D01*
X68822380Y-84701190D02*
X67822380Y-84701190D01*
X67822380Y-83891666D02*
X67822380Y-83796428D01*
X67870000Y-83701190D01*
X67917619Y-83653571D01*
X68012857Y-83605952D01*
X68203333Y-83558333D01*
X68441428Y-83558333D01*
X68631904Y-83605952D01*
X68727142Y-83653571D01*
X68774761Y-83701190D01*
X68822380Y-83796428D01*
X68822380Y-83891666D01*
X68774761Y-83986904D01*
X68727142Y-84034523D01*
X68631904Y-84082142D01*
X68441428Y-84129761D01*
X68203333Y-84129761D01*
X68012857Y-84082142D01*
X67917619Y-84034523D01*
X67870000Y-83986904D01*
X67822380Y-83891666D01*
X67917619Y-83177380D02*
X67870000Y-83129761D01*
X67822380Y-83034523D01*
X67822380Y-82796428D01*
X67870000Y-82701190D01*
X67917619Y-82653571D01*
X68012857Y-82605952D01*
X68108095Y-82605952D01*
X68250952Y-82653571D01*
X68822380Y-83225000D01*
X68822380Y-82605952D01*
X88773095Y-70957380D02*
X88773095Y-71766904D01*
X88820714Y-71862142D01*
X88868333Y-71909761D01*
X88963571Y-71957380D01*
X89154047Y-71957380D01*
X89249285Y-71909761D01*
X89296904Y-71862142D01*
X89344523Y-71766904D01*
X89344523Y-70957380D01*
X90249285Y-70957380D02*
X90058809Y-70957380D01*
X89963571Y-71005000D01*
X89915952Y-71052619D01*
X89820714Y-71195476D01*
X89773095Y-71385952D01*
X89773095Y-71766904D01*
X89820714Y-71862142D01*
X89868333Y-71909761D01*
X89963571Y-71957380D01*
X90154047Y-71957380D01*
X90249285Y-71909761D01*
X90296904Y-71862142D01*
X90344523Y-71766904D01*
X90344523Y-71528809D01*
X90296904Y-71433571D01*
X90249285Y-71385952D01*
X90154047Y-71338333D01*
X89963571Y-71338333D01*
X89868333Y-71385952D01*
X89820714Y-71433571D01*
X89773095Y-71528809D01*
X47922380Y-73786904D02*
X48731904Y-73786904D01*
X48827142Y-73739285D01*
X48874761Y-73691666D01*
X48922380Y-73596428D01*
X48922380Y-73405952D01*
X48874761Y-73310714D01*
X48827142Y-73263095D01*
X48731904Y-73215476D01*
X47922380Y-73215476D01*
X47922380Y-72834523D02*
X47922380Y-72167857D01*
X48922380Y-72596428D01*
X67822380Y-75667857D02*
X67822380Y-75001190D01*
X68822380Y-75429761D01*
X68155714Y-74191666D02*
X68822380Y-74191666D01*
X67774761Y-74429761D02*
X68489047Y-74667857D01*
X68489047Y-74048809D01*
X68822380Y-73191666D02*
X68822380Y-73667857D01*
X67822380Y-73667857D01*
X68774761Y-72905952D02*
X68822380Y-72763095D01*
X68822380Y-72525000D01*
X68774761Y-72429761D01*
X68727142Y-72382142D01*
X68631904Y-72334523D01*
X68536666Y-72334523D01*
X68441428Y-72382142D01*
X68393809Y-72429761D01*
X68346190Y-72525000D01*
X68298571Y-72715476D01*
X68250952Y-72810714D01*
X68203333Y-72858333D01*
X68108095Y-72905952D01*
X68012857Y-72905952D01*
X67917619Y-72858333D01*
X67870000Y-72810714D01*
X67822380Y-72715476D01*
X67822380Y-72477380D01*
X67870000Y-72334523D01*
X67917619Y-71953571D02*
X67870000Y-71905952D01*
X67822380Y-71810714D01*
X67822380Y-71572619D01*
X67870000Y-71477380D01*
X67917619Y-71429761D01*
X68012857Y-71382142D01*
X68108095Y-71382142D01*
X68250952Y-71429761D01*
X68822380Y-72001190D01*
X68822380Y-71382142D01*
X68822380Y-70429761D02*
X68822380Y-71001190D01*
X68822380Y-70715476D02*
X67822380Y-70715476D01*
X67965238Y-70810714D01*
X68060476Y-70905952D01*
X68108095Y-71001190D01*
X80470476Y-72647380D02*
X81137142Y-73647380D01*
X81137142Y-72647380D02*
X80470476Y-73647380D01*
X82041904Y-73647380D02*
X81470476Y-73647380D01*
X81756190Y-73647380D02*
X81756190Y-72647380D01*
X81660952Y-72790238D01*
X81565714Y-72885476D01*
X81470476Y-72933095D01*
M02*
