G04 #@! TF.GenerationSoftware,KiCad,Pcbnew,(5.1.9-0-10_14)*
G04 #@! TF.CreationDate,2022-10-07T18:33:01-05:00*
G04 #@! TF.ProjectId,My6502,4d793635-3032-42e6-9b69-6361645f7063,rev?*
G04 #@! TF.SameCoordinates,Original*
G04 #@! TF.FileFunction,Legend,Top*
G04 #@! TF.FilePolarity,Positive*
%FSLAX46Y46*%
G04 Gerber Fmt 4.6, Leading zero omitted, Abs format (unit mm)*
G04 Created by KiCad (PCBNEW (5.1.9-0-10_14)) date 2022-10-07 18:33:01*
%MOMM*%
%LPD*%
G01*
G04 APERTURE LIST*
%ADD10C,0.300000*%
%ADD11C,0.150000*%
%ADD12C,0.200000*%
%ADD13C,0.500000*%
%ADD14C,0.120000*%
G04 APERTURE END LIST*
D10*
X35270214Y-123372000D02*
X35341642Y-123443428D01*
X35413071Y-123657714D01*
X35413071Y-123800571D01*
X35341642Y-124014857D01*
X35198785Y-124157714D01*
X35055928Y-124229142D01*
X34770214Y-124300571D01*
X34555928Y-124300571D01*
X34270214Y-124229142D01*
X34127357Y-124157714D01*
X33984500Y-124014857D01*
X33913071Y-123800571D01*
X33913071Y-123657714D01*
X33984500Y-123443428D01*
X34055928Y-123372000D01*
X35413071Y-122729142D02*
X33913071Y-122729142D01*
X33913071Y-122157714D01*
X33984500Y-122014857D01*
X34055928Y-121943428D01*
X34198785Y-121872000D01*
X34413071Y-121872000D01*
X34555928Y-121943428D01*
X34627357Y-122014857D01*
X34698785Y-122157714D01*
X34698785Y-122729142D01*
X33913071Y-121229142D02*
X35127357Y-121229142D01*
X35270214Y-121157714D01*
X35341642Y-121086285D01*
X35413071Y-120943428D01*
X35413071Y-120657714D01*
X35341642Y-120514857D01*
X35270214Y-120443428D01*
X35127357Y-120372000D01*
X33913071Y-120372000D01*
X33913071Y-117872000D02*
X33913071Y-118157714D01*
X33984500Y-118300571D01*
X34055928Y-118372000D01*
X34270214Y-118514857D01*
X34555928Y-118586285D01*
X35127357Y-118586285D01*
X35270214Y-118514857D01*
X35341642Y-118443428D01*
X35413071Y-118300571D01*
X35413071Y-118014857D01*
X35341642Y-117872000D01*
X35270214Y-117800571D01*
X35127357Y-117729142D01*
X34770214Y-117729142D01*
X34627357Y-117800571D01*
X34555928Y-117872000D01*
X34484500Y-118014857D01*
X34484500Y-118300571D01*
X34555928Y-118443428D01*
X34627357Y-118514857D01*
X34770214Y-118586285D01*
X33913071Y-116372000D02*
X33913071Y-117086285D01*
X34627357Y-117157714D01*
X34555928Y-117086285D01*
X34484500Y-116943428D01*
X34484500Y-116586285D01*
X34555928Y-116443428D01*
X34627357Y-116372000D01*
X34770214Y-116300571D01*
X35127357Y-116300571D01*
X35270214Y-116372000D01*
X35341642Y-116443428D01*
X35413071Y-116586285D01*
X35413071Y-116943428D01*
X35341642Y-117086285D01*
X35270214Y-117157714D01*
X33913071Y-115372000D02*
X33913071Y-115229142D01*
X33984500Y-115086285D01*
X34055928Y-115014857D01*
X34198785Y-114943428D01*
X34484500Y-114872000D01*
X34841642Y-114872000D01*
X35127357Y-114943428D01*
X35270214Y-115014857D01*
X35341642Y-115086285D01*
X35413071Y-115229142D01*
X35413071Y-115372000D01*
X35341642Y-115514857D01*
X35270214Y-115586285D01*
X35127357Y-115657714D01*
X34841642Y-115729142D01*
X34484500Y-115729142D01*
X34198785Y-115657714D01*
X34055928Y-115586285D01*
X33984500Y-115514857D01*
X33913071Y-115372000D01*
X34055928Y-114300571D02*
X33984500Y-114229142D01*
X33913071Y-114086285D01*
X33913071Y-113729142D01*
X33984500Y-113586285D01*
X34055928Y-113514857D01*
X34198785Y-113443428D01*
X34341642Y-113443428D01*
X34555928Y-113514857D01*
X35413071Y-114372000D01*
X35413071Y-113443428D01*
D11*
X89708690Y-77666904D02*
X89975357Y-78466904D01*
X90242023Y-77666904D01*
X90508690Y-78466904D02*
X90508690Y-77666904D01*
X90851547Y-78238333D02*
X91232500Y-78238333D01*
X90775357Y-78466904D02*
X91042023Y-77666904D01*
X91308690Y-78466904D01*
X91994404Y-78466904D02*
X91537261Y-78466904D01*
X91765833Y-78466904D02*
X91765833Y-77666904D01*
X91689642Y-77781190D01*
X91613452Y-77857380D01*
X91537261Y-77895476D01*
X92908690Y-78428809D02*
X93022976Y-78466904D01*
X93213452Y-78466904D01*
X93289642Y-78428809D01*
X93327738Y-78390714D01*
X93365833Y-78314523D01*
X93365833Y-78238333D01*
X93327738Y-78162142D01*
X93289642Y-78124047D01*
X93213452Y-78085952D01*
X93061071Y-78047857D01*
X92984880Y-78009761D01*
X92946785Y-77971666D01*
X92908690Y-77895476D01*
X92908690Y-77819285D01*
X92946785Y-77743095D01*
X92984880Y-77705000D01*
X93061071Y-77666904D01*
X93251547Y-77666904D01*
X93365833Y-77705000D01*
X93137261Y-77552619D02*
X93137261Y-78581190D01*
X93746785Y-78466904D02*
X93899166Y-78466904D01*
X93975357Y-78428809D01*
X94013452Y-78390714D01*
X94089642Y-78276428D01*
X94127738Y-78124047D01*
X94127738Y-77819285D01*
X94089642Y-77743095D01*
X94051547Y-77705000D01*
X93975357Y-77666904D01*
X93822976Y-77666904D01*
X93746785Y-77705000D01*
X93708690Y-77743095D01*
X93670595Y-77819285D01*
X93670595Y-78009761D01*
X93708690Y-78085952D01*
X93746785Y-78124047D01*
X93822976Y-78162142D01*
X93975357Y-78162142D01*
X94051547Y-78124047D01*
X94089642Y-78085952D01*
X94127738Y-78009761D01*
X94622976Y-77666904D02*
X94699166Y-77666904D01*
X94775357Y-77705000D01*
X94813452Y-77743095D01*
X94851547Y-77819285D01*
X94889642Y-77971666D01*
X94889642Y-78162142D01*
X94851547Y-78314523D01*
X94813452Y-78390714D01*
X94775357Y-78428809D01*
X94699166Y-78466904D01*
X94622976Y-78466904D01*
X94546785Y-78428809D01*
X94508690Y-78390714D01*
X94470595Y-78314523D01*
X94432500Y-78162142D01*
X94432500Y-77971666D01*
X94470595Y-77819285D01*
X94508690Y-77743095D01*
X94546785Y-77705000D01*
X94622976Y-77666904D01*
X95384880Y-77666904D02*
X95461071Y-77666904D01*
X95537261Y-77705000D01*
X95575357Y-77743095D01*
X95613452Y-77819285D01*
X95651547Y-77971666D01*
X95651547Y-78162142D01*
X95613452Y-78314523D01*
X95575357Y-78390714D01*
X95537261Y-78428809D01*
X95461071Y-78466904D01*
X95384880Y-78466904D01*
X95308690Y-78428809D01*
X95270595Y-78390714D01*
X95232500Y-78314523D01*
X95194404Y-78162142D01*
X95194404Y-77971666D01*
X95232500Y-77819285D01*
X95270595Y-77743095D01*
X95308690Y-77705000D01*
X95384880Y-77666904D01*
X96146785Y-77666904D02*
X96222976Y-77666904D01*
X96299166Y-77705000D01*
X96337261Y-77743095D01*
X96375357Y-77819285D01*
X96413452Y-77971666D01*
X96413452Y-78162142D01*
X96375357Y-78314523D01*
X96337261Y-78390714D01*
X96299166Y-78428809D01*
X96222976Y-78466904D01*
X96146785Y-78466904D01*
X96070595Y-78428809D01*
X96032500Y-78390714D01*
X95994404Y-78314523D01*
X95956309Y-78162142D01*
X95956309Y-77971666D01*
X95994404Y-77819285D01*
X96032500Y-77743095D01*
X96070595Y-77705000D01*
X96146785Y-77666904D01*
X97365833Y-78162142D02*
X97975357Y-78162142D01*
X98927738Y-78428809D02*
X99042023Y-78466904D01*
X99232500Y-78466904D01*
X99308690Y-78428809D01*
X99346785Y-78390714D01*
X99384880Y-78314523D01*
X99384880Y-78238333D01*
X99346785Y-78162142D01*
X99308690Y-78124047D01*
X99232500Y-78085952D01*
X99080119Y-78047857D01*
X99003928Y-78009761D01*
X98965833Y-77971666D01*
X98927738Y-77895476D01*
X98927738Y-77819285D01*
X98965833Y-77743095D01*
X99003928Y-77705000D01*
X99080119Y-77666904D01*
X99270595Y-77666904D01*
X99384880Y-77705000D01*
X99156309Y-77552619D02*
X99156309Y-78581190D01*
X99765833Y-78466904D02*
X99918214Y-78466904D01*
X99994404Y-78428809D01*
X100032500Y-78390714D01*
X100108690Y-78276428D01*
X100146785Y-78124047D01*
X100146785Y-77819285D01*
X100108690Y-77743095D01*
X100070595Y-77705000D01*
X99994404Y-77666904D01*
X99842023Y-77666904D01*
X99765833Y-77705000D01*
X99727738Y-77743095D01*
X99689642Y-77819285D01*
X99689642Y-78009761D01*
X99727738Y-78085952D01*
X99765833Y-78124047D01*
X99842023Y-78162142D01*
X99994404Y-78162142D01*
X100070595Y-78124047D01*
X100108690Y-78085952D01*
X100146785Y-78009761D01*
X100642023Y-77666904D02*
X100718214Y-77666904D01*
X100794404Y-77705000D01*
X100832500Y-77743095D01*
X100870595Y-77819285D01*
X100908690Y-77971666D01*
X100908690Y-78162142D01*
X100870595Y-78314523D01*
X100832500Y-78390714D01*
X100794404Y-78428809D01*
X100718214Y-78466904D01*
X100642023Y-78466904D01*
X100565833Y-78428809D01*
X100527738Y-78390714D01*
X100489642Y-78314523D01*
X100451547Y-78162142D01*
X100451547Y-77971666D01*
X100489642Y-77819285D01*
X100527738Y-77743095D01*
X100565833Y-77705000D01*
X100642023Y-77666904D01*
X101403928Y-77666904D02*
X101480119Y-77666904D01*
X101556309Y-77705000D01*
X101594404Y-77743095D01*
X101632500Y-77819285D01*
X101670595Y-77971666D01*
X101670595Y-78162142D01*
X101632500Y-78314523D01*
X101594404Y-78390714D01*
X101556309Y-78428809D01*
X101480119Y-78466904D01*
X101403928Y-78466904D01*
X101327738Y-78428809D01*
X101289642Y-78390714D01*
X101251547Y-78314523D01*
X101213452Y-78162142D01*
X101213452Y-77971666D01*
X101251547Y-77819285D01*
X101289642Y-77743095D01*
X101327738Y-77705000D01*
X101403928Y-77666904D01*
X102280119Y-78047857D02*
X102013452Y-78047857D01*
X102013452Y-78466904D02*
X102013452Y-77666904D01*
X102394404Y-77666904D01*
X56191785Y-123544285D02*
X56877500Y-123544285D01*
X58506071Y-123887142D02*
X58206071Y-123458571D01*
X57991785Y-123887142D02*
X57991785Y-122987142D01*
X58334642Y-122987142D01*
X58420357Y-123030000D01*
X58463214Y-123072857D01*
X58506071Y-123158571D01*
X58506071Y-123287142D01*
X58463214Y-123372857D01*
X58420357Y-123415714D01*
X58334642Y-123458571D01*
X57991785Y-123458571D01*
X58848928Y-123630000D02*
X59277500Y-123630000D01*
X58763214Y-123887142D02*
X59063214Y-122987142D01*
X59363214Y-123887142D01*
X59663214Y-123887142D02*
X59663214Y-122987142D01*
X59963214Y-123630000D01*
X60263214Y-122987142D01*
X60263214Y-123887142D01*
X61334642Y-123844285D02*
X61463214Y-123887142D01*
X61677500Y-123887142D01*
X61763214Y-123844285D01*
X61806071Y-123801428D01*
X61848928Y-123715714D01*
X61848928Y-123630000D01*
X61806071Y-123544285D01*
X61763214Y-123501428D01*
X61677500Y-123458571D01*
X61506071Y-123415714D01*
X61420357Y-123372857D01*
X61377500Y-123330000D01*
X61334642Y-123244285D01*
X61334642Y-123158571D01*
X61377500Y-123072857D01*
X61420357Y-123030000D01*
X61506071Y-122987142D01*
X61720357Y-122987142D01*
X61848928Y-123030000D01*
X61591785Y-122858571D02*
X61591785Y-124015714D01*
X62406071Y-122987142D02*
X62491785Y-122987142D01*
X62577500Y-123030000D01*
X62620357Y-123072857D01*
X62663214Y-123158571D01*
X62706071Y-123330000D01*
X62706071Y-123544285D01*
X62663214Y-123715714D01*
X62620357Y-123801428D01*
X62577500Y-123844285D01*
X62491785Y-123887142D01*
X62406071Y-123887142D01*
X62320357Y-123844285D01*
X62277500Y-123801428D01*
X62234642Y-123715714D01*
X62191785Y-123544285D01*
X62191785Y-123330000D01*
X62234642Y-123158571D01*
X62277500Y-123072857D01*
X62320357Y-123030000D01*
X62406071Y-122987142D01*
X63263214Y-122987142D02*
X63348928Y-122987142D01*
X63434642Y-123030000D01*
X63477500Y-123072857D01*
X63520357Y-123158571D01*
X63563214Y-123330000D01*
X63563214Y-123544285D01*
X63520357Y-123715714D01*
X63477500Y-123801428D01*
X63434642Y-123844285D01*
X63348928Y-123887142D01*
X63263214Y-123887142D01*
X63177500Y-123844285D01*
X63134642Y-123801428D01*
X63091785Y-123715714D01*
X63048928Y-123544285D01*
X63048928Y-123330000D01*
X63091785Y-123158571D01*
X63134642Y-123072857D01*
X63177500Y-123030000D01*
X63263214Y-122987142D01*
X64120357Y-122987142D02*
X64206071Y-122987142D01*
X64291785Y-123030000D01*
X64334642Y-123072857D01*
X64377500Y-123158571D01*
X64420357Y-123330000D01*
X64420357Y-123544285D01*
X64377500Y-123715714D01*
X64334642Y-123801428D01*
X64291785Y-123844285D01*
X64206071Y-123887142D01*
X64120357Y-123887142D01*
X64034642Y-123844285D01*
X63991785Y-123801428D01*
X63948928Y-123715714D01*
X63906071Y-123544285D01*
X63906071Y-123330000D01*
X63948928Y-123158571D01*
X63991785Y-123072857D01*
X64034642Y-123030000D01*
X64120357Y-122987142D01*
X64977500Y-122987142D02*
X65063214Y-122987142D01*
X65148928Y-123030000D01*
X65191785Y-123072857D01*
X65234642Y-123158571D01*
X65277500Y-123330000D01*
X65277500Y-123544285D01*
X65234642Y-123715714D01*
X65191785Y-123801428D01*
X65148928Y-123844285D01*
X65063214Y-123887142D01*
X64977500Y-123887142D01*
X64891785Y-123844285D01*
X64848928Y-123801428D01*
X64806071Y-123715714D01*
X64763214Y-123544285D01*
X64763214Y-123330000D01*
X64806071Y-123158571D01*
X64848928Y-123072857D01*
X64891785Y-123030000D01*
X64977500Y-122987142D01*
X65663214Y-123544285D02*
X66348928Y-123544285D01*
X66734642Y-123844285D02*
X66863214Y-123887142D01*
X67077500Y-123887142D01*
X67163214Y-123844285D01*
X67206071Y-123801428D01*
X67248928Y-123715714D01*
X67248928Y-123630000D01*
X67206071Y-123544285D01*
X67163214Y-123501428D01*
X67077500Y-123458571D01*
X66906071Y-123415714D01*
X66820357Y-123372857D01*
X66777500Y-123330000D01*
X66734642Y-123244285D01*
X66734642Y-123158571D01*
X66777500Y-123072857D01*
X66820357Y-123030000D01*
X66906071Y-122987142D01*
X67120357Y-122987142D01*
X67248928Y-123030000D01*
X66991785Y-122858571D02*
X66991785Y-124015714D01*
X67548928Y-122987142D02*
X68148928Y-122987142D01*
X67763214Y-123887142D01*
X68791785Y-123415714D02*
X68491785Y-123415714D01*
X68491785Y-123887142D02*
X68491785Y-122987142D01*
X68920357Y-122987142D01*
X69563214Y-123415714D02*
X69263214Y-123415714D01*
X69263214Y-123887142D02*
X69263214Y-122987142D01*
X69691785Y-122987142D01*
X70334642Y-123415714D02*
X70034642Y-123415714D01*
X70034642Y-123887142D02*
X70034642Y-122987142D01*
X70463214Y-122987142D01*
X71406071Y-122987142D02*
X71963214Y-122987142D01*
X71663214Y-123330000D01*
X71791785Y-123330000D01*
X71877500Y-123372857D01*
X71920357Y-123415714D01*
X71963214Y-123501428D01*
X71963214Y-123715714D01*
X71920357Y-123801428D01*
X71877500Y-123844285D01*
X71791785Y-123887142D01*
X71534642Y-123887142D01*
X71448928Y-123844285D01*
X71406071Y-123801428D01*
X72306071Y-123072857D02*
X72348928Y-123030000D01*
X72434642Y-122987142D01*
X72648928Y-122987142D01*
X72734642Y-123030000D01*
X72777500Y-123072857D01*
X72820357Y-123158571D01*
X72820357Y-123244285D01*
X72777500Y-123372857D01*
X72263214Y-123887142D01*
X72820357Y-123887142D01*
X73206071Y-123887142D02*
X73206071Y-122987142D01*
X73720357Y-123887142D02*
X73334642Y-123372857D01*
X73720357Y-122987142D02*
X73206071Y-123501428D01*
X56191785Y-125044285D02*
X56877500Y-125044285D01*
X57991785Y-125387142D02*
X57991785Y-124487142D01*
X59063214Y-124444285D02*
X58291785Y-125601428D01*
X59534642Y-124487142D02*
X59706071Y-124487142D01*
X59791785Y-124530000D01*
X59877500Y-124615714D01*
X59920357Y-124787142D01*
X59920357Y-125087142D01*
X59877500Y-125258571D01*
X59791785Y-125344285D01*
X59706071Y-125387142D01*
X59534642Y-125387142D01*
X59448928Y-125344285D01*
X59363214Y-125258571D01*
X59320357Y-125087142D01*
X59320357Y-124787142D01*
X59363214Y-124615714D01*
X59448928Y-124530000D01*
X59534642Y-124487142D01*
X61634642Y-125344285D02*
X61763214Y-125387142D01*
X61977500Y-125387142D01*
X62063214Y-125344285D01*
X62106071Y-125301428D01*
X62148928Y-125215714D01*
X62148928Y-125130000D01*
X62106071Y-125044285D01*
X62063214Y-125001428D01*
X61977500Y-124958571D01*
X61806071Y-124915714D01*
X61720357Y-124872857D01*
X61677500Y-124830000D01*
X61634642Y-124744285D01*
X61634642Y-124658571D01*
X61677500Y-124572857D01*
X61720357Y-124530000D01*
X61806071Y-124487142D01*
X62020357Y-124487142D01*
X62148928Y-124530000D01*
X61891785Y-124358571D02*
X61891785Y-125515714D01*
X62663214Y-124872857D02*
X62577500Y-124830000D01*
X62534642Y-124787142D01*
X62491785Y-124701428D01*
X62491785Y-124658571D01*
X62534642Y-124572857D01*
X62577500Y-124530000D01*
X62663214Y-124487142D01*
X62834642Y-124487142D01*
X62920357Y-124530000D01*
X62963214Y-124572857D01*
X63006071Y-124658571D01*
X63006071Y-124701428D01*
X62963214Y-124787142D01*
X62920357Y-124830000D01*
X62834642Y-124872857D01*
X62663214Y-124872857D01*
X62577500Y-124915714D01*
X62534642Y-124958571D01*
X62491785Y-125044285D01*
X62491785Y-125215714D01*
X62534642Y-125301428D01*
X62577500Y-125344285D01*
X62663214Y-125387142D01*
X62834642Y-125387142D01*
X62920357Y-125344285D01*
X62963214Y-125301428D01*
X63006071Y-125215714D01*
X63006071Y-125044285D01*
X62963214Y-124958571D01*
X62920357Y-124915714D01*
X62834642Y-124872857D01*
X63563214Y-124487142D02*
X63648928Y-124487142D01*
X63734642Y-124530000D01*
X63777500Y-124572857D01*
X63820357Y-124658571D01*
X63863214Y-124830000D01*
X63863214Y-125044285D01*
X63820357Y-125215714D01*
X63777500Y-125301428D01*
X63734642Y-125344285D01*
X63648928Y-125387142D01*
X63563214Y-125387142D01*
X63477500Y-125344285D01*
X63434642Y-125301428D01*
X63391785Y-125215714D01*
X63348928Y-125044285D01*
X63348928Y-124830000D01*
X63391785Y-124658571D01*
X63434642Y-124572857D01*
X63477500Y-124530000D01*
X63563214Y-124487142D01*
X64420357Y-124487142D02*
X64506071Y-124487142D01*
X64591785Y-124530000D01*
X64634642Y-124572857D01*
X64677500Y-124658571D01*
X64720357Y-124830000D01*
X64720357Y-125044285D01*
X64677500Y-125215714D01*
X64634642Y-125301428D01*
X64591785Y-125344285D01*
X64506071Y-125387142D01*
X64420357Y-125387142D01*
X64334642Y-125344285D01*
X64291785Y-125301428D01*
X64248928Y-125215714D01*
X64206071Y-125044285D01*
X64206071Y-124830000D01*
X64248928Y-124658571D01*
X64291785Y-124572857D01*
X64334642Y-124530000D01*
X64420357Y-124487142D01*
X65277500Y-124487142D02*
X65363214Y-124487142D01*
X65448928Y-124530000D01*
X65491785Y-124572857D01*
X65534642Y-124658571D01*
X65577500Y-124830000D01*
X65577500Y-125044285D01*
X65534642Y-125215714D01*
X65491785Y-125301428D01*
X65448928Y-125344285D01*
X65363214Y-125387142D01*
X65277500Y-125387142D01*
X65191785Y-125344285D01*
X65148928Y-125301428D01*
X65106071Y-125215714D01*
X65063214Y-125044285D01*
X65063214Y-124830000D01*
X65106071Y-124658571D01*
X65148928Y-124572857D01*
X65191785Y-124530000D01*
X65277500Y-124487142D01*
X65963214Y-125044285D02*
X66648928Y-125044285D01*
X67034642Y-125344285D02*
X67163214Y-125387142D01*
X67377500Y-125387142D01*
X67463214Y-125344285D01*
X67506071Y-125301428D01*
X67548928Y-125215714D01*
X67548928Y-125130000D01*
X67506071Y-125044285D01*
X67463214Y-125001428D01*
X67377500Y-124958571D01*
X67206071Y-124915714D01*
X67120357Y-124872857D01*
X67077500Y-124830000D01*
X67034642Y-124744285D01*
X67034642Y-124658571D01*
X67077500Y-124572857D01*
X67120357Y-124530000D01*
X67206071Y-124487142D01*
X67420357Y-124487142D01*
X67548928Y-124530000D01*
X67291785Y-124358571D02*
X67291785Y-125515714D01*
X67977500Y-125387142D02*
X68148928Y-125387142D01*
X68234642Y-125344285D01*
X68277500Y-125301428D01*
X68363214Y-125172857D01*
X68406071Y-125001428D01*
X68406071Y-124658571D01*
X68363214Y-124572857D01*
X68320357Y-124530000D01*
X68234642Y-124487142D01*
X68063214Y-124487142D01*
X67977500Y-124530000D01*
X67934642Y-124572857D01*
X67891785Y-124658571D01*
X67891785Y-124872857D01*
X67934642Y-124958571D01*
X67977500Y-125001428D01*
X68063214Y-125044285D01*
X68234642Y-125044285D01*
X68320357Y-125001428D01*
X68363214Y-124958571D01*
X68406071Y-124872857D01*
X69091785Y-124915714D02*
X68791785Y-124915714D01*
X68791785Y-125387142D02*
X68791785Y-124487142D01*
X69220357Y-124487142D01*
X69863214Y-124915714D02*
X69563214Y-124915714D01*
X69563214Y-125387142D02*
X69563214Y-124487142D01*
X69991785Y-124487142D01*
X70634642Y-124915714D02*
X70334642Y-124915714D01*
X70334642Y-125387142D02*
X70334642Y-124487142D01*
X70763214Y-124487142D01*
X72606071Y-124872857D02*
X72520357Y-124830000D01*
X72477500Y-124787142D01*
X72434642Y-124701428D01*
X72434642Y-124658571D01*
X72477500Y-124572857D01*
X72520357Y-124530000D01*
X72606071Y-124487142D01*
X72777500Y-124487142D01*
X72863214Y-124530000D01*
X72906071Y-124572857D01*
X72948928Y-124658571D01*
X72948928Y-124701428D01*
X72906071Y-124787142D01*
X72863214Y-124830000D01*
X72777500Y-124872857D01*
X72606071Y-124872857D01*
X72520357Y-124915714D01*
X72477500Y-124958571D01*
X72434642Y-125044285D01*
X72434642Y-125215714D01*
X72477500Y-125301428D01*
X72520357Y-125344285D01*
X72606071Y-125387142D01*
X72777500Y-125387142D01*
X72863214Y-125344285D01*
X72906071Y-125301428D01*
X72948928Y-125215714D01*
X72948928Y-125044285D01*
X72906071Y-124958571D01*
X72863214Y-124915714D01*
X72777500Y-124872857D01*
X73334642Y-125387142D02*
X73334642Y-124487142D01*
X73848928Y-125387142D02*
X73463214Y-124872857D01*
X73848928Y-124487142D02*
X73334642Y-125001428D01*
X58248928Y-126544285D02*
X58934642Y-126544285D01*
X59920357Y-125987142D02*
X60220357Y-126887142D01*
X60520357Y-125987142D01*
X60820357Y-126887142D02*
X60820357Y-125987142D01*
X61206071Y-126630000D02*
X61634642Y-126630000D01*
X61120357Y-126887142D02*
X61420357Y-125987142D01*
X61720357Y-126887142D01*
X62491785Y-126887142D02*
X61977500Y-126887142D01*
X62234642Y-126887142D02*
X62234642Y-125987142D01*
X62148928Y-126115714D01*
X62063214Y-126201428D01*
X61977500Y-126244285D01*
X63520357Y-126844285D02*
X63648928Y-126887142D01*
X63863214Y-126887142D01*
X63948928Y-126844285D01*
X63991785Y-126801428D01*
X64034642Y-126715714D01*
X64034642Y-126630000D01*
X63991785Y-126544285D01*
X63948928Y-126501428D01*
X63863214Y-126458571D01*
X63691785Y-126415714D01*
X63606071Y-126372857D01*
X63563214Y-126330000D01*
X63520357Y-126244285D01*
X63520357Y-126158571D01*
X63563214Y-126072857D01*
X63606071Y-126030000D01*
X63691785Y-125987142D01*
X63906071Y-125987142D01*
X64034642Y-126030000D01*
X63777500Y-125858571D02*
X63777500Y-127015714D01*
X64463214Y-126887142D02*
X64634642Y-126887142D01*
X64720357Y-126844285D01*
X64763214Y-126801428D01*
X64848928Y-126672857D01*
X64891785Y-126501428D01*
X64891785Y-126158571D01*
X64848928Y-126072857D01*
X64806071Y-126030000D01*
X64720357Y-125987142D01*
X64548928Y-125987142D01*
X64463214Y-126030000D01*
X64420357Y-126072857D01*
X64377500Y-126158571D01*
X64377500Y-126372857D01*
X64420357Y-126458571D01*
X64463214Y-126501428D01*
X64548928Y-126544285D01*
X64720357Y-126544285D01*
X64806071Y-126501428D01*
X64848928Y-126458571D01*
X64891785Y-126372857D01*
X65448928Y-125987142D02*
X65534642Y-125987142D01*
X65620357Y-126030000D01*
X65663214Y-126072857D01*
X65706071Y-126158571D01*
X65748928Y-126330000D01*
X65748928Y-126544285D01*
X65706071Y-126715714D01*
X65663214Y-126801428D01*
X65620357Y-126844285D01*
X65534642Y-126887142D01*
X65448928Y-126887142D01*
X65363214Y-126844285D01*
X65320357Y-126801428D01*
X65277500Y-126715714D01*
X65234642Y-126544285D01*
X65234642Y-126330000D01*
X65277500Y-126158571D01*
X65320357Y-126072857D01*
X65363214Y-126030000D01*
X65448928Y-125987142D01*
X66306071Y-125987142D02*
X66391785Y-125987142D01*
X66477500Y-126030000D01*
X66520357Y-126072857D01*
X66563214Y-126158571D01*
X66606071Y-126330000D01*
X66606071Y-126544285D01*
X66563214Y-126715714D01*
X66520357Y-126801428D01*
X66477500Y-126844285D01*
X66391785Y-126887142D01*
X66306071Y-126887142D01*
X66220357Y-126844285D01*
X66177500Y-126801428D01*
X66134642Y-126715714D01*
X66091785Y-126544285D01*
X66091785Y-126330000D01*
X66134642Y-126158571D01*
X66177500Y-126072857D01*
X66220357Y-126030000D01*
X66306071Y-125987142D01*
X67163214Y-125987142D02*
X67248928Y-125987142D01*
X67334642Y-126030000D01*
X67377500Y-126072857D01*
X67420357Y-126158571D01*
X67463214Y-126330000D01*
X67463214Y-126544285D01*
X67420357Y-126715714D01*
X67377500Y-126801428D01*
X67334642Y-126844285D01*
X67248928Y-126887142D01*
X67163214Y-126887142D01*
X67077500Y-126844285D01*
X67034642Y-126801428D01*
X66991785Y-126715714D01*
X66948928Y-126544285D01*
X66948928Y-126330000D01*
X66991785Y-126158571D01*
X67034642Y-126072857D01*
X67077500Y-126030000D01*
X67163214Y-125987142D01*
X68534642Y-126544285D02*
X69220357Y-126544285D01*
X70291785Y-126844285D02*
X70420357Y-126887142D01*
X70634642Y-126887142D01*
X70720357Y-126844285D01*
X70763214Y-126801428D01*
X70806071Y-126715714D01*
X70806071Y-126630000D01*
X70763214Y-126544285D01*
X70720357Y-126501428D01*
X70634642Y-126458571D01*
X70463214Y-126415714D01*
X70377500Y-126372857D01*
X70334642Y-126330000D01*
X70291785Y-126244285D01*
X70291785Y-126158571D01*
X70334642Y-126072857D01*
X70377500Y-126030000D01*
X70463214Y-125987142D01*
X70677500Y-125987142D01*
X70806071Y-126030000D01*
X70548928Y-125858571D02*
X70548928Y-127015714D01*
X71234642Y-126887142D02*
X71406071Y-126887142D01*
X71491785Y-126844285D01*
X71534642Y-126801428D01*
X71620357Y-126672857D01*
X71663214Y-126501428D01*
X71663214Y-126158571D01*
X71620357Y-126072857D01*
X71577500Y-126030000D01*
X71491785Y-125987142D01*
X71320357Y-125987142D01*
X71234642Y-126030000D01*
X71191785Y-126072857D01*
X71148928Y-126158571D01*
X71148928Y-126372857D01*
X71191785Y-126458571D01*
X71234642Y-126501428D01*
X71320357Y-126544285D01*
X71491785Y-126544285D01*
X71577500Y-126501428D01*
X71620357Y-126458571D01*
X71663214Y-126372857D01*
X72220357Y-125987142D02*
X72306071Y-125987142D01*
X72391785Y-126030000D01*
X72434642Y-126072857D01*
X72477500Y-126158571D01*
X72520357Y-126330000D01*
X72520357Y-126544285D01*
X72477500Y-126715714D01*
X72434642Y-126801428D01*
X72391785Y-126844285D01*
X72306071Y-126887142D01*
X72220357Y-126887142D01*
X72134642Y-126844285D01*
X72091785Y-126801428D01*
X72048928Y-126715714D01*
X72006071Y-126544285D01*
X72006071Y-126330000D01*
X72048928Y-126158571D01*
X72091785Y-126072857D01*
X72134642Y-126030000D01*
X72220357Y-125987142D01*
X73077500Y-125987142D02*
X73163214Y-125987142D01*
X73248928Y-126030000D01*
X73291785Y-126072857D01*
X73334642Y-126158571D01*
X73377500Y-126330000D01*
X73377500Y-126544285D01*
X73334642Y-126715714D01*
X73291785Y-126801428D01*
X73248928Y-126844285D01*
X73163214Y-126887142D01*
X73077500Y-126887142D01*
X72991785Y-126844285D01*
X72948928Y-126801428D01*
X72906071Y-126715714D01*
X72863214Y-126544285D01*
X72863214Y-126330000D01*
X72906071Y-126158571D01*
X72948928Y-126072857D01*
X72991785Y-126030000D01*
X73077500Y-125987142D01*
X74063214Y-126415714D02*
X73763214Y-126415714D01*
X73763214Y-126887142D02*
X73763214Y-125987142D01*
X74191785Y-125987142D01*
X56191785Y-128044285D02*
X56877500Y-128044285D01*
X58506071Y-128387142D02*
X58206071Y-127958571D01*
X57991785Y-128387142D02*
X57991785Y-127487142D01*
X58334642Y-127487142D01*
X58420357Y-127530000D01*
X58463214Y-127572857D01*
X58506071Y-127658571D01*
X58506071Y-127787142D01*
X58463214Y-127872857D01*
X58420357Y-127915714D01*
X58334642Y-127958571D01*
X57991785Y-127958571D01*
X59063214Y-127487142D02*
X59234642Y-127487142D01*
X59320357Y-127530000D01*
X59406071Y-127615714D01*
X59448928Y-127787142D01*
X59448928Y-128087142D01*
X59406071Y-128258571D01*
X59320357Y-128344285D01*
X59234642Y-128387142D01*
X59063214Y-128387142D01*
X58977500Y-128344285D01*
X58891785Y-128258571D01*
X58848928Y-128087142D01*
X58848928Y-127787142D01*
X58891785Y-127615714D01*
X58977500Y-127530000D01*
X59063214Y-127487142D01*
X59834642Y-128387142D02*
X59834642Y-127487142D01*
X60134642Y-128130000D01*
X60434642Y-127487142D01*
X60434642Y-128387142D01*
X61506071Y-128344285D02*
X61634642Y-128387142D01*
X61848928Y-128387142D01*
X61934642Y-128344285D01*
X61977500Y-128301428D01*
X62020357Y-128215714D01*
X62020357Y-128130000D01*
X61977500Y-128044285D01*
X61934642Y-128001428D01*
X61848928Y-127958571D01*
X61677500Y-127915714D01*
X61591785Y-127872857D01*
X61548928Y-127830000D01*
X61506071Y-127744285D01*
X61506071Y-127658571D01*
X61548928Y-127572857D01*
X61591785Y-127530000D01*
X61677500Y-127487142D01*
X61891785Y-127487142D01*
X62020357Y-127530000D01*
X61763214Y-127358571D02*
X61763214Y-128515714D01*
X62363214Y-128130000D02*
X62791785Y-128130000D01*
X62277500Y-128387142D02*
X62577500Y-127487142D01*
X62877500Y-128387142D01*
X63348928Y-127487142D02*
X63434642Y-127487142D01*
X63520357Y-127530000D01*
X63563214Y-127572857D01*
X63606071Y-127658571D01*
X63648928Y-127830000D01*
X63648928Y-128044285D01*
X63606071Y-128215714D01*
X63563214Y-128301428D01*
X63520357Y-128344285D01*
X63434642Y-128387142D01*
X63348928Y-128387142D01*
X63263214Y-128344285D01*
X63220357Y-128301428D01*
X63177500Y-128215714D01*
X63134642Y-128044285D01*
X63134642Y-127830000D01*
X63177500Y-127658571D01*
X63220357Y-127572857D01*
X63263214Y-127530000D01*
X63348928Y-127487142D01*
X64206071Y-127487142D02*
X64291785Y-127487142D01*
X64377500Y-127530000D01*
X64420357Y-127572857D01*
X64463214Y-127658571D01*
X64506071Y-127830000D01*
X64506071Y-128044285D01*
X64463214Y-128215714D01*
X64420357Y-128301428D01*
X64377500Y-128344285D01*
X64291785Y-128387142D01*
X64206071Y-128387142D01*
X64120357Y-128344285D01*
X64077500Y-128301428D01*
X64034642Y-128215714D01*
X63991785Y-128044285D01*
X63991785Y-127830000D01*
X64034642Y-127658571D01*
X64077500Y-127572857D01*
X64120357Y-127530000D01*
X64206071Y-127487142D01*
X65063214Y-127487142D02*
X65148928Y-127487142D01*
X65234642Y-127530000D01*
X65277500Y-127572857D01*
X65320357Y-127658571D01*
X65363214Y-127830000D01*
X65363214Y-128044285D01*
X65320357Y-128215714D01*
X65277500Y-128301428D01*
X65234642Y-128344285D01*
X65148928Y-128387142D01*
X65063214Y-128387142D01*
X64977500Y-128344285D01*
X64934642Y-128301428D01*
X64891785Y-128215714D01*
X64848928Y-128044285D01*
X64848928Y-127830000D01*
X64891785Y-127658571D01*
X64934642Y-127572857D01*
X64977500Y-127530000D01*
X65063214Y-127487142D01*
X65748928Y-128044285D02*
X66434642Y-128044285D01*
X66820357Y-128344285D02*
X66948928Y-128387142D01*
X67163214Y-128387142D01*
X67248928Y-128344285D01*
X67291785Y-128301428D01*
X67334642Y-128215714D01*
X67334642Y-128130000D01*
X67291785Y-128044285D01*
X67248928Y-128001428D01*
X67163214Y-127958571D01*
X66991785Y-127915714D01*
X66906071Y-127872857D01*
X66863214Y-127830000D01*
X66820357Y-127744285D01*
X66820357Y-127658571D01*
X66863214Y-127572857D01*
X66906071Y-127530000D01*
X66991785Y-127487142D01*
X67206071Y-127487142D01*
X67334642Y-127530000D01*
X67077500Y-127358571D02*
X67077500Y-128515714D01*
X68020357Y-127915714D02*
X67720357Y-127915714D01*
X67720357Y-128387142D02*
X67720357Y-127487142D01*
X68148928Y-127487142D01*
X68791785Y-127915714D02*
X68491785Y-127915714D01*
X68491785Y-128387142D02*
X68491785Y-127487142D01*
X68920357Y-127487142D01*
X69563214Y-127915714D02*
X69263214Y-127915714D01*
X69263214Y-128387142D02*
X69263214Y-127487142D01*
X69691785Y-127487142D01*
X70334642Y-127915714D02*
X70034642Y-127915714D01*
X70034642Y-128387142D02*
X70034642Y-127487142D01*
X70463214Y-127487142D01*
X71448928Y-127572857D02*
X71491785Y-127530000D01*
X71577500Y-127487142D01*
X71791785Y-127487142D01*
X71877500Y-127530000D01*
X71920357Y-127572857D01*
X71963214Y-127658571D01*
X71963214Y-127744285D01*
X71920357Y-127872857D01*
X71406071Y-128387142D01*
X71963214Y-128387142D01*
X72734642Y-127787142D02*
X72734642Y-128387142D01*
X72520357Y-127444285D02*
X72306071Y-128087142D01*
X72863214Y-128087142D01*
X73206071Y-128387142D02*
X73206071Y-127487142D01*
X73720357Y-128387142D02*
X73334642Y-127872857D01*
X73720357Y-127487142D02*
X73206071Y-128001428D01*
X127895523Y-89145000D02*
X128276476Y-89145000D01*
X128086000Y-90277904D02*
X128086000Y-89477904D01*
X128276476Y-89145000D02*
X129076476Y-89145000D01*
X128924095Y-90277904D02*
X128657428Y-89896952D01*
X128466952Y-90277904D02*
X128466952Y-89477904D01*
X128771714Y-89477904D01*
X128847904Y-89516000D01*
X128886000Y-89554095D01*
X128924095Y-89630285D01*
X128924095Y-89744571D01*
X128886000Y-89820761D01*
X128847904Y-89858857D01*
X128771714Y-89896952D01*
X128466952Y-89896952D01*
X129076476Y-89145000D02*
X129914571Y-89145000D01*
X129800285Y-90354095D02*
X129724095Y-90316000D01*
X129647904Y-90239809D01*
X129533619Y-90125523D01*
X129457428Y-90087428D01*
X129381238Y-90087428D01*
X129419333Y-90277904D02*
X129343142Y-90239809D01*
X129266952Y-90163619D01*
X129228857Y-90011238D01*
X129228857Y-89744571D01*
X129266952Y-89592190D01*
X129343142Y-89516000D01*
X129419333Y-89477904D01*
X129571714Y-89477904D01*
X129647904Y-89516000D01*
X129724095Y-89592190D01*
X129762190Y-89744571D01*
X129762190Y-90011238D01*
X129724095Y-90163619D01*
X129647904Y-90239809D01*
X129571714Y-90277904D01*
X129419333Y-90277904D01*
X129914571Y-89145000D02*
X130676476Y-89145000D01*
X130447904Y-89744571D02*
X130447904Y-90277904D01*
X130257428Y-89439809D02*
X130066952Y-90011238D01*
X130562190Y-90011238D01*
X127895523Y-91685000D02*
X128276476Y-91685000D01*
X128086000Y-92817904D02*
X128086000Y-92017904D01*
X128276476Y-91685000D02*
X129076476Y-91685000D01*
X128924095Y-92817904D02*
X128657428Y-92436952D01*
X128466952Y-92817904D02*
X128466952Y-92017904D01*
X128771714Y-92017904D01*
X128847904Y-92056000D01*
X128886000Y-92094095D01*
X128924095Y-92170285D01*
X128924095Y-92284571D01*
X128886000Y-92360761D01*
X128847904Y-92398857D01*
X128771714Y-92436952D01*
X128466952Y-92436952D01*
X129076476Y-91685000D02*
X129914571Y-91685000D01*
X129800285Y-92894095D02*
X129724095Y-92856000D01*
X129647904Y-92779809D01*
X129533619Y-92665523D01*
X129457428Y-92627428D01*
X129381238Y-92627428D01*
X129419333Y-92817904D02*
X129343142Y-92779809D01*
X129266952Y-92703619D01*
X129228857Y-92551238D01*
X129228857Y-92284571D01*
X129266952Y-92132190D01*
X129343142Y-92056000D01*
X129419333Y-92017904D01*
X129571714Y-92017904D01*
X129647904Y-92056000D01*
X129724095Y-92132190D01*
X129762190Y-92284571D01*
X129762190Y-92551238D01*
X129724095Y-92703619D01*
X129647904Y-92779809D01*
X129571714Y-92817904D01*
X129419333Y-92817904D01*
X129914571Y-91685000D02*
X130676476Y-91685000D01*
X130028857Y-92017904D02*
X130524095Y-92017904D01*
X130257428Y-92322666D01*
X130371714Y-92322666D01*
X130447904Y-92360761D01*
X130486000Y-92398857D01*
X130524095Y-92475047D01*
X130524095Y-92665523D01*
X130486000Y-92741714D01*
X130447904Y-92779809D01*
X130371714Y-92817904D01*
X130143142Y-92817904D01*
X130066952Y-92779809D01*
X130028857Y-92741714D01*
X128219333Y-86605000D02*
X129057428Y-86605000D01*
X128409809Y-87737904D02*
X128409809Y-86937904D01*
X128866952Y-87737904D01*
X128866952Y-86937904D01*
X129057428Y-86605000D02*
X129971714Y-86605000D01*
X129247904Y-87737904D02*
X129247904Y-86937904D01*
X129514571Y-87509333D01*
X129781238Y-86937904D01*
X129781238Y-87737904D01*
X129971714Y-86605000D02*
X130352666Y-86605000D01*
X130162190Y-87737904D02*
X130162190Y-86937904D01*
X119588595Y-79827428D02*
X120350500Y-79827428D01*
X119969547Y-80208380D02*
X119969547Y-79446476D01*
X121302880Y-79208380D02*
X120826690Y-79208380D01*
X120779071Y-79684571D01*
X120826690Y-79636952D01*
X120921928Y-79589333D01*
X121160023Y-79589333D01*
X121255261Y-79636952D01*
X121302880Y-79684571D01*
X121350500Y-79779809D01*
X121350500Y-80017904D01*
X121302880Y-80113142D01*
X121255261Y-80160761D01*
X121160023Y-80208380D01*
X120921928Y-80208380D01*
X120826690Y-80160761D01*
X120779071Y-80113142D01*
X121683833Y-79541714D02*
X121921928Y-80208380D01*
X122160023Y-79541714D01*
X128629928Y-79356000D02*
X128553738Y-79317904D01*
X128439452Y-79317904D01*
X128325166Y-79356000D01*
X128248976Y-79432190D01*
X128210880Y-79508380D01*
X128172785Y-79660761D01*
X128172785Y-79775047D01*
X128210880Y-79927428D01*
X128248976Y-80003619D01*
X128325166Y-80079809D01*
X128439452Y-80117904D01*
X128515642Y-80117904D01*
X128629928Y-80079809D01*
X128668023Y-80041714D01*
X128668023Y-79775047D01*
X128515642Y-79775047D01*
X129010880Y-80117904D02*
X129010880Y-79317904D01*
X129468023Y-80117904D01*
X129468023Y-79317904D01*
X129848976Y-80117904D02*
X129848976Y-79317904D01*
X130039452Y-79317904D01*
X130153738Y-79356000D01*
X130229928Y-79432190D01*
X130268023Y-79508380D01*
X130306119Y-79660761D01*
X130306119Y-79775047D01*
X130268023Y-79927428D01*
X130229928Y-80003619D01*
X130153738Y-80079809D01*
X130039452Y-80117904D01*
X129848976Y-80117904D01*
X127895523Y-94225000D02*
X128276476Y-94225000D01*
X128086000Y-95357904D02*
X128086000Y-94557904D01*
X128276476Y-94225000D02*
X129076476Y-94225000D01*
X128924095Y-95357904D02*
X128657428Y-94976952D01*
X128466952Y-95357904D02*
X128466952Y-94557904D01*
X128771714Y-94557904D01*
X128847904Y-94596000D01*
X128886000Y-94634095D01*
X128924095Y-94710285D01*
X128924095Y-94824571D01*
X128886000Y-94900761D01*
X128847904Y-94938857D01*
X128771714Y-94976952D01*
X128466952Y-94976952D01*
X129076476Y-94225000D02*
X129914571Y-94225000D01*
X129800285Y-95434095D02*
X129724095Y-95396000D01*
X129647904Y-95319809D01*
X129533619Y-95205523D01*
X129457428Y-95167428D01*
X129381238Y-95167428D01*
X129419333Y-95357904D02*
X129343142Y-95319809D01*
X129266952Y-95243619D01*
X129228857Y-95091238D01*
X129228857Y-94824571D01*
X129266952Y-94672190D01*
X129343142Y-94596000D01*
X129419333Y-94557904D01*
X129571714Y-94557904D01*
X129647904Y-94596000D01*
X129724095Y-94672190D01*
X129762190Y-94824571D01*
X129762190Y-95091238D01*
X129724095Y-95243619D01*
X129647904Y-95319809D01*
X129571714Y-95357904D01*
X129419333Y-95357904D01*
X129914571Y-94225000D02*
X130676476Y-94225000D01*
X130066952Y-94634095D02*
X130105047Y-94596000D01*
X130181238Y-94557904D01*
X130371714Y-94557904D01*
X130447904Y-94596000D01*
X130486000Y-94634095D01*
X130524095Y-94710285D01*
X130524095Y-94786476D01*
X130486000Y-94900761D01*
X130028857Y-95357904D01*
X130524095Y-95357904D01*
X127928857Y-96621000D02*
X128928857Y-96621000D01*
X128738380Y-97988380D02*
X128405047Y-97512190D01*
X128166952Y-97988380D02*
X128166952Y-96988380D01*
X128547904Y-96988380D01*
X128643142Y-97036000D01*
X128690761Y-97083619D01*
X128738380Y-97178857D01*
X128738380Y-97321714D01*
X128690761Y-97416952D01*
X128643142Y-97464571D01*
X128547904Y-97512190D01*
X128166952Y-97512190D01*
X128928857Y-96621000D02*
X129881238Y-96621000D01*
X129119333Y-97940761D02*
X129262190Y-97988380D01*
X129500285Y-97988380D01*
X129595523Y-97940761D01*
X129643142Y-97893142D01*
X129690761Y-97797904D01*
X129690761Y-97702666D01*
X129643142Y-97607428D01*
X129595523Y-97559809D01*
X129500285Y-97512190D01*
X129309809Y-97464571D01*
X129214571Y-97416952D01*
X129166952Y-97369333D01*
X129119333Y-97274095D01*
X129119333Y-97178857D01*
X129166952Y-97083619D01*
X129214571Y-97036000D01*
X129309809Y-96988380D01*
X129547904Y-96988380D01*
X129690761Y-97036000D01*
X129881238Y-96621000D02*
X130643142Y-96621000D01*
X129976476Y-96988380D02*
X130547904Y-96988380D01*
X130262190Y-97988380D02*
X130262190Y-96988380D01*
X128524095Y-99161000D02*
X129000285Y-99161000D01*
X128762190Y-100528380D02*
X128762190Y-99528380D01*
X129000285Y-99161000D02*
X130047904Y-99161000D01*
X129428857Y-99528380D02*
X129619333Y-99528380D01*
X129714571Y-99576000D01*
X129809809Y-99671238D01*
X129857428Y-99861714D01*
X129857428Y-100195047D01*
X129809809Y-100385523D01*
X129714571Y-100480761D01*
X129619333Y-100528380D01*
X129428857Y-100528380D01*
X129333619Y-100480761D01*
X129238380Y-100385523D01*
X129190761Y-100195047D01*
X129190761Y-99861714D01*
X129238380Y-99671238D01*
X129333619Y-99576000D01*
X129428857Y-99528380D01*
X128547904Y-120848380D02*
X128547904Y-119848380D01*
X128786000Y-119848380D01*
X128928857Y-119896000D01*
X129024095Y-119991238D01*
X129071714Y-120086476D01*
X129119333Y-120276952D01*
X129119333Y-120419809D01*
X129071714Y-120610285D01*
X129024095Y-120705523D01*
X128928857Y-120800761D01*
X128786000Y-120848380D01*
X128547904Y-120848380D01*
X129500285Y-119943619D02*
X129547904Y-119896000D01*
X129643142Y-119848380D01*
X129881238Y-119848380D01*
X129976476Y-119896000D01*
X130024095Y-119943619D01*
X130071714Y-120038857D01*
X130071714Y-120134095D01*
X130024095Y-120276952D01*
X129452666Y-120848380D01*
X130071714Y-120848380D01*
X128547904Y-118308380D02*
X128547904Y-117308380D01*
X128786000Y-117308380D01*
X128928857Y-117356000D01*
X129024095Y-117451238D01*
X129071714Y-117546476D01*
X129119333Y-117736952D01*
X129119333Y-117879809D01*
X129071714Y-118070285D01*
X129024095Y-118165523D01*
X128928857Y-118260761D01*
X128786000Y-118308380D01*
X128547904Y-118308380D01*
X129452666Y-117308380D02*
X130071714Y-117308380D01*
X129738380Y-117689333D01*
X129881238Y-117689333D01*
X129976476Y-117736952D01*
X130024095Y-117784571D01*
X130071714Y-117879809D01*
X130071714Y-118117904D01*
X130024095Y-118213142D01*
X129976476Y-118260761D01*
X129881238Y-118308380D01*
X129595523Y-118308380D01*
X129500285Y-118260761D01*
X129452666Y-118213142D01*
X128547904Y-115768380D02*
X128547904Y-114768380D01*
X128786000Y-114768380D01*
X128928857Y-114816000D01*
X129024095Y-114911238D01*
X129071714Y-115006476D01*
X129119333Y-115196952D01*
X129119333Y-115339809D01*
X129071714Y-115530285D01*
X129024095Y-115625523D01*
X128928857Y-115720761D01*
X128786000Y-115768380D01*
X128547904Y-115768380D01*
X129976476Y-115101714D02*
X129976476Y-115768380D01*
X129738380Y-114720761D02*
X129500285Y-115435047D01*
X130119333Y-115435047D01*
X128547904Y-110688380D02*
X128547904Y-109688380D01*
X128786000Y-109688380D01*
X128928857Y-109736000D01*
X129024095Y-109831238D01*
X129071714Y-109926476D01*
X129119333Y-110116952D01*
X129119333Y-110259809D01*
X129071714Y-110450285D01*
X129024095Y-110545523D01*
X128928857Y-110640761D01*
X128786000Y-110688380D01*
X128547904Y-110688380D01*
X129976476Y-109688380D02*
X129786000Y-109688380D01*
X129690761Y-109736000D01*
X129643142Y-109783619D01*
X129547904Y-109926476D01*
X129500285Y-110116952D01*
X129500285Y-110497904D01*
X129547904Y-110593142D01*
X129595523Y-110640761D01*
X129690761Y-110688380D01*
X129881238Y-110688380D01*
X129976476Y-110640761D01*
X130024095Y-110593142D01*
X130071714Y-110497904D01*
X130071714Y-110259809D01*
X130024095Y-110164571D01*
X129976476Y-110116952D01*
X129881238Y-110069333D01*
X129690761Y-110069333D01*
X129595523Y-110116952D01*
X129547904Y-110164571D01*
X129500285Y-110259809D01*
X128547904Y-108148380D02*
X128547904Y-107148380D01*
X128786000Y-107148380D01*
X128928857Y-107196000D01*
X129024095Y-107291238D01*
X129071714Y-107386476D01*
X129119333Y-107576952D01*
X129119333Y-107719809D01*
X129071714Y-107910285D01*
X129024095Y-108005523D01*
X128928857Y-108100761D01*
X128786000Y-108148380D01*
X128547904Y-108148380D01*
X129452666Y-107148380D02*
X130119333Y-107148380D01*
X129690761Y-108148380D01*
X128547904Y-123388380D02*
X128547904Y-122388380D01*
X128786000Y-122388380D01*
X128928857Y-122436000D01*
X129024095Y-122531238D01*
X129071714Y-122626476D01*
X129119333Y-122816952D01*
X129119333Y-122959809D01*
X129071714Y-123150285D01*
X129024095Y-123245523D01*
X128928857Y-123340761D01*
X128786000Y-123388380D01*
X128547904Y-123388380D01*
X130071714Y-123388380D02*
X129500285Y-123388380D01*
X129786000Y-123388380D02*
X129786000Y-122388380D01*
X129690761Y-122531238D01*
X129595523Y-122626476D01*
X129500285Y-122674095D01*
X128547904Y-125928380D02*
X128547904Y-124928380D01*
X128786000Y-124928380D01*
X128928857Y-124976000D01*
X129024095Y-125071238D01*
X129071714Y-125166476D01*
X129119333Y-125356952D01*
X129119333Y-125499809D01*
X129071714Y-125690285D01*
X129024095Y-125785523D01*
X128928857Y-125880761D01*
X128786000Y-125928380D01*
X128547904Y-125928380D01*
X129738380Y-124928380D02*
X129833619Y-124928380D01*
X129928857Y-124976000D01*
X129976476Y-125023619D01*
X130024095Y-125118857D01*
X130071714Y-125309333D01*
X130071714Y-125547428D01*
X130024095Y-125737904D01*
X129976476Y-125833142D01*
X129928857Y-125880761D01*
X129833619Y-125928380D01*
X129738380Y-125928380D01*
X129643142Y-125880761D01*
X129595523Y-125833142D01*
X129547904Y-125737904D01*
X129500285Y-125547428D01*
X129500285Y-125309333D01*
X129547904Y-125118857D01*
X129595523Y-125023619D01*
X129643142Y-124976000D01*
X129738380Y-124928380D01*
X129024095Y-103068380D02*
X128690761Y-102592190D01*
X128452666Y-103068380D02*
X128452666Y-102068380D01*
X128833619Y-102068380D01*
X128928857Y-102116000D01*
X128976476Y-102163619D01*
X129024095Y-102258857D01*
X129024095Y-102401714D01*
X128976476Y-102496952D01*
X128928857Y-102544571D01*
X128833619Y-102592190D01*
X128452666Y-102592190D01*
X129214571Y-101701000D02*
X130357428Y-101701000D01*
X129357428Y-102068380D02*
X129595523Y-103068380D01*
X129786000Y-102354095D01*
X129976476Y-103068380D01*
X130214571Y-102068380D01*
X128547904Y-113228380D02*
X128547904Y-112228380D01*
X128786000Y-112228380D01*
X128928857Y-112276000D01*
X129024095Y-112371238D01*
X129071714Y-112466476D01*
X129119333Y-112656952D01*
X129119333Y-112799809D01*
X129071714Y-112990285D01*
X129024095Y-113085523D01*
X128928857Y-113180761D01*
X128786000Y-113228380D01*
X128547904Y-113228380D01*
X130024095Y-112228380D02*
X129547904Y-112228380D01*
X129500285Y-112704571D01*
X129547904Y-112656952D01*
X129643142Y-112609333D01*
X129881238Y-112609333D01*
X129976476Y-112656952D01*
X130024095Y-112704571D01*
X130071714Y-112799809D01*
X130071714Y-113037904D01*
X130024095Y-113133142D01*
X129976476Y-113180761D01*
X129881238Y-113228380D01*
X129643142Y-113228380D01*
X129547904Y-113180761D01*
X129500285Y-113133142D01*
X128097595Y-127960428D02*
X128859500Y-127960428D01*
X128478547Y-128341380D02*
X128478547Y-127579476D01*
X129811880Y-127341380D02*
X129335690Y-127341380D01*
X129288071Y-127817571D01*
X129335690Y-127769952D01*
X129430928Y-127722333D01*
X129669023Y-127722333D01*
X129764261Y-127769952D01*
X129811880Y-127817571D01*
X129859500Y-127912809D01*
X129859500Y-128150904D01*
X129811880Y-128246142D01*
X129764261Y-128293761D01*
X129669023Y-128341380D01*
X129430928Y-128341380D01*
X129335690Y-128293761D01*
X129288071Y-128246142D01*
X130192833Y-127674714D02*
X130430928Y-128341380D01*
X130669023Y-127674714D01*
X128547904Y-105608380D02*
X128547904Y-104608380D01*
X128786000Y-104608380D01*
X128928857Y-104656000D01*
X129024095Y-104751238D01*
X129071714Y-104846476D01*
X129119333Y-105036952D01*
X129119333Y-105179809D01*
X129071714Y-105370285D01*
X129024095Y-105465523D01*
X128928857Y-105560761D01*
X128786000Y-105608380D01*
X128547904Y-105608380D01*
X129690761Y-105036952D02*
X129595523Y-104989333D01*
X129547904Y-104941714D01*
X129500285Y-104846476D01*
X129500285Y-104798857D01*
X129547904Y-104703619D01*
X129595523Y-104656000D01*
X129690761Y-104608380D01*
X129881238Y-104608380D01*
X129976476Y-104656000D01*
X130024095Y-104703619D01*
X130071714Y-104798857D01*
X130071714Y-104846476D01*
X130024095Y-104941714D01*
X129976476Y-104989333D01*
X129881238Y-105036952D01*
X129690761Y-105036952D01*
X129595523Y-105084571D01*
X129547904Y-105132190D01*
X129500285Y-105227428D01*
X129500285Y-105417904D01*
X129547904Y-105513142D01*
X129595523Y-105560761D01*
X129690761Y-105608380D01*
X129881238Y-105608380D01*
X129976476Y-105560761D01*
X130024095Y-105513142D01*
X130071714Y-105417904D01*
X130071714Y-105227428D01*
X130024095Y-105132190D01*
X129976476Y-105084571D01*
X129881238Y-105036952D01*
X120044785Y-127643000D02*
X119949547Y-127595380D01*
X119806690Y-127595380D01*
X119663833Y-127643000D01*
X119568595Y-127738238D01*
X119520976Y-127833476D01*
X119473357Y-128023952D01*
X119473357Y-128166809D01*
X119520976Y-128357285D01*
X119568595Y-128452523D01*
X119663833Y-128547761D01*
X119806690Y-128595380D01*
X119901928Y-128595380D01*
X120044785Y-128547761D01*
X120092404Y-128500142D01*
X120092404Y-128166809D01*
X119901928Y-128166809D01*
X120520976Y-128595380D02*
X120520976Y-127595380D01*
X121092404Y-128595380D01*
X121092404Y-127595380D01*
X121568595Y-128595380D02*
X121568595Y-127595380D01*
X121806690Y-127595380D01*
X121949547Y-127643000D01*
X122044785Y-127738238D01*
X122092404Y-127833476D01*
X122140023Y-128023952D01*
X122140023Y-128166809D01*
X122092404Y-128357285D01*
X122044785Y-128452523D01*
X121949547Y-128547761D01*
X121806690Y-128595380D01*
X121568595Y-128595380D01*
X120824714Y-125642666D02*
X121300904Y-125642666D01*
X120729476Y-125928380D02*
X121062809Y-124928380D01*
X121396142Y-125928380D01*
X121919952Y-124928380D02*
X122015190Y-124928380D01*
X122110428Y-124976000D01*
X122158047Y-125023619D01*
X122205666Y-125118857D01*
X122253285Y-125309333D01*
X122253285Y-125547428D01*
X122205666Y-125737904D01*
X122158047Y-125833142D01*
X122110428Y-125880761D01*
X122015190Y-125928380D01*
X121919952Y-125928380D01*
X121824714Y-125880761D01*
X121777095Y-125833142D01*
X121729476Y-125737904D01*
X121681857Y-125547428D01*
X121681857Y-125309333D01*
X121729476Y-125118857D01*
X121777095Y-125023619D01*
X121824714Y-124976000D01*
X121919952Y-124928380D01*
X120824714Y-123102666D02*
X121300904Y-123102666D01*
X120729476Y-123388380D02*
X121062809Y-122388380D01*
X121396142Y-123388380D01*
X122253285Y-123388380D02*
X121681857Y-123388380D01*
X121967571Y-123388380D02*
X121967571Y-122388380D01*
X121872333Y-122531238D01*
X121777095Y-122626476D01*
X121681857Y-122674095D01*
X120824714Y-120562666D02*
X121300904Y-120562666D01*
X120729476Y-120848380D02*
X121062809Y-119848380D01*
X121396142Y-120848380D01*
X121681857Y-119943619D02*
X121729476Y-119896000D01*
X121824714Y-119848380D01*
X122062809Y-119848380D01*
X122158047Y-119896000D01*
X122205666Y-119943619D01*
X122253285Y-120038857D01*
X122253285Y-120134095D01*
X122205666Y-120276952D01*
X121634238Y-120848380D01*
X122253285Y-120848380D01*
X120824714Y-118022666D02*
X121300904Y-118022666D01*
X120729476Y-118308380D02*
X121062809Y-117308380D01*
X121396142Y-118308380D01*
X121634238Y-117308380D02*
X122253285Y-117308380D01*
X121919952Y-117689333D01*
X122062809Y-117689333D01*
X122158047Y-117736952D01*
X122205666Y-117784571D01*
X122253285Y-117879809D01*
X122253285Y-118117904D01*
X122205666Y-118213142D01*
X122158047Y-118260761D01*
X122062809Y-118308380D01*
X121777095Y-118308380D01*
X121681857Y-118260761D01*
X121634238Y-118213142D01*
X120824714Y-115482666D02*
X121300904Y-115482666D01*
X120729476Y-115768380D02*
X121062809Y-114768380D01*
X121396142Y-115768380D01*
X122158047Y-115101714D02*
X122158047Y-115768380D01*
X121919952Y-114720761D02*
X121681857Y-115435047D01*
X122300904Y-115435047D01*
X120697714Y-112942666D02*
X121173904Y-112942666D01*
X120602476Y-113228380D02*
X120935809Y-112228380D01*
X121269142Y-113228380D01*
X122078666Y-112228380D02*
X121602476Y-112228380D01*
X121554857Y-112704571D01*
X121602476Y-112656952D01*
X121697714Y-112609333D01*
X121935809Y-112609333D01*
X122031047Y-112656952D01*
X122078666Y-112704571D01*
X122126285Y-112799809D01*
X122126285Y-113037904D01*
X122078666Y-113133142D01*
X122031047Y-113180761D01*
X121935809Y-113228380D01*
X121697714Y-113228380D01*
X121602476Y-113180761D01*
X121554857Y-113133142D01*
X120570714Y-110402666D02*
X121046904Y-110402666D01*
X120475476Y-110688380D02*
X120808809Y-109688380D01*
X121142142Y-110688380D01*
X121904047Y-109688380D02*
X121713571Y-109688380D01*
X121618333Y-109736000D01*
X121570714Y-109783619D01*
X121475476Y-109926476D01*
X121427857Y-110116952D01*
X121427857Y-110497904D01*
X121475476Y-110593142D01*
X121523095Y-110640761D01*
X121618333Y-110688380D01*
X121808809Y-110688380D01*
X121904047Y-110640761D01*
X121951666Y-110593142D01*
X121999285Y-110497904D01*
X121999285Y-110259809D01*
X121951666Y-110164571D01*
X121904047Y-110116952D01*
X121808809Y-110069333D01*
X121618333Y-110069333D01*
X121523095Y-110116952D01*
X121475476Y-110164571D01*
X121427857Y-110259809D01*
X120443714Y-107862666D02*
X120919904Y-107862666D01*
X120348476Y-108148380D02*
X120681809Y-107148380D01*
X121015142Y-108148380D01*
X121253238Y-107148380D02*
X121919904Y-107148380D01*
X121491333Y-108148380D01*
X120443714Y-105322666D02*
X120919904Y-105322666D01*
X120348476Y-105608380D02*
X120681809Y-104608380D01*
X121015142Y-105608380D01*
X121491333Y-105036952D02*
X121396095Y-104989333D01*
X121348476Y-104941714D01*
X121300857Y-104846476D01*
X121300857Y-104798857D01*
X121348476Y-104703619D01*
X121396095Y-104656000D01*
X121491333Y-104608380D01*
X121681809Y-104608380D01*
X121777047Y-104656000D01*
X121824666Y-104703619D01*
X121872285Y-104798857D01*
X121872285Y-104846476D01*
X121824666Y-104941714D01*
X121777047Y-104989333D01*
X121681809Y-105036952D01*
X121491333Y-105036952D01*
X121396095Y-105084571D01*
X121348476Y-105132190D01*
X121300857Y-105227428D01*
X121300857Y-105417904D01*
X121348476Y-105513142D01*
X121396095Y-105560761D01*
X121491333Y-105608380D01*
X121681809Y-105608380D01*
X121777047Y-105560761D01*
X121824666Y-105513142D01*
X121872285Y-105417904D01*
X121872285Y-105227428D01*
X121824666Y-105132190D01*
X121777047Y-105084571D01*
X121681809Y-105036952D01*
X120443714Y-102782666D02*
X120919904Y-102782666D01*
X120348476Y-103068380D02*
X120681809Y-102068380D01*
X121015142Y-103068380D01*
X121396095Y-103068380D02*
X121586571Y-103068380D01*
X121681809Y-103020761D01*
X121729428Y-102973142D01*
X121824666Y-102830285D01*
X121872285Y-102639809D01*
X121872285Y-102258857D01*
X121824666Y-102163619D01*
X121777047Y-102116000D01*
X121681809Y-102068380D01*
X121491333Y-102068380D01*
X121396095Y-102116000D01*
X121348476Y-102163619D01*
X121300857Y-102258857D01*
X121300857Y-102496952D01*
X121348476Y-102592190D01*
X121396095Y-102639809D01*
X121491333Y-102687428D01*
X121681809Y-102687428D01*
X121777047Y-102639809D01*
X121824666Y-102592190D01*
X121872285Y-102496952D01*
X119586523Y-100242666D02*
X120062714Y-100242666D01*
X119491285Y-100528380D02*
X119824619Y-99528380D01*
X120157952Y-100528380D01*
X121015095Y-100528380D02*
X120443666Y-100528380D01*
X120729380Y-100528380D02*
X120729380Y-99528380D01*
X120634142Y-99671238D01*
X120538904Y-99766476D01*
X120443666Y-99814095D01*
X121634142Y-99528380D02*
X121729380Y-99528380D01*
X121824619Y-99576000D01*
X121872238Y-99623619D01*
X121919857Y-99718857D01*
X121967476Y-99909333D01*
X121967476Y-100147428D01*
X121919857Y-100337904D01*
X121872238Y-100433142D01*
X121824619Y-100480761D01*
X121729380Y-100528380D01*
X121634142Y-100528380D01*
X121538904Y-100480761D01*
X121491285Y-100433142D01*
X121443666Y-100337904D01*
X121396047Y-100147428D01*
X121396047Y-99909333D01*
X121443666Y-99718857D01*
X121491285Y-99623619D01*
X121538904Y-99576000D01*
X121634142Y-99528380D01*
X119586523Y-97702666D02*
X120062714Y-97702666D01*
X119491285Y-97988380D02*
X119824619Y-96988380D01*
X120157952Y-97988380D01*
X121015095Y-97988380D02*
X120443666Y-97988380D01*
X120729380Y-97988380D02*
X120729380Y-96988380D01*
X120634142Y-97131238D01*
X120538904Y-97226476D01*
X120443666Y-97274095D01*
X121967476Y-97988380D02*
X121396047Y-97988380D01*
X121681761Y-97988380D02*
X121681761Y-96988380D01*
X121586523Y-97131238D01*
X121491285Y-97226476D01*
X121396047Y-97274095D01*
X119586523Y-95162666D02*
X120062714Y-95162666D01*
X119491285Y-95448380D02*
X119824619Y-94448380D01*
X120157952Y-95448380D01*
X121015095Y-95448380D02*
X120443666Y-95448380D01*
X120729380Y-95448380D02*
X120729380Y-94448380D01*
X120634142Y-94591238D01*
X120538904Y-94686476D01*
X120443666Y-94734095D01*
X121396047Y-94543619D02*
X121443666Y-94496000D01*
X121538904Y-94448380D01*
X121777000Y-94448380D01*
X121872238Y-94496000D01*
X121919857Y-94543619D01*
X121967476Y-94638857D01*
X121967476Y-94734095D01*
X121919857Y-94876952D01*
X121348428Y-95448380D01*
X121967476Y-95448380D01*
X119586523Y-92622666D02*
X120062714Y-92622666D01*
X119491285Y-92908380D02*
X119824619Y-91908380D01*
X120157952Y-92908380D01*
X121015095Y-92908380D02*
X120443666Y-92908380D01*
X120729380Y-92908380D02*
X120729380Y-91908380D01*
X120634142Y-92051238D01*
X120538904Y-92146476D01*
X120443666Y-92194095D01*
X121348428Y-91908380D02*
X121967476Y-91908380D01*
X121634142Y-92289333D01*
X121777000Y-92289333D01*
X121872238Y-92336952D01*
X121919857Y-92384571D01*
X121967476Y-92479809D01*
X121967476Y-92717904D01*
X121919857Y-92813142D01*
X121872238Y-92860761D01*
X121777000Y-92908380D01*
X121491285Y-92908380D01*
X121396047Y-92860761D01*
X121348428Y-92813142D01*
X119586523Y-90082666D02*
X120062714Y-90082666D01*
X119491285Y-90368380D02*
X119824619Y-89368380D01*
X120157952Y-90368380D01*
X121015095Y-90368380D02*
X120443666Y-90368380D01*
X120729380Y-90368380D02*
X120729380Y-89368380D01*
X120634142Y-89511238D01*
X120538904Y-89606476D01*
X120443666Y-89654095D01*
X121872238Y-89701714D02*
X121872238Y-90368380D01*
X121634142Y-89320761D02*
X121396047Y-90035047D01*
X122015095Y-90035047D01*
X119586523Y-87542666D02*
X120062714Y-87542666D01*
X119491285Y-87828380D02*
X119824619Y-86828380D01*
X120157952Y-87828380D01*
X121015095Y-87828380D02*
X120443666Y-87828380D01*
X120729380Y-87828380D02*
X120729380Y-86828380D01*
X120634142Y-86971238D01*
X120538904Y-87066476D01*
X120443666Y-87114095D01*
X121919857Y-86828380D02*
X121443666Y-86828380D01*
X121396047Y-87304571D01*
X121443666Y-87256952D01*
X121538904Y-87209333D01*
X121777000Y-87209333D01*
X121872238Y-87256952D01*
X121919857Y-87304571D01*
X121967476Y-87399809D01*
X121967476Y-87637904D01*
X121919857Y-87733142D01*
X121872238Y-87780761D01*
X121777000Y-87828380D01*
X121538904Y-87828380D01*
X121443666Y-87780761D01*
X121396047Y-87733142D01*
D10*
X91039285Y-83990571D02*
X90539285Y-83276285D01*
X90182142Y-83990571D02*
X90182142Y-82490571D01*
X90753571Y-82490571D01*
X90896428Y-82562000D01*
X90967857Y-82633428D01*
X91039285Y-82776285D01*
X91039285Y-82990571D01*
X90967857Y-83133428D01*
X90896428Y-83204857D01*
X90753571Y-83276285D01*
X90182142Y-83276285D01*
X91610714Y-83562000D02*
X92325000Y-83562000D01*
X91467857Y-83990571D02*
X91967857Y-82490571D01*
X92467857Y-83990571D01*
X92967857Y-83990571D02*
X92967857Y-82490571D01*
X93467857Y-83562000D01*
X93967857Y-82490571D01*
X93967857Y-83990571D01*
X67147428Y-83990571D02*
X66647428Y-83276285D01*
X66290285Y-83990571D02*
X66290285Y-82490571D01*
X66861714Y-82490571D01*
X67004571Y-82562000D01*
X67076000Y-82633428D01*
X67147428Y-82776285D01*
X67147428Y-82990571D01*
X67076000Y-83133428D01*
X67004571Y-83204857D01*
X66861714Y-83276285D01*
X66290285Y-83276285D01*
X68076000Y-82490571D02*
X68361714Y-82490571D01*
X68504571Y-82562000D01*
X68647428Y-82704857D01*
X68718857Y-82990571D01*
X68718857Y-83490571D01*
X68647428Y-83776285D01*
X68504571Y-83919142D01*
X68361714Y-83990571D01*
X68076000Y-83990571D01*
X67933142Y-83919142D01*
X67790285Y-83776285D01*
X67718857Y-83490571D01*
X67718857Y-82990571D01*
X67790285Y-82704857D01*
X67933142Y-82562000D01*
X68076000Y-82490571D01*
X69361714Y-83990571D02*
X69361714Y-82490571D01*
X69861714Y-83562000D01*
X70361714Y-82490571D01*
X70361714Y-83990571D01*
D11*
X40640095Y-143645000D02*
X40544857Y-143597380D01*
X40402000Y-143597380D01*
X40259142Y-143645000D01*
X40163904Y-143740238D01*
X40116285Y-143835476D01*
X40068666Y-144025952D01*
X40068666Y-144168809D01*
X40116285Y-144359285D01*
X40163904Y-144454523D01*
X40259142Y-144549761D01*
X40402000Y-144597380D01*
X40497238Y-144597380D01*
X40640095Y-144549761D01*
X40687714Y-144502142D01*
X40687714Y-144168809D01*
X40497238Y-144168809D01*
X41116285Y-144597380D02*
X41116285Y-143597380D01*
X41687714Y-144597380D01*
X41687714Y-143597380D01*
X42163904Y-144597380D02*
X42163904Y-143597380D01*
X42402000Y-143597380D01*
X42544857Y-143645000D01*
X42640095Y-143740238D01*
X42687714Y-143835476D01*
X42735333Y-144025952D01*
X42735333Y-144168809D01*
X42687714Y-144359285D01*
X42640095Y-144454523D01*
X42544857Y-144549761D01*
X42402000Y-144597380D01*
X42163904Y-144597380D01*
X46513904Y-136088428D02*
X47275809Y-136088428D01*
X46894857Y-136469380D02*
X46894857Y-135707476D01*
X48228190Y-135469380D02*
X47752000Y-135469380D01*
X47704380Y-135945571D01*
X47752000Y-135897952D01*
X47847238Y-135850333D01*
X48085333Y-135850333D01*
X48180571Y-135897952D01*
X48228190Y-135945571D01*
X48275809Y-136040809D01*
X48275809Y-136278904D01*
X48228190Y-136374142D01*
X48180571Y-136421761D01*
X48085333Y-136469380D01*
X47847238Y-136469380D01*
X47752000Y-136421761D01*
X47704380Y-136374142D01*
X48609142Y-135802714D02*
X48847238Y-136469380D01*
X49085333Y-135802714D01*
X118856380Y-147740714D02*
X119094476Y-148407380D01*
X119332571Y-147740714D01*
X119713523Y-148312142D02*
X119761142Y-148359761D01*
X119713523Y-148407380D01*
X119665904Y-148359761D01*
X119713523Y-148312142D01*
X119713523Y-148407380D01*
X121475428Y-148407380D02*
X120904000Y-148407380D01*
X121189714Y-148407380D02*
X121189714Y-147407380D01*
X121094476Y-147550238D01*
X120999238Y-147645476D01*
X120904000Y-147693095D01*
X121904000Y-148312142D02*
X121951619Y-148359761D01*
X121904000Y-148407380D01*
X121856380Y-148359761D01*
X121904000Y-148312142D01*
X121904000Y-148407380D01*
X122856380Y-147407380D02*
X122380190Y-147407380D01*
X122332571Y-147883571D01*
X122380190Y-147835952D01*
X122475428Y-147788333D01*
X122713523Y-147788333D01*
X122808761Y-147835952D01*
X122856380Y-147883571D01*
X122904000Y-147978809D01*
X122904000Y-148216904D01*
X122856380Y-148312142D01*
X122808761Y-148359761D01*
X122713523Y-148407380D01*
X122475428Y-148407380D01*
X122380190Y-148359761D01*
X122332571Y-148312142D01*
D12*
X64269833Y-101306404D02*
X64222214Y-101348071D01*
X64079357Y-101425452D01*
X63984119Y-101461166D01*
X63841261Y-101490928D01*
X63603166Y-101508785D01*
X63412690Y-101484976D01*
X63174595Y-101407595D01*
X63031738Y-101342119D01*
X62936500Y-101282595D01*
X62793642Y-101169500D01*
X62746023Y-101115928D01*
X63793642Y-100294500D02*
X63841261Y-100348071D01*
X63888880Y-100496880D01*
X63888880Y-100592119D01*
X63841261Y-100729023D01*
X63746023Y-100812357D01*
X63650785Y-100848071D01*
X63460309Y-100871880D01*
X63317452Y-100854023D01*
X63126976Y-100782595D01*
X63031738Y-100723071D01*
X62936500Y-100615928D01*
X62888880Y-100467119D01*
X62888880Y-100371880D01*
X62936500Y-100234976D01*
X62984119Y-100193309D01*
X64269833Y-100020690D02*
X64222214Y-99967119D01*
X64079357Y-99854023D01*
X63984119Y-99794500D01*
X63841261Y-99729023D01*
X63603166Y-99651642D01*
X63412690Y-99627833D01*
X63174595Y-99645690D01*
X63031738Y-99675452D01*
X62936500Y-99711166D01*
X62793642Y-99788547D01*
X62746023Y-99830214D01*
X63888880Y-98449261D02*
X62888880Y-98324261D01*
X63603166Y-98080214D01*
X62888880Y-97657595D01*
X63888880Y-97782595D01*
X63888880Y-96877833D02*
X63365071Y-96812357D01*
X63269833Y-96848071D01*
X63222214Y-96937357D01*
X63222214Y-97127833D01*
X63269833Y-97229023D01*
X63841261Y-96871880D02*
X63888880Y-96973071D01*
X63888880Y-97211166D01*
X63841261Y-97300452D01*
X63746023Y-97336166D01*
X63650785Y-97324261D01*
X63555547Y-97264738D01*
X63507928Y-97163547D01*
X63507928Y-96925452D01*
X63460309Y-96824261D01*
X63888880Y-96401642D02*
X63222214Y-96318309D01*
X63412690Y-96342119D02*
X63317452Y-96282595D01*
X63269833Y-96229023D01*
X63222214Y-96127833D01*
X63222214Y-96032595D01*
X63888880Y-95782595D02*
X63222214Y-95699261D01*
X62888880Y-95657595D02*
X62936500Y-95711166D01*
X62984119Y-95669500D01*
X62936500Y-95615928D01*
X62888880Y-95657595D01*
X62984119Y-95669500D01*
X63888880Y-94877833D02*
X63365071Y-94812357D01*
X63269833Y-94848071D01*
X63222214Y-94937357D01*
X63222214Y-95127833D01*
X63269833Y-95229023D01*
X63841261Y-94871880D02*
X63888880Y-94973071D01*
X63888880Y-95211166D01*
X63841261Y-95300452D01*
X63746023Y-95336166D01*
X63650785Y-95324261D01*
X63555547Y-95264738D01*
X63507928Y-95163547D01*
X63507928Y-94925452D01*
X63460309Y-94824261D01*
X63222214Y-94318309D02*
X63888880Y-94401642D01*
X63317452Y-94330214D02*
X63269833Y-94276642D01*
X63222214Y-94175452D01*
X63222214Y-94032595D01*
X63269833Y-93943309D01*
X63365071Y-93907595D01*
X63888880Y-93973071D01*
X63888880Y-93354023D02*
X63841261Y-93443309D01*
X63793642Y-93484976D01*
X63698404Y-93520690D01*
X63412690Y-93484976D01*
X63317452Y-93425452D01*
X63269833Y-93371880D01*
X63222214Y-93270690D01*
X63222214Y-93127833D01*
X63269833Y-93038547D01*
X63317452Y-92996880D01*
X63412690Y-92961166D01*
X63698404Y-92996880D01*
X63793642Y-93056404D01*
X63841261Y-93109976D01*
X63888880Y-93211166D01*
X63888880Y-93354023D01*
X63888880Y-91354023D02*
X63888880Y-91830214D01*
X62888880Y-91705214D01*
X63222214Y-90508785D02*
X63888880Y-90592119D01*
X63222214Y-90937357D02*
X63746023Y-91002833D01*
X63841261Y-90967119D01*
X63888880Y-90877833D01*
X63888880Y-90734976D01*
X63841261Y-90633785D01*
X63793642Y-90580214D01*
X63222214Y-90032595D02*
X63888880Y-90115928D01*
X63317452Y-90044500D02*
X63269833Y-89990928D01*
X63222214Y-89889738D01*
X63222214Y-89746880D01*
X63269833Y-89657595D01*
X63365071Y-89621880D01*
X63888880Y-89687357D01*
X63888880Y-88782595D02*
X63365071Y-88717119D01*
X63269833Y-88752833D01*
X63222214Y-88842119D01*
X63222214Y-89032595D01*
X63269833Y-89133785D01*
X63841261Y-88776642D02*
X63888880Y-88877833D01*
X63888880Y-89115928D01*
X63841261Y-89205214D01*
X63746023Y-89240928D01*
X63650785Y-89229023D01*
X63555547Y-89169500D01*
X63507928Y-89068309D01*
X63507928Y-88830214D01*
X63460309Y-88729023D01*
D13*
X58769261Y-111769434D02*
X60674023Y-112007529D01*
X56674023Y-112507529D02*
X58769261Y-111769434D01*
X56674023Y-110507529D01*
X59531166Y-110007529D02*
X59531166Y-108578958D01*
X60674023Y-110436101D02*
X56674023Y-108936101D01*
X60674023Y-108436101D01*
X60483547Y-107555148D02*
X60674023Y-107293244D01*
X60674023Y-106721815D01*
X60483547Y-106412291D01*
X60102595Y-106221815D01*
X59912119Y-106198005D01*
X59531166Y-106293244D01*
X59340690Y-106555148D01*
X59340690Y-106983720D01*
X59150214Y-107245625D01*
X58769261Y-107340863D01*
X58578785Y-107317053D01*
X58197833Y-107126577D01*
X58007357Y-106817053D01*
X58007357Y-106388482D01*
X58197833Y-106126577D01*
X60674023Y-105007529D02*
X58007357Y-104674196D01*
X56674023Y-104507529D02*
X56864500Y-104674196D01*
X57054976Y-104555148D01*
X56864500Y-104388482D01*
X56674023Y-104507529D01*
X57054976Y-104555148D01*
X60674023Y-103864672D02*
X58007357Y-101959910D01*
X58007357Y-103531339D02*
X60674023Y-102293244D01*
X58007357Y-101245625D02*
X58007357Y-100102767D01*
X60674023Y-101150386D02*
X57245452Y-100721815D01*
X56864500Y-100531339D01*
X56674023Y-100221815D01*
X56674023Y-99936101D01*
X60674023Y-99436101D02*
X58007357Y-99102767D01*
X56674023Y-98936101D02*
X56864500Y-99102767D01*
X57054976Y-98983720D01*
X56864500Y-98817053D01*
X56674023Y-98936101D01*
X57054976Y-98983720D01*
X58007357Y-97959910D02*
X60674023Y-97578958D01*
X58007357Y-96531339D01*
X60483547Y-94555148D02*
X60674023Y-94864672D01*
X60674023Y-95436101D01*
X60483547Y-95698005D01*
X60102595Y-95793244D01*
X58578785Y-95602767D01*
X58197833Y-95412291D01*
X58007357Y-95102767D01*
X58007357Y-94531339D01*
X58197833Y-94269434D01*
X58578785Y-94174196D01*
X58959738Y-94221815D01*
X59340690Y-95698005D01*
X56674023Y-92078958D02*
X56674023Y-91793244D01*
X56864500Y-91531339D01*
X57054976Y-91412291D01*
X57435928Y-91317053D01*
X58197833Y-91269434D01*
X59150214Y-91388482D01*
X59912119Y-91626577D01*
X60293071Y-91817053D01*
X60483547Y-91983720D01*
X60674023Y-92293244D01*
X60674023Y-92578958D01*
X60483547Y-92840863D01*
X60293071Y-92959910D01*
X59912119Y-93055148D01*
X59150214Y-93102767D01*
X58197833Y-92983720D01*
X57435928Y-92745625D01*
X57054976Y-92555148D01*
X56864500Y-92388482D01*
X56674023Y-92078958D01*
X57054976Y-89983720D02*
X56864500Y-89817053D01*
X56674023Y-89507529D01*
X56674023Y-88793244D01*
X56864500Y-88531339D01*
X57054976Y-88412291D01*
X57435928Y-88317053D01*
X57816880Y-88364672D01*
X58388309Y-88578958D01*
X60674023Y-90578958D01*
X60674023Y-88721815D01*
D14*
X60115500Y-143177000D02*
X60115500Y-144677000D01*
X61365500Y-147177000D02*
X65865500Y-147177000D01*
X67115500Y-144677000D02*
X67115500Y-143177000D01*
X65865500Y-140677000D02*
X61365500Y-140677000D01*
X56796000Y-51018000D02*
X56796000Y-71168000D01*
X57546000Y-71918000D02*
X68946000Y-71918000D01*
X69696000Y-71168000D02*
X69696000Y-51768000D01*
X68946000Y-51018000D02*
X56796000Y-51018000D01*
X69696000Y-51768000D02*
G75*
G03*
X68946000Y-51018000I-750000J0D01*
G01*
X68946000Y-71918000D02*
G75*
G03*
X69696000Y-71168000I0J750000D01*
G01*
X56796000Y-71168000D02*
G75*
G03*
X57546000Y-71918000I750000J0D01*
G01*
X123437000Y-76116000D02*
X123437000Y-57996000D01*
X72397000Y-76116000D02*
X123437000Y-76116000D01*
X72397000Y-57996000D02*
X72397000Y-76116000D01*
X123437000Y-57996000D02*
X72397000Y-57996000D01*
X123377000Y-73116000D02*
X123377000Y-68056000D01*
X72457000Y-73116000D02*
X123377000Y-73116000D01*
X72457000Y-60996000D02*
X72457000Y-73116000D01*
X123377000Y-60996000D02*
X72457000Y-60996000D01*
X123377000Y-66056000D02*
X123377000Y-60996000D01*
X123377000Y-68056000D02*
G75*
G02*
X123377000Y-66056000I0J1000000D01*
G01*
X117264000Y-124340000D02*
X106764000Y-124340000D01*
X117264000Y-142360000D02*
X117264000Y-124340000D01*
X106764000Y-142360000D02*
X117264000Y-142360000D01*
X106764000Y-124340000D02*
X106764000Y-142360000D01*
X114264000Y-124400000D02*
X113014000Y-124400000D01*
X114264000Y-142300000D02*
X114264000Y-124400000D01*
X109764000Y-142300000D02*
X114264000Y-142300000D01*
X109764000Y-124400000D02*
X109764000Y-142300000D01*
X111014000Y-124400000D02*
X109764000Y-124400000D01*
X113014000Y-124400000D02*
G75*
G02*
X111014000Y-124400000I-1000000J0D01*
G01*
X61954000Y-137105000D02*
X65554000Y-137105000D01*
X65592478Y-137093478D02*
G75*
G03*
X63754000Y-132655000I-1838478J1838478D01*
G01*
X61915522Y-137093478D02*
G75*
G02*
X63754000Y-132655000I1838478J1838478D01*
G01*
X104564000Y-124340000D02*
X94064000Y-124340000D01*
X104564000Y-142360000D02*
X104564000Y-124340000D01*
X94064000Y-142360000D02*
X104564000Y-142360000D01*
X94064000Y-124340000D02*
X94064000Y-142360000D01*
X101564000Y-124400000D02*
X100314000Y-124400000D01*
X101564000Y-142300000D02*
X101564000Y-124400000D01*
X97064000Y-142300000D02*
X101564000Y-142300000D01*
X97064000Y-124400000D02*
X97064000Y-142300000D01*
X98314000Y-124400000D02*
X97064000Y-124400000D01*
X100314000Y-124400000D02*
G75*
G02*
X98314000Y-124400000I-1000000J0D01*
G01*
X91229000Y-124340000D02*
X80729000Y-124340000D01*
X91229000Y-142360000D02*
X91229000Y-124340000D01*
X80729000Y-142360000D02*
X91229000Y-142360000D01*
X80729000Y-124340000D02*
X80729000Y-142360000D01*
X88229000Y-124400000D02*
X86979000Y-124400000D01*
X88229000Y-142300000D02*
X88229000Y-124400000D01*
X83729000Y-142300000D02*
X88229000Y-142300000D01*
X83729000Y-124400000D02*
X83729000Y-142300000D01*
X84979000Y-124400000D02*
X83729000Y-124400000D01*
X86979000Y-124400000D02*
G75*
G02*
X84979000Y-124400000I-1000000J0D01*
G01*
X107993000Y-84970000D02*
X89873000Y-84970000D01*
X107993000Y-120770000D02*
X107993000Y-84970000D01*
X89873000Y-120770000D02*
X107993000Y-120770000D01*
X89873000Y-84970000D02*
X89873000Y-120770000D01*
X104993000Y-85030000D02*
X99933000Y-85030000D01*
X104993000Y-120710000D02*
X104993000Y-85030000D01*
X92873000Y-120710000D02*
X104993000Y-120710000D01*
X92873000Y-85030000D02*
X92873000Y-120710000D01*
X97933000Y-85030000D02*
X92873000Y-85030000D01*
X99933000Y-85030000D02*
G75*
G02*
X97933000Y-85030000I-1000000J0D01*
G01*
X54780000Y-74556000D02*
X36660000Y-74556000D01*
X54780000Y-125596000D02*
X54780000Y-74556000D01*
X36660000Y-125596000D02*
X54780000Y-125596000D01*
X36660000Y-74556000D02*
X36660000Y-125596000D01*
X51780000Y-74616000D02*
X46720000Y-74616000D01*
X51780000Y-125536000D02*
X51780000Y-74616000D01*
X39660000Y-125536000D02*
X51780000Y-125536000D01*
X39660000Y-74616000D02*
X39660000Y-125536000D01*
X44720000Y-74616000D02*
X39660000Y-74616000D01*
X46720000Y-74616000D02*
G75*
G02*
X44720000Y-74616000I-1000000J0D01*
G01*
X84117000Y-84970000D02*
X65997000Y-84970000D01*
X84117000Y-120770000D02*
X84117000Y-84970000D01*
X65997000Y-120770000D02*
X84117000Y-120770000D01*
X65997000Y-84970000D02*
X65997000Y-120770000D01*
X81117000Y-85030000D02*
X76057000Y-85030000D01*
X81117000Y-120710000D02*
X81117000Y-85030000D01*
X68997000Y-120710000D02*
X81117000Y-120710000D01*
X68997000Y-85030000D02*
X68997000Y-120710000D01*
X74057000Y-85030000D02*
X68997000Y-85030000D01*
X76057000Y-85030000D02*
G75*
G02*
X74057000Y-85030000I-1000000J0D01*
G01*
X55950000Y-134550000D02*
X55950000Y-132150000D01*
X58350000Y-134550000D02*
X55950000Y-134550000D01*
X58350000Y-132150000D02*
X58350000Y-134550000D01*
X55950000Y-132150000D02*
X58350000Y-132150000D01*
X52267000Y-54667000D02*
X52267000Y-52267000D01*
X54667000Y-54667000D02*
X52267000Y-54667000D01*
X54667000Y-52267000D02*
X54667000Y-54667000D01*
X52267000Y-52267000D02*
X54667000Y-52267000D01*
X72517000Y-139041000D02*
X72517000Y-138271000D01*
X72517000Y-130961000D02*
X72517000Y-131731000D01*
X73887000Y-138271000D02*
X73887000Y-131731000D01*
X71147000Y-138271000D02*
X73887000Y-138271000D01*
X71147000Y-131731000D02*
X71147000Y-138271000D01*
X73887000Y-131731000D02*
X71147000Y-131731000D01*
X47093000Y-70612000D02*
X46323000Y-70612000D01*
X39013000Y-70612000D02*
X39783000Y-70612000D01*
X46323000Y-69242000D02*
X39783000Y-69242000D01*
X46323000Y-71982000D02*
X46323000Y-69242000D01*
X39783000Y-71982000D02*
X46323000Y-71982000D01*
X39783000Y-69242000D02*
X39783000Y-71982000D01*
X47093000Y-67310000D02*
X46323000Y-67310000D01*
X39013000Y-67310000D02*
X39783000Y-67310000D01*
X46323000Y-65940000D02*
X39783000Y-65940000D01*
X46323000Y-68680000D02*
X46323000Y-65940000D01*
X39783000Y-68680000D02*
X46323000Y-68680000D01*
X39783000Y-65940000D02*
X39783000Y-68680000D01*
X47093000Y-64135000D02*
X46323000Y-64135000D01*
X39013000Y-64135000D02*
X39783000Y-64135000D01*
X46323000Y-62765000D02*
X39783000Y-62765000D01*
X46323000Y-65505000D02*
X46323000Y-62765000D01*
X39783000Y-65505000D02*
X46323000Y-65505000D01*
X39783000Y-62765000D02*
X39783000Y-65505000D01*
X47093000Y-60960000D02*
X46323000Y-60960000D01*
X39013000Y-60960000D02*
X39783000Y-60960000D01*
X46323000Y-59590000D02*
X39783000Y-59590000D01*
X46323000Y-62330000D02*
X46323000Y-59590000D01*
X39783000Y-62330000D02*
X46323000Y-62330000D01*
X39783000Y-59590000D02*
X39783000Y-62330000D01*
X47093000Y-57785000D02*
X46323000Y-57785000D01*
X39013000Y-57785000D02*
X39783000Y-57785000D01*
X46323000Y-56415000D02*
X39783000Y-56415000D01*
X46323000Y-59155000D02*
X46323000Y-56415000D01*
X39783000Y-59155000D02*
X46323000Y-59155000D01*
X39783000Y-56415000D02*
X39783000Y-59155000D01*
X32833000Y-74616000D02*
X34163000Y-74616000D01*
X32833000Y-75946000D02*
X32833000Y-74616000D01*
X32833000Y-77216000D02*
X35493000Y-77216000D01*
X35493000Y-77216000D02*
X35493000Y-79816000D01*
X32833000Y-77216000D02*
X32833000Y-79816000D01*
X32833000Y-79816000D02*
X35493000Y-79816000D01*
X98358000Y-54610000D02*
X98358000Y-55940000D01*
X98358000Y-55940000D02*
X97028000Y-55940000D01*
X98358000Y-53340000D02*
X95758000Y-53340000D01*
X95758000Y-53340000D02*
X95758000Y-55940000D01*
X95758000Y-55940000D02*
X80458000Y-55940000D01*
X80458000Y-50740000D02*
X80458000Y-55940000D01*
X98358000Y-50740000D02*
X80458000Y-50740000D01*
X98358000Y-50740000D02*
X98358000Y-53340000D01*
X121980000Y-54610000D02*
X121980000Y-55940000D01*
X121980000Y-55940000D02*
X120650000Y-55940000D01*
X121980000Y-53340000D02*
X119380000Y-53340000D01*
X119380000Y-53340000D02*
X119380000Y-55940000D01*
X119380000Y-55940000D02*
X104080000Y-55940000D01*
X104080000Y-50740000D02*
X104080000Y-55940000D01*
X121980000Y-50740000D02*
X104080000Y-50740000D01*
X121980000Y-50740000D02*
X121980000Y-53340000D01*
X123952000Y-129346000D02*
X122622000Y-129346000D01*
X122622000Y-129346000D02*
X122622000Y-128016000D01*
X125222000Y-129346000D02*
X125222000Y-126746000D01*
X125222000Y-126746000D02*
X122622000Y-126746000D01*
X122622000Y-126746000D02*
X122622000Y-78426000D01*
X127822000Y-78426000D02*
X122622000Y-78426000D01*
X127822000Y-129346000D02*
X127822000Y-78426000D01*
X127822000Y-129346000D02*
X125222000Y-129346000D01*
X45095000Y-131465000D02*
X45095000Y-134065000D01*
X30395000Y-131465000D02*
X45095000Y-131465000D01*
X45095000Y-140665000D02*
X43195000Y-140665000D01*
X45095000Y-137965000D02*
X45095000Y-140665000D01*
X30395000Y-140665000D02*
X30395000Y-131465000D01*
X39195000Y-140665000D02*
X30395000Y-140665000D01*
X44245000Y-131265000D02*
X45295000Y-131265000D01*
X45295000Y-132315000D02*
X45295000Y-131265000D01*
X52137000Y-63313000D02*
X53467000Y-63313000D01*
X52137000Y-64643000D02*
X52137000Y-63313000D01*
X52137000Y-65913000D02*
X54797000Y-65913000D01*
X54797000Y-65913000D02*
X54797000Y-71053000D01*
X52137000Y-65913000D02*
X52137000Y-71053000D01*
X52137000Y-71053000D02*
X54797000Y-71053000D01*
X47057000Y-52137000D02*
X48387000Y-52137000D01*
X47057000Y-53467000D02*
X47057000Y-52137000D01*
X47057000Y-54737000D02*
X49717000Y-54737000D01*
X49717000Y-54737000D02*
X49717000Y-54797000D01*
X47057000Y-54737000D02*
X47057000Y-54797000D01*
X47057000Y-54797000D02*
X49717000Y-54797000D01*
X75347000Y-144208000D02*
X75347000Y-144052000D01*
X75347000Y-146524000D02*
X75347000Y-146368000D01*
X72745870Y-144208163D02*
G75*
G02*
X74827961Y-144208000I1041130J-1079837D01*
G01*
X72745870Y-146367837D02*
G75*
G03*
X74827961Y-146368000I1041130J1079837D01*
G01*
X72114665Y-144209392D02*
G75*
G02*
X75347000Y-144052484I1672335J-1078608D01*
G01*
X72114665Y-146366608D02*
G75*
G03*
X75347000Y-146523516I1672335J1078608D01*
G01*
X71938000Y-52666000D02*
X71938000Y-52651000D01*
X71938000Y-54791000D02*
X71938000Y-54776000D01*
X76478000Y-52666000D02*
X76478000Y-52651000D01*
X76478000Y-54791000D02*
X76478000Y-54776000D01*
X76478000Y-52651000D02*
X71938000Y-52651000D01*
X76478000Y-54791000D02*
X71938000Y-54791000D01*
X109704000Y-144995000D02*
X109704000Y-144980000D01*
X109704000Y-147120000D02*
X109704000Y-147105000D01*
X114244000Y-144995000D02*
X114244000Y-144980000D01*
X114244000Y-147120000D02*
X114244000Y-147105000D01*
X114244000Y-144980000D02*
X109704000Y-144980000D01*
X114244000Y-147120000D02*
X109704000Y-147120000D01*
X77907000Y-80733000D02*
X77907000Y-80718000D01*
X77907000Y-82858000D02*
X77907000Y-82843000D01*
X82447000Y-80733000D02*
X82447000Y-80718000D01*
X82447000Y-82858000D02*
X82447000Y-82843000D01*
X82447000Y-80718000D02*
X77907000Y-80718000D01*
X82447000Y-82858000D02*
X77907000Y-82858000D01*
X97084000Y-144995000D02*
X97084000Y-144980000D01*
X97084000Y-147120000D02*
X97084000Y-147105000D01*
X101624000Y-144995000D02*
X101624000Y-144980000D01*
X101624000Y-147120000D02*
X101624000Y-147105000D01*
X101624000Y-144980000D02*
X97084000Y-144980000D01*
X101624000Y-147120000D02*
X97084000Y-147120000D01*
X83749000Y-144995000D02*
X83749000Y-144980000D01*
X83749000Y-147120000D02*
X83749000Y-147105000D01*
X88289000Y-144995000D02*
X88289000Y-144980000D01*
X88289000Y-147120000D02*
X88289000Y-147105000D01*
X88289000Y-144980000D02*
X83749000Y-144980000D01*
X88289000Y-147120000D02*
X83749000Y-147120000D01*
X111323000Y-82843000D02*
X111323000Y-82858000D01*
X111323000Y-80718000D02*
X111323000Y-80733000D01*
X106783000Y-82843000D02*
X106783000Y-82858000D01*
X106783000Y-80718000D02*
X106783000Y-80733000D01*
X106783000Y-82858000D02*
X111323000Y-82858000D01*
X106783000Y-80718000D02*
X111323000Y-80718000D01*
X35599000Y-88956000D02*
X35614000Y-88956000D01*
X33474000Y-88956000D02*
X33489000Y-88956000D01*
X35599000Y-93496000D02*
X35614000Y-93496000D01*
X33474000Y-93496000D02*
X33489000Y-93496000D01*
X35614000Y-93496000D02*
X35614000Y-88956000D01*
X33474000Y-93496000D02*
X33474000Y-88956000D01*
X48085000Y-148159698D02*
X48885000Y-148159698D01*
X48485000Y-148559698D02*
X48485000Y-147759698D01*
X50267000Y-140069000D02*
X51333000Y-140069000D01*
X50032000Y-140109000D02*
X51568000Y-140109000D01*
X49852000Y-140149000D02*
X51748000Y-140149000D01*
X49702000Y-140189000D02*
X51898000Y-140189000D01*
X49571000Y-140229000D02*
X52029000Y-140229000D01*
X49454000Y-140269000D02*
X52146000Y-140269000D01*
X49347000Y-140309000D02*
X52253000Y-140309000D01*
X49248000Y-140349000D02*
X52352000Y-140349000D01*
X49155000Y-140389000D02*
X52445000Y-140389000D01*
X49069000Y-140429000D02*
X52531000Y-140429000D01*
X48987000Y-140469000D02*
X52613000Y-140469000D01*
X48910000Y-140509000D02*
X52690000Y-140509000D01*
X48836000Y-140549000D02*
X52764000Y-140549000D01*
X48766000Y-140589000D02*
X52834000Y-140589000D01*
X48698000Y-140629000D02*
X52902000Y-140629000D01*
X48634000Y-140669000D02*
X52966000Y-140669000D01*
X48572000Y-140709000D02*
X53028000Y-140709000D01*
X48513000Y-140749000D02*
X53087000Y-140749000D01*
X48455000Y-140789000D02*
X53145000Y-140789000D01*
X48400000Y-140829000D02*
X53200000Y-140829000D01*
X48346000Y-140869000D02*
X53254000Y-140869000D01*
X48295000Y-140909000D02*
X53305000Y-140909000D01*
X48244000Y-140949000D02*
X53356000Y-140949000D01*
X48196000Y-140989000D02*
X53404000Y-140989000D01*
X48149000Y-141029000D02*
X53451000Y-141029000D01*
X48103000Y-141069000D02*
X53497000Y-141069000D01*
X48059000Y-141109000D02*
X53541000Y-141109000D01*
X48016000Y-141149000D02*
X53584000Y-141149000D01*
X47974000Y-141189000D02*
X53626000Y-141189000D01*
X51840000Y-141229000D02*
X53667000Y-141229000D01*
X47933000Y-141229000D02*
X49760000Y-141229000D01*
X51840000Y-141269000D02*
X53707000Y-141269000D01*
X47893000Y-141269000D02*
X49760000Y-141269000D01*
X51840000Y-141309000D02*
X53745000Y-141309000D01*
X47855000Y-141309000D02*
X49760000Y-141309000D01*
X51840000Y-141349000D02*
X53783000Y-141349000D01*
X47817000Y-141349000D02*
X49760000Y-141349000D01*
X51840000Y-141389000D02*
X53819000Y-141389000D01*
X47781000Y-141389000D02*
X49760000Y-141389000D01*
X51840000Y-141429000D02*
X53855000Y-141429000D01*
X47745000Y-141429000D02*
X49760000Y-141429000D01*
X51840000Y-141469000D02*
X53890000Y-141469000D01*
X47710000Y-141469000D02*
X49760000Y-141469000D01*
X51840000Y-141509000D02*
X53924000Y-141509000D01*
X47676000Y-141509000D02*
X49760000Y-141509000D01*
X51840000Y-141549000D02*
X53956000Y-141549000D01*
X47644000Y-141549000D02*
X49760000Y-141549000D01*
X51840000Y-141589000D02*
X53989000Y-141589000D01*
X47611000Y-141589000D02*
X49760000Y-141589000D01*
X51840000Y-141629000D02*
X54020000Y-141629000D01*
X47580000Y-141629000D02*
X49760000Y-141629000D01*
X51840000Y-141669000D02*
X54050000Y-141669000D01*
X47550000Y-141669000D02*
X49760000Y-141669000D01*
X51840000Y-141709000D02*
X54080000Y-141709000D01*
X47520000Y-141709000D02*
X49760000Y-141709000D01*
X51840000Y-141749000D02*
X54109000Y-141749000D01*
X47491000Y-141749000D02*
X49760000Y-141749000D01*
X51840000Y-141789000D02*
X54138000Y-141789000D01*
X47462000Y-141789000D02*
X49760000Y-141789000D01*
X51840000Y-141829000D02*
X54165000Y-141829000D01*
X47435000Y-141829000D02*
X49760000Y-141829000D01*
X51840000Y-141869000D02*
X54192000Y-141869000D01*
X47408000Y-141869000D02*
X49760000Y-141869000D01*
X51840000Y-141909000D02*
X54218000Y-141909000D01*
X47382000Y-141909000D02*
X49760000Y-141909000D01*
X51840000Y-141949000D02*
X54244000Y-141949000D01*
X47356000Y-141949000D02*
X49760000Y-141949000D01*
X51840000Y-141989000D02*
X54269000Y-141989000D01*
X47331000Y-141989000D02*
X49760000Y-141989000D01*
X51840000Y-142029000D02*
X54293000Y-142029000D01*
X47307000Y-142029000D02*
X49760000Y-142029000D01*
X51840000Y-142069000D02*
X54317000Y-142069000D01*
X47283000Y-142069000D02*
X49760000Y-142069000D01*
X51840000Y-142109000D02*
X54340000Y-142109000D01*
X47260000Y-142109000D02*
X49760000Y-142109000D01*
X51840000Y-142149000D02*
X54362000Y-142149000D01*
X47238000Y-142149000D02*
X49760000Y-142149000D01*
X51840000Y-142189000D02*
X54384000Y-142189000D01*
X47216000Y-142189000D02*
X49760000Y-142189000D01*
X51840000Y-142229000D02*
X54406000Y-142229000D01*
X47194000Y-142229000D02*
X49760000Y-142229000D01*
X51840000Y-142269000D02*
X54427000Y-142269000D01*
X47173000Y-142269000D02*
X49760000Y-142269000D01*
X51840000Y-142309000D02*
X54447000Y-142309000D01*
X47153000Y-142309000D02*
X49760000Y-142309000D01*
X51840000Y-142349000D02*
X54466000Y-142349000D01*
X47134000Y-142349000D02*
X49760000Y-142349000D01*
X51840000Y-142389000D02*
X54486000Y-142389000D01*
X47114000Y-142389000D02*
X49760000Y-142389000D01*
X51840000Y-142429000D02*
X54504000Y-142429000D01*
X47096000Y-142429000D02*
X49760000Y-142429000D01*
X51840000Y-142469000D02*
X54522000Y-142469000D01*
X47078000Y-142469000D02*
X49760000Y-142469000D01*
X51840000Y-142509000D02*
X54540000Y-142509000D01*
X47060000Y-142509000D02*
X49760000Y-142509000D01*
X51840000Y-142549000D02*
X54557000Y-142549000D01*
X47043000Y-142549000D02*
X49760000Y-142549000D01*
X51840000Y-142589000D02*
X54574000Y-142589000D01*
X47026000Y-142589000D02*
X49760000Y-142589000D01*
X51840000Y-142629000D02*
X54590000Y-142629000D01*
X47010000Y-142629000D02*
X49760000Y-142629000D01*
X51840000Y-142669000D02*
X54605000Y-142669000D01*
X46995000Y-142669000D02*
X49760000Y-142669000D01*
X51840000Y-142709000D02*
X54621000Y-142709000D01*
X46979000Y-142709000D02*
X49760000Y-142709000D01*
X51840000Y-142749000D02*
X54635000Y-142749000D01*
X46965000Y-142749000D02*
X49760000Y-142749000D01*
X51840000Y-142789000D02*
X54650000Y-142789000D01*
X46950000Y-142789000D02*
X49760000Y-142789000D01*
X51840000Y-142829000D02*
X54663000Y-142829000D01*
X46937000Y-142829000D02*
X49760000Y-142829000D01*
X51840000Y-142869000D02*
X54677000Y-142869000D01*
X46923000Y-142869000D02*
X49760000Y-142869000D01*
X51840000Y-142909000D02*
X54689000Y-142909000D01*
X46911000Y-142909000D02*
X49760000Y-142909000D01*
X51840000Y-142949000D02*
X54702000Y-142949000D01*
X46898000Y-142949000D02*
X49760000Y-142949000D01*
X51840000Y-142989000D02*
X54714000Y-142989000D01*
X46886000Y-142989000D02*
X49760000Y-142989000D01*
X51840000Y-143029000D02*
X54725000Y-143029000D01*
X46875000Y-143029000D02*
X49760000Y-143029000D01*
X51840000Y-143069000D02*
X54736000Y-143069000D01*
X46864000Y-143069000D02*
X49760000Y-143069000D01*
X51840000Y-143109000D02*
X54747000Y-143109000D01*
X46853000Y-143109000D02*
X49760000Y-143109000D01*
X51840000Y-143149000D02*
X54757000Y-143149000D01*
X46843000Y-143149000D02*
X49760000Y-143149000D01*
X51840000Y-143189000D02*
X54767000Y-143189000D01*
X46833000Y-143189000D02*
X49760000Y-143189000D01*
X51840000Y-143229000D02*
X54776000Y-143229000D01*
X46824000Y-143229000D02*
X49760000Y-143229000D01*
X51840000Y-143269000D02*
X54785000Y-143269000D01*
X46815000Y-143269000D02*
X49760000Y-143269000D01*
X46806000Y-143309000D02*
X54794000Y-143309000D01*
X46798000Y-143349000D02*
X54802000Y-143349000D01*
X46790000Y-143389000D02*
X54810000Y-143389000D01*
X46783000Y-143429000D02*
X54817000Y-143429000D01*
X46776000Y-143470000D02*
X54824000Y-143470000D01*
X46770000Y-143510000D02*
X54830000Y-143510000D01*
X46763000Y-143550000D02*
X54837000Y-143550000D01*
X46758000Y-143590000D02*
X54842000Y-143590000D01*
X46752000Y-143630000D02*
X54848000Y-143630000D01*
X46748000Y-143670000D02*
X54852000Y-143670000D01*
X46743000Y-143710000D02*
X54857000Y-143710000D01*
X46739000Y-143750000D02*
X54861000Y-143750000D01*
X46735000Y-143790000D02*
X54865000Y-143790000D01*
X46732000Y-143830000D02*
X54868000Y-143830000D01*
X46729000Y-143870000D02*
X54871000Y-143870000D01*
X46726000Y-143910000D02*
X54874000Y-143910000D01*
X46724000Y-143950000D02*
X54876000Y-143950000D01*
X46723000Y-143990000D02*
X54877000Y-143990000D01*
X46721000Y-144030000D02*
X54879000Y-144030000D01*
X46720000Y-144070000D02*
X54880000Y-144070000D01*
X46720000Y-144110000D02*
X54880000Y-144110000D01*
X46720000Y-144150000D02*
X54880000Y-144150000D01*
X54920000Y-144150000D02*
G75*
G03*
X54920000Y-144150000I-4120000J0D01*
G01*
D11*
X62282166Y-139914261D02*
X62425023Y-139961880D01*
X62663119Y-139961880D01*
X62758357Y-139914261D01*
X62805976Y-139866642D01*
X62853595Y-139771404D01*
X62853595Y-139676166D01*
X62805976Y-139580928D01*
X62758357Y-139533309D01*
X62663119Y-139485690D01*
X62472642Y-139438071D01*
X62377404Y-139390452D01*
X62329785Y-139342833D01*
X62282166Y-139247595D01*
X62282166Y-139152357D01*
X62329785Y-139057119D01*
X62377404Y-139009500D01*
X62472642Y-138961880D01*
X62710738Y-138961880D01*
X62853595Y-139009500D01*
X63186928Y-138961880D02*
X63425023Y-139961880D01*
X63615500Y-139247595D01*
X63805976Y-139961880D01*
X64044071Y-138961880D01*
X64948833Y-139961880D02*
X64377404Y-139961880D01*
X64663119Y-139961880D02*
X64663119Y-138961880D01*
X64567880Y-139104738D01*
X64472642Y-139199976D01*
X64377404Y-139247595D01*
X62174619Y-148915380D02*
X61841285Y-148439190D01*
X61603190Y-148915380D02*
X61603190Y-147915380D01*
X61984142Y-147915380D01*
X62079380Y-147963000D01*
X62127000Y-148010619D01*
X62174619Y-148105857D01*
X62174619Y-148248714D01*
X62127000Y-148343952D01*
X62079380Y-148391571D01*
X61984142Y-148439190D01*
X61603190Y-148439190D01*
X62603190Y-148391571D02*
X62936523Y-148391571D01*
X63079380Y-148915380D02*
X62603190Y-148915380D01*
X62603190Y-147915380D01*
X63079380Y-147915380D01*
X63460333Y-148867761D02*
X63603190Y-148915380D01*
X63841285Y-148915380D01*
X63936523Y-148867761D01*
X63984142Y-148820142D01*
X64031761Y-148724904D01*
X64031761Y-148629666D01*
X63984142Y-148534428D01*
X63936523Y-148486809D01*
X63841285Y-148439190D01*
X63650809Y-148391571D01*
X63555571Y-148343952D01*
X63507952Y-148296333D01*
X63460333Y-148201095D01*
X63460333Y-148105857D01*
X63507952Y-148010619D01*
X63555571Y-147963000D01*
X63650809Y-147915380D01*
X63888904Y-147915380D01*
X64031761Y-147963000D01*
X64460333Y-148391571D02*
X64793666Y-148391571D01*
X64936523Y-148915380D02*
X64460333Y-148915380D01*
X64460333Y-147915380D01*
X64936523Y-147915380D01*
X65222238Y-147915380D02*
X65793666Y-147915380D01*
X65507952Y-148915380D02*
X65507952Y-147915380D01*
X70148380Y-62277523D02*
X71148380Y-61610857D01*
X70148380Y-61610857D02*
X71148380Y-62277523D01*
X71148380Y-60706095D02*
X71148380Y-61277523D01*
X71148380Y-60991809D02*
X70148380Y-60991809D01*
X70291238Y-61087047D01*
X70386476Y-61182285D01*
X70434095Y-61277523D01*
X62047571Y-72477380D02*
X62238047Y-72477380D01*
X62333285Y-72525000D01*
X62428523Y-72620238D01*
X62476142Y-72810714D01*
X62476142Y-73144047D01*
X62428523Y-73334523D01*
X62333285Y-73429761D01*
X62238047Y-73477380D01*
X62047571Y-73477380D01*
X61952333Y-73429761D01*
X61857095Y-73334523D01*
X61809476Y-73144047D01*
X61809476Y-72810714D01*
X61857095Y-72620238D01*
X61952333Y-72525000D01*
X62047571Y-72477380D01*
X62857095Y-73429761D02*
X62999952Y-73477380D01*
X63238047Y-73477380D01*
X63333285Y-73429761D01*
X63380904Y-73382142D01*
X63428523Y-73286904D01*
X63428523Y-73191666D01*
X63380904Y-73096428D01*
X63333285Y-73048809D01*
X63238047Y-73001190D01*
X63047571Y-72953571D01*
X62952333Y-72905952D01*
X62904714Y-72858333D01*
X62857095Y-72763095D01*
X62857095Y-72667857D01*
X62904714Y-72572619D01*
X62952333Y-72525000D01*
X63047571Y-72477380D01*
X63285666Y-72477380D01*
X63428523Y-72525000D01*
X64428523Y-73382142D02*
X64380904Y-73429761D01*
X64238047Y-73477380D01*
X64142809Y-73477380D01*
X63999952Y-73429761D01*
X63904714Y-73334523D01*
X63857095Y-73239285D01*
X63809476Y-73048809D01*
X63809476Y-72905952D01*
X63857095Y-72715476D01*
X63904714Y-72620238D01*
X63999952Y-72525000D01*
X64142809Y-72477380D01*
X64238047Y-72477380D01*
X64380904Y-72525000D01*
X64428523Y-72572619D01*
X123829380Y-67817904D02*
X124638904Y-67817904D01*
X124734142Y-67770285D01*
X124781761Y-67722666D01*
X124829380Y-67627428D01*
X124829380Y-67436952D01*
X124781761Y-67341714D01*
X124734142Y-67294095D01*
X124638904Y-67246476D01*
X123829380Y-67246476D01*
X123829380Y-66865523D02*
X123829380Y-66198857D01*
X124829380Y-66627428D01*
X70909380Y-70389333D02*
X71909380Y-70151238D01*
X71195095Y-69960761D01*
X71909380Y-69770285D01*
X70909380Y-69532190D01*
X71909380Y-69151238D02*
X70909380Y-69151238D01*
X70909380Y-68913142D01*
X70957000Y-68770285D01*
X71052238Y-68675047D01*
X71147476Y-68627428D01*
X71337952Y-68579809D01*
X71480809Y-68579809D01*
X71671285Y-68627428D01*
X71766523Y-68675047D01*
X71861761Y-68770285D01*
X71909380Y-68913142D01*
X71909380Y-69151238D01*
X70909380Y-67722666D02*
X70909380Y-67913142D01*
X70957000Y-68008380D01*
X71004619Y-68056000D01*
X71147476Y-68151238D01*
X71337952Y-68198857D01*
X71718904Y-68198857D01*
X71814142Y-68151238D01*
X71861761Y-68103619D01*
X71909380Y-68008380D01*
X71909380Y-67817904D01*
X71861761Y-67722666D01*
X71814142Y-67675047D01*
X71718904Y-67627428D01*
X71480809Y-67627428D01*
X71385571Y-67675047D01*
X71337952Y-67722666D01*
X71290333Y-67817904D01*
X71290333Y-68008380D01*
X71337952Y-68103619D01*
X71385571Y-68151238D01*
X71480809Y-68198857D01*
X70909380Y-66722666D02*
X70909380Y-67198857D01*
X71385571Y-67246476D01*
X71337952Y-67198857D01*
X71290333Y-67103619D01*
X71290333Y-66865523D01*
X71337952Y-66770285D01*
X71385571Y-66722666D01*
X71480809Y-66675047D01*
X71718904Y-66675047D01*
X71814142Y-66722666D01*
X71861761Y-66770285D01*
X71909380Y-66865523D01*
X71909380Y-67103619D01*
X71861761Y-67198857D01*
X71814142Y-67246476D01*
X71814142Y-65675047D02*
X71861761Y-65722666D01*
X71909380Y-65865523D01*
X71909380Y-65960761D01*
X71861761Y-66103619D01*
X71766523Y-66198857D01*
X71671285Y-66246476D01*
X71480809Y-66294095D01*
X71337952Y-66294095D01*
X71147476Y-66246476D01*
X71052238Y-66198857D01*
X70957000Y-66103619D01*
X70909380Y-65960761D01*
X70909380Y-65865523D01*
X70957000Y-65722666D01*
X71004619Y-65675047D01*
X71004619Y-65294095D02*
X70957000Y-65246476D01*
X70909380Y-65151238D01*
X70909380Y-64913142D01*
X70957000Y-64817904D01*
X71004619Y-64770285D01*
X71099857Y-64722666D01*
X71195095Y-64722666D01*
X71337952Y-64770285D01*
X71909380Y-65341714D01*
X71909380Y-64722666D01*
X71004619Y-64341714D02*
X70957000Y-64294095D01*
X70909380Y-64198857D01*
X70909380Y-63960761D01*
X70957000Y-63865523D01*
X71004619Y-63817904D01*
X71099857Y-63770285D01*
X71195095Y-63770285D01*
X71337952Y-63817904D01*
X71909380Y-64389333D01*
X71909380Y-63770285D01*
X111252095Y-122852380D02*
X111252095Y-123661904D01*
X111299714Y-123757142D01*
X111347333Y-123804761D01*
X111442571Y-123852380D01*
X111633047Y-123852380D01*
X111728285Y-123804761D01*
X111775904Y-123757142D01*
X111823523Y-123661904D01*
X111823523Y-122852380D01*
X112728285Y-122852380D02*
X112537809Y-122852380D01*
X112442571Y-122900000D01*
X112394952Y-122947619D01*
X112299714Y-123090476D01*
X112252095Y-123280952D01*
X112252095Y-123661904D01*
X112299714Y-123757142D01*
X112347333Y-123804761D01*
X112442571Y-123852380D01*
X112633047Y-123852380D01*
X112728285Y-123804761D01*
X112775904Y-123757142D01*
X112823523Y-123661904D01*
X112823523Y-123423809D01*
X112775904Y-123328571D01*
X112728285Y-123280952D01*
X112633047Y-123233333D01*
X112442571Y-123233333D01*
X112347333Y-123280952D01*
X112299714Y-123328571D01*
X112252095Y-123423809D01*
X109371142Y-142752380D02*
X110037809Y-142752380D01*
X109609238Y-143752380D01*
X110847333Y-143085714D02*
X110847333Y-143752380D01*
X110609238Y-142704761D02*
X110371142Y-143419047D01*
X110990190Y-143419047D01*
X111847333Y-143752380D02*
X111371142Y-143752380D01*
X111371142Y-142752380D01*
X112133047Y-143704761D02*
X112275904Y-143752380D01*
X112514000Y-143752380D01*
X112609238Y-143704761D01*
X112656857Y-143657142D01*
X112704476Y-143561904D01*
X112704476Y-143466666D01*
X112656857Y-143371428D01*
X112609238Y-143323809D01*
X112514000Y-143276190D01*
X112323523Y-143228571D01*
X112228285Y-143180952D01*
X112180666Y-143133333D01*
X112133047Y-143038095D01*
X112133047Y-142942857D01*
X112180666Y-142847619D01*
X112228285Y-142800000D01*
X112323523Y-142752380D01*
X112561619Y-142752380D01*
X112704476Y-142800000D01*
X113085428Y-142847619D02*
X113133047Y-142800000D01*
X113228285Y-142752380D01*
X113466380Y-142752380D01*
X113561619Y-142800000D01*
X113609238Y-142847619D01*
X113656857Y-142942857D01*
X113656857Y-143038095D01*
X113609238Y-143180952D01*
X113037809Y-143752380D01*
X113656857Y-143752380D01*
X114609238Y-143752380D02*
X114037809Y-143752380D01*
X114323523Y-143752380D02*
X114323523Y-142752380D01*
X114228285Y-142895238D01*
X114133047Y-142990476D01*
X114037809Y-143038095D01*
X62992095Y-131147380D02*
X62992095Y-131956904D01*
X63039714Y-132052142D01*
X63087333Y-132099761D01*
X63182571Y-132147380D01*
X63373047Y-132147380D01*
X63468285Y-132099761D01*
X63515904Y-132052142D01*
X63563523Y-131956904D01*
X63563523Y-131147380D01*
X64182571Y-131575952D02*
X64087333Y-131528333D01*
X64039714Y-131480714D01*
X63992095Y-131385476D01*
X63992095Y-131337857D01*
X64039714Y-131242619D01*
X64087333Y-131195000D01*
X64182571Y-131147380D01*
X64373047Y-131147380D01*
X64468285Y-131195000D01*
X64515904Y-131242619D01*
X64563523Y-131337857D01*
X64563523Y-131385476D01*
X64515904Y-131480714D01*
X64468285Y-131528333D01*
X64373047Y-131575952D01*
X64182571Y-131575952D01*
X64087333Y-131623571D01*
X64039714Y-131671190D01*
X63992095Y-131766428D01*
X63992095Y-131956904D01*
X64039714Y-132052142D01*
X64087333Y-132099761D01*
X64182571Y-132147380D01*
X64373047Y-132147380D01*
X64468285Y-132099761D01*
X64515904Y-132052142D01*
X64563523Y-131956904D01*
X64563523Y-131766428D01*
X64515904Y-131671190D01*
X64468285Y-131623571D01*
X64373047Y-131575952D01*
X98552095Y-122852380D02*
X98552095Y-123661904D01*
X98599714Y-123757142D01*
X98647333Y-123804761D01*
X98742571Y-123852380D01*
X98933047Y-123852380D01*
X99028285Y-123804761D01*
X99075904Y-123757142D01*
X99123523Y-123661904D01*
X99123523Y-122852380D01*
X100075904Y-122852380D02*
X99599714Y-122852380D01*
X99552095Y-123328571D01*
X99599714Y-123280952D01*
X99694952Y-123233333D01*
X99933047Y-123233333D01*
X100028285Y-123280952D01*
X100075904Y-123328571D01*
X100123523Y-123423809D01*
X100123523Y-123661904D01*
X100075904Y-123757142D01*
X100028285Y-123804761D01*
X99933047Y-123852380D01*
X99694952Y-123852380D01*
X99599714Y-123804761D01*
X99552095Y-123757142D01*
X96147333Y-142752380D02*
X96814000Y-142752380D01*
X96385428Y-143752380D01*
X97623523Y-143085714D02*
X97623523Y-143752380D01*
X97385428Y-142704761D02*
X97147333Y-143419047D01*
X97766380Y-143419047D01*
X98147333Y-143752380D02*
X98147333Y-142752380D01*
X98147333Y-143228571D02*
X98718761Y-143228571D01*
X98718761Y-143752380D02*
X98718761Y-142752380D01*
X99766380Y-143657142D02*
X99718761Y-143704761D01*
X99575904Y-143752380D01*
X99480666Y-143752380D01*
X99337809Y-143704761D01*
X99242571Y-143609523D01*
X99194952Y-143514285D01*
X99147333Y-143323809D01*
X99147333Y-143180952D01*
X99194952Y-142990476D01*
X99242571Y-142895238D01*
X99337809Y-142800000D01*
X99480666Y-142752380D01*
X99575904Y-142752380D01*
X99718761Y-142800000D01*
X99766380Y-142847619D01*
X100052095Y-142752380D02*
X100623523Y-142752380D01*
X100337809Y-143752380D02*
X100337809Y-142752380D01*
X101147333Y-142752380D02*
X101242571Y-142752380D01*
X101337809Y-142800000D01*
X101385428Y-142847619D01*
X101433047Y-142942857D01*
X101480666Y-143133333D01*
X101480666Y-143371428D01*
X101433047Y-143561904D01*
X101385428Y-143657142D01*
X101337809Y-143704761D01*
X101242571Y-143752380D01*
X101147333Y-143752380D01*
X101052095Y-143704761D01*
X101004476Y-143657142D01*
X100956857Y-143561904D01*
X100909238Y-143371428D01*
X100909238Y-143133333D01*
X100956857Y-142942857D01*
X101004476Y-142847619D01*
X101052095Y-142800000D01*
X101147333Y-142752380D01*
X101861619Y-142847619D02*
X101909238Y-142800000D01*
X102004476Y-142752380D01*
X102242571Y-142752380D01*
X102337809Y-142800000D01*
X102385428Y-142847619D01*
X102433047Y-142942857D01*
X102433047Y-143038095D01*
X102385428Y-143180952D01*
X101814000Y-143752380D01*
X102433047Y-143752380D01*
X85217095Y-122852380D02*
X85217095Y-123661904D01*
X85264714Y-123757142D01*
X85312333Y-123804761D01*
X85407571Y-123852380D01*
X85598047Y-123852380D01*
X85693285Y-123804761D01*
X85740904Y-123757142D01*
X85788523Y-123661904D01*
X85788523Y-122852380D01*
X86693285Y-123185714D02*
X86693285Y-123852380D01*
X86455190Y-122804761D02*
X86217095Y-123519047D01*
X86836142Y-123519047D01*
X82812333Y-142752380D02*
X83479000Y-142752380D01*
X83050428Y-143752380D01*
X84288523Y-143085714D02*
X84288523Y-143752380D01*
X84050428Y-142704761D02*
X83812333Y-143419047D01*
X84431380Y-143419047D01*
X84812333Y-143752380D02*
X84812333Y-142752380D01*
X84812333Y-143228571D02*
X85383761Y-143228571D01*
X85383761Y-143752380D02*
X85383761Y-142752380D01*
X86431380Y-143657142D02*
X86383761Y-143704761D01*
X86240904Y-143752380D01*
X86145666Y-143752380D01*
X86002809Y-143704761D01*
X85907571Y-143609523D01*
X85859952Y-143514285D01*
X85812333Y-143323809D01*
X85812333Y-143180952D01*
X85859952Y-142990476D01*
X85907571Y-142895238D01*
X86002809Y-142800000D01*
X86145666Y-142752380D01*
X86240904Y-142752380D01*
X86383761Y-142800000D01*
X86431380Y-142847619D01*
X86717095Y-142752380D02*
X87288523Y-142752380D01*
X87002809Y-143752380D02*
X87002809Y-142752380D01*
X87812333Y-142752380D02*
X87907571Y-142752380D01*
X88002809Y-142800000D01*
X88050428Y-142847619D01*
X88098047Y-142942857D01*
X88145666Y-143133333D01*
X88145666Y-143371428D01*
X88098047Y-143561904D01*
X88050428Y-143657142D01*
X88002809Y-143704761D01*
X87907571Y-143752380D01*
X87812333Y-143752380D01*
X87717095Y-143704761D01*
X87669476Y-143657142D01*
X87621857Y-143561904D01*
X87574238Y-143371428D01*
X87574238Y-143133333D01*
X87621857Y-142942857D01*
X87669476Y-142847619D01*
X87717095Y-142800000D01*
X87812333Y-142752380D01*
X88764714Y-142752380D02*
X88859952Y-142752380D01*
X88955190Y-142800000D01*
X89002809Y-142847619D01*
X89050428Y-142942857D01*
X89098047Y-143133333D01*
X89098047Y-143371428D01*
X89050428Y-143561904D01*
X89002809Y-143657142D01*
X88955190Y-143704761D01*
X88859952Y-143752380D01*
X88764714Y-143752380D01*
X88669476Y-143704761D01*
X88621857Y-143657142D01*
X88574238Y-143561904D01*
X88526619Y-143371428D01*
X88526619Y-143133333D01*
X88574238Y-142942857D01*
X88621857Y-142847619D01*
X88669476Y-142800000D01*
X88764714Y-142752380D01*
X98171095Y-83482380D02*
X98171095Y-84291904D01*
X98218714Y-84387142D01*
X98266333Y-84434761D01*
X98361571Y-84482380D01*
X98552047Y-84482380D01*
X98647285Y-84434761D01*
X98694904Y-84387142D01*
X98742523Y-84291904D01*
X98742523Y-83482380D01*
X99123476Y-83482380D02*
X99742523Y-83482380D01*
X99409190Y-83863333D01*
X99552047Y-83863333D01*
X99647285Y-83910952D01*
X99694904Y-83958571D01*
X99742523Y-84053809D01*
X99742523Y-84291904D01*
X99694904Y-84387142D01*
X99647285Y-84434761D01*
X99552047Y-84482380D01*
X99266333Y-84482380D01*
X99171095Y-84434761D01*
X99123476Y-84387142D01*
X95480619Y-122162380D02*
X95147285Y-121686190D01*
X94909190Y-122162380D02*
X94909190Y-121162380D01*
X95290142Y-121162380D01*
X95385380Y-121210000D01*
X95433000Y-121257619D01*
X95480619Y-121352857D01*
X95480619Y-121495714D01*
X95433000Y-121590952D01*
X95385380Y-121638571D01*
X95290142Y-121686190D01*
X94909190Y-121686190D01*
X95861571Y-121876666D02*
X96337761Y-121876666D01*
X95766333Y-122162380D02*
X96099666Y-121162380D01*
X96433000Y-122162380D01*
X96766333Y-122162380D02*
X96766333Y-121162380D01*
X97099666Y-121876666D01*
X97433000Y-121162380D01*
X97433000Y-122162380D01*
X99099666Y-121162380D02*
X98909190Y-121162380D01*
X98813952Y-121210000D01*
X98766333Y-121257619D01*
X98671095Y-121400476D01*
X98623476Y-121590952D01*
X98623476Y-121971904D01*
X98671095Y-122067142D01*
X98718714Y-122114761D01*
X98813952Y-122162380D01*
X99004428Y-122162380D01*
X99099666Y-122114761D01*
X99147285Y-122067142D01*
X99194904Y-121971904D01*
X99194904Y-121733809D01*
X99147285Y-121638571D01*
X99099666Y-121590952D01*
X99004428Y-121543333D01*
X98813952Y-121543333D01*
X98718714Y-121590952D01*
X98671095Y-121638571D01*
X98623476Y-121733809D01*
X99575857Y-121257619D02*
X99623476Y-121210000D01*
X99718714Y-121162380D01*
X99956809Y-121162380D01*
X100052047Y-121210000D01*
X100099666Y-121257619D01*
X100147285Y-121352857D01*
X100147285Y-121448095D01*
X100099666Y-121590952D01*
X99528238Y-122162380D01*
X100147285Y-122162380D01*
X100528238Y-121257619D02*
X100575857Y-121210000D01*
X100671095Y-121162380D01*
X100909190Y-121162380D01*
X101004428Y-121210000D01*
X101052047Y-121257619D01*
X101099666Y-121352857D01*
X101099666Y-121448095D01*
X101052047Y-121590952D01*
X100480619Y-122162380D01*
X101099666Y-122162380D01*
X102004428Y-121162380D02*
X101528238Y-121162380D01*
X101480619Y-121638571D01*
X101528238Y-121590952D01*
X101623476Y-121543333D01*
X101861571Y-121543333D01*
X101956809Y-121590952D01*
X102004428Y-121638571D01*
X102052047Y-121733809D01*
X102052047Y-121971904D01*
X102004428Y-122067142D01*
X101956809Y-122114761D01*
X101861571Y-122162380D01*
X101623476Y-122162380D01*
X101528238Y-122114761D01*
X101480619Y-122067142D01*
X102909190Y-121162380D02*
X102718714Y-121162380D01*
X102623476Y-121210000D01*
X102575857Y-121257619D01*
X102480619Y-121400476D01*
X102433000Y-121590952D01*
X102433000Y-121971904D01*
X102480619Y-122067142D01*
X102528238Y-122114761D01*
X102623476Y-122162380D01*
X102813952Y-122162380D01*
X102909190Y-122114761D01*
X102956809Y-122067142D01*
X103004428Y-121971904D01*
X103004428Y-121733809D01*
X102956809Y-121638571D01*
X102909190Y-121590952D01*
X102813952Y-121543333D01*
X102623476Y-121543333D01*
X102528238Y-121590952D01*
X102480619Y-121638571D01*
X102433000Y-121733809D01*
X44958095Y-73068380D02*
X44958095Y-73877904D01*
X45005714Y-73973142D01*
X45053333Y-74020761D01*
X45148571Y-74068380D01*
X45339047Y-74068380D01*
X45434285Y-74020761D01*
X45481904Y-73973142D01*
X45529523Y-73877904D01*
X45529523Y-73068380D01*
X46529523Y-74068380D02*
X45958095Y-74068380D01*
X46243809Y-74068380D02*
X46243809Y-73068380D01*
X46148571Y-73211238D01*
X46053333Y-73306476D01*
X45958095Y-73354095D01*
X44481904Y-125988380D02*
X44291428Y-125988380D01*
X44196190Y-126036000D01*
X44148571Y-126083619D01*
X44053333Y-126226476D01*
X44005714Y-126416952D01*
X44005714Y-126797904D01*
X44053333Y-126893142D01*
X44100952Y-126940761D01*
X44196190Y-126988380D01*
X44386666Y-126988380D01*
X44481904Y-126940761D01*
X44529523Y-126893142D01*
X44577142Y-126797904D01*
X44577142Y-126559809D01*
X44529523Y-126464571D01*
X44481904Y-126416952D01*
X44386666Y-126369333D01*
X44196190Y-126369333D01*
X44100952Y-126416952D01*
X44053333Y-126464571D01*
X44005714Y-126559809D01*
X45481904Y-125988380D02*
X45005714Y-125988380D01*
X44958095Y-126464571D01*
X45005714Y-126416952D01*
X45100952Y-126369333D01*
X45339047Y-126369333D01*
X45434285Y-126416952D01*
X45481904Y-126464571D01*
X45529523Y-126559809D01*
X45529523Y-126797904D01*
X45481904Y-126893142D01*
X45434285Y-126940761D01*
X45339047Y-126988380D01*
X45100952Y-126988380D01*
X45005714Y-126940761D01*
X44958095Y-126893142D01*
X46148571Y-125988380D02*
X46243809Y-125988380D01*
X46339047Y-126036000D01*
X46386666Y-126083619D01*
X46434285Y-126178857D01*
X46481904Y-126369333D01*
X46481904Y-126607428D01*
X46434285Y-126797904D01*
X46386666Y-126893142D01*
X46339047Y-126940761D01*
X46243809Y-126988380D01*
X46148571Y-126988380D01*
X46053333Y-126940761D01*
X46005714Y-126893142D01*
X45958095Y-126797904D01*
X45910476Y-126607428D01*
X45910476Y-126369333D01*
X45958095Y-126178857D01*
X46005714Y-126083619D01*
X46053333Y-126036000D01*
X46148571Y-125988380D01*
X46862857Y-126083619D02*
X46910476Y-126036000D01*
X47005714Y-125988380D01*
X47243809Y-125988380D01*
X47339047Y-126036000D01*
X47386666Y-126083619D01*
X47434285Y-126178857D01*
X47434285Y-126274095D01*
X47386666Y-126416952D01*
X46815238Y-126988380D01*
X47434285Y-126988380D01*
X74295095Y-83482380D02*
X74295095Y-84291904D01*
X74342714Y-84387142D01*
X74390333Y-84434761D01*
X74485571Y-84482380D01*
X74676047Y-84482380D01*
X74771285Y-84434761D01*
X74818904Y-84387142D01*
X74866523Y-84291904D01*
X74866523Y-83482380D01*
X75295095Y-83577619D02*
X75342714Y-83530000D01*
X75437952Y-83482380D01*
X75676047Y-83482380D01*
X75771285Y-83530000D01*
X75818904Y-83577619D01*
X75866523Y-83672857D01*
X75866523Y-83768095D01*
X75818904Y-83910952D01*
X75247476Y-84482380D01*
X75866523Y-84482380D01*
X71009380Y-122162380D02*
X70676047Y-121686190D01*
X70437952Y-122162380D02*
X70437952Y-121162380D01*
X70818904Y-121162380D01*
X70914142Y-121210000D01*
X70961761Y-121257619D01*
X71009380Y-121352857D01*
X71009380Y-121495714D01*
X70961761Y-121590952D01*
X70914142Y-121638571D01*
X70818904Y-121686190D01*
X70437952Y-121686190D01*
X71628428Y-121162380D02*
X71818904Y-121162380D01*
X71914142Y-121210000D01*
X72009380Y-121305238D01*
X72057000Y-121495714D01*
X72057000Y-121829047D01*
X72009380Y-122019523D01*
X71914142Y-122114761D01*
X71818904Y-122162380D01*
X71628428Y-122162380D01*
X71533190Y-122114761D01*
X71437952Y-122019523D01*
X71390333Y-121829047D01*
X71390333Y-121495714D01*
X71437952Y-121305238D01*
X71533190Y-121210000D01*
X71628428Y-121162380D01*
X72485571Y-122162380D02*
X72485571Y-121162380D01*
X72818904Y-121876666D01*
X73152238Y-121162380D01*
X73152238Y-122162380D01*
X74342714Y-121257619D02*
X74390333Y-121210000D01*
X74485571Y-121162380D01*
X74723666Y-121162380D01*
X74818904Y-121210000D01*
X74866523Y-121257619D01*
X74914142Y-121352857D01*
X74914142Y-121448095D01*
X74866523Y-121590952D01*
X74295095Y-122162380D01*
X74914142Y-122162380D01*
X75485571Y-121590952D02*
X75390333Y-121543333D01*
X75342714Y-121495714D01*
X75295095Y-121400476D01*
X75295095Y-121352857D01*
X75342714Y-121257619D01*
X75390333Y-121210000D01*
X75485571Y-121162380D01*
X75676047Y-121162380D01*
X75771285Y-121210000D01*
X75818904Y-121257619D01*
X75866523Y-121352857D01*
X75866523Y-121400476D01*
X75818904Y-121495714D01*
X75771285Y-121543333D01*
X75676047Y-121590952D01*
X75485571Y-121590952D01*
X75390333Y-121638571D01*
X75342714Y-121686190D01*
X75295095Y-121781428D01*
X75295095Y-121971904D01*
X75342714Y-122067142D01*
X75390333Y-122114761D01*
X75485571Y-122162380D01*
X75676047Y-122162380D01*
X75771285Y-122114761D01*
X75818904Y-122067142D01*
X75866523Y-121971904D01*
X75866523Y-121781428D01*
X75818904Y-121686190D01*
X75771285Y-121638571D01*
X75676047Y-121590952D01*
X76866523Y-122067142D02*
X76818904Y-122114761D01*
X76676047Y-122162380D01*
X76580809Y-122162380D01*
X76437952Y-122114761D01*
X76342714Y-122019523D01*
X76295095Y-121924285D01*
X76247476Y-121733809D01*
X76247476Y-121590952D01*
X76295095Y-121400476D01*
X76342714Y-121305238D01*
X76437952Y-121210000D01*
X76580809Y-121162380D01*
X76676047Y-121162380D01*
X76818904Y-121210000D01*
X76866523Y-121257619D01*
X77247476Y-121257619D02*
X77295095Y-121210000D01*
X77390333Y-121162380D01*
X77628428Y-121162380D01*
X77723666Y-121210000D01*
X77771285Y-121257619D01*
X77818904Y-121352857D01*
X77818904Y-121448095D01*
X77771285Y-121590952D01*
X77199857Y-122162380D01*
X77818904Y-122162380D01*
X78723666Y-121162380D02*
X78247476Y-121162380D01*
X78199857Y-121638571D01*
X78247476Y-121590952D01*
X78342714Y-121543333D01*
X78580809Y-121543333D01*
X78676047Y-121590952D01*
X78723666Y-121638571D01*
X78771285Y-121733809D01*
X78771285Y-121971904D01*
X78723666Y-122067142D01*
X78676047Y-122114761D01*
X78580809Y-122162380D01*
X78342714Y-122162380D01*
X78247476Y-122114761D01*
X78199857Y-122067142D01*
X79628428Y-121162380D02*
X79437952Y-121162380D01*
X79342714Y-121210000D01*
X79295095Y-121257619D01*
X79199857Y-121400476D01*
X79152238Y-121590952D01*
X79152238Y-121971904D01*
X79199857Y-122067142D01*
X79247476Y-122114761D01*
X79342714Y-122162380D01*
X79533190Y-122162380D01*
X79628428Y-122114761D01*
X79676047Y-122067142D01*
X79723666Y-121971904D01*
X79723666Y-121733809D01*
X79676047Y-121638571D01*
X79628428Y-121590952D01*
X79533190Y-121543333D01*
X79342714Y-121543333D01*
X79247476Y-121590952D01*
X79199857Y-121638571D01*
X79152238Y-121733809D01*
X55888095Y-130804380D02*
X56459523Y-130804380D01*
X56173809Y-131804380D02*
X56173809Y-130804380D01*
X56792857Y-131804380D02*
X56792857Y-130804380D01*
X57173809Y-130804380D01*
X57269047Y-130852000D01*
X57316666Y-130899619D01*
X57364285Y-130994857D01*
X57364285Y-131137714D01*
X57316666Y-131232952D01*
X57269047Y-131280571D01*
X57173809Y-131328190D01*
X56792857Y-131328190D01*
X57745238Y-130899619D02*
X57792857Y-130852000D01*
X57888095Y-130804380D01*
X58126190Y-130804380D01*
X58221428Y-130852000D01*
X58269047Y-130899619D01*
X58316666Y-130994857D01*
X58316666Y-131090095D01*
X58269047Y-131232952D01*
X57697619Y-131804380D01*
X58316666Y-131804380D01*
X55015095Y-134975000D02*
X56015095Y-134975000D01*
X55824619Y-136342380D02*
X55491285Y-135866190D01*
X55253190Y-136342380D02*
X55253190Y-135342380D01*
X55634142Y-135342380D01*
X55729380Y-135390000D01*
X55777000Y-135437619D01*
X55824619Y-135532857D01*
X55824619Y-135675714D01*
X55777000Y-135770952D01*
X55729380Y-135818571D01*
X55634142Y-135866190D01*
X55253190Y-135866190D01*
X56015095Y-134975000D02*
X56919857Y-134975000D01*
X56253190Y-135818571D02*
X56586523Y-135818571D01*
X56729380Y-136342380D02*
X56253190Y-136342380D01*
X56253190Y-135342380D01*
X56729380Y-135342380D01*
X56919857Y-134975000D02*
X57872238Y-134975000D01*
X57110333Y-136294761D02*
X57253190Y-136342380D01*
X57491285Y-136342380D01*
X57586523Y-136294761D01*
X57634142Y-136247142D01*
X57681761Y-136151904D01*
X57681761Y-136056666D01*
X57634142Y-135961428D01*
X57586523Y-135913809D01*
X57491285Y-135866190D01*
X57300809Y-135818571D01*
X57205571Y-135770952D01*
X57157952Y-135723333D01*
X57110333Y-135628095D01*
X57110333Y-135532857D01*
X57157952Y-135437619D01*
X57205571Y-135390000D01*
X57300809Y-135342380D01*
X57538904Y-135342380D01*
X57681761Y-135390000D01*
X57872238Y-134975000D02*
X58777000Y-134975000D01*
X58110333Y-135818571D02*
X58443666Y-135818571D01*
X58586523Y-136342380D02*
X58110333Y-136342380D01*
X58110333Y-135342380D01*
X58586523Y-135342380D01*
X58777000Y-134975000D02*
X59538904Y-134975000D01*
X58872238Y-135342380D02*
X59443666Y-135342380D01*
X59157952Y-136342380D02*
X59157952Y-135342380D01*
X52205095Y-50921380D02*
X52776523Y-50921380D01*
X52490809Y-51921380D02*
X52490809Y-50921380D01*
X53109857Y-51921380D02*
X53109857Y-50921380D01*
X53490809Y-50921380D01*
X53586047Y-50969000D01*
X53633666Y-51016619D01*
X53681285Y-51111857D01*
X53681285Y-51254714D01*
X53633666Y-51349952D01*
X53586047Y-51397571D01*
X53490809Y-51445190D01*
X53109857Y-51445190D01*
X54633666Y-51921380D02*
X54062238Y-51921380D01*
X54347952Y-51921380D02*
X54347952Y-50921380D01*
X54252714Y-51064238D01*
X54157476Y-51159476D01*
X54062238Y-51207095D01*
X52871761Y-55874142D02*
X52824142Y-55921761D01*
X52681285Y-55969380D01*
X52586047Y-55969380D01*
X52443190Y-55921761D01*
X52347952Y-55826523D01*
X52300333Y-55731285D01*
X52252714Y-55540809D01*
X52252714Y-55397952D01*
X52300333Y-55207476D01*
X52347952Y-55112238D01*
X52443190Y-55017000D01*
X52586047Y-54969380D01*
X52681285Y-54969380D01*
X52824142Y-55017000D01*
X52871761Y-55064619D01*
X53776523Y-55969380D02*
X53300333Y-55969380D01*
X53300333Y-54969380D01*
X54109857Y-55969380D02*
X54109857Y-54969380D01*
X54681285Y-55969380D02*
X54252714Y-55397952D01*
X54681285Y-54969380D02*
X54109857Y-55540809D01*
X75339380Y-135167666D02*
X74863190Y-135501000D01*
X75339380Y-135739095D02*
X74339380Y-135739095D01*
X74339380Y-135358142D01*
X74387000Y-135262904D01*
X74434619Y-135215285D01*
X74529857Y-135167666D01*
X74672714Y-135167666D01*
X74767952Y-135215285D01*
X74815571Y-135262904D01*
X74863190Y-135358142D01*
X74863190Y-135739095D01*
X74339380Y-134310523D02*
X74339380Y-134501000D01*
X74387000Y-134596238D01*
X74434619Y-134643857D01*
X74577476Y-134739095D01*
X74767952Y-134786714D01*
X75148904Y-134786714D01*
X75244142Y-134739095D01*
X75291761Y-134691476D01*
X75339380Y-134596238D01*
X75339380Y-134405761D01*
X75291761Y-134310523D01*
X75244142Y-134262904D01*
X75148904Y-134215285D01*
X74910809Y-134215285D01*
X74815571Y-134262904D01*
X74767952Y-134310523D01*
X74720333Y-134405761D01*
X74720333Y-134596238D01*
X74767952Y-134691476D01*
X74815571Y-134739095D01*
X74910809Y-134786714D01*
X35520333Y-71615380D02*
X35187000Y-71139190D01*
X34948904Y-71615380D02*
X34948904Y-70615380D01*
X35329857Y-70615380D01*
X35425095Y-70663000D01*
X35472714Y-70710619D01*
X35520333Y-70805857D01*
X35520333Y-70948714D01*
X35472714Y-71043952D01*
X35425095Y-71091571D01*
X35329857Y-71139190D01*
X34948904Y-71139190D01*
X36425095Y-70615380D02*
X35948904Y-70615380D01*
X35901285Y-71091571D01*
X35948904Y-71043952D01*
X36044142Y-70996333D01*
X36282238Y-70996333D01*
X36377476Y-71043952D01*
X36425095Y-71091571D01*
X36472714Y-71186809D01*
X36472714Y-71424904D01*
X36425095Y-71520142D01*
X36377476Y-71567761D01*
X36282238Y-71615380D01*
X36044142Y-71615380D01*
X35948904Y-71567761D01*
X35901285Y-71520142D01*
X35520333Y-68313380D02*
X35187000Y-67837190D01*
X34948904Y-68313380D02*
X34948904Y-67313380D01*
X35329857Y-67313380D01*
X35425095Y-67361000D01*
X35472714Y-67408619D01*
X35520333Y-67503857D01*
X35520333Y-67646714D01*
X35472714Y-67741952D01*
X35425095Y-67789571D01*
X35329857Y-67837190D01*
X34948904Y-67837190D01*
X36377476Y-67646714D02*
X36377476Y-68313380D01*
X36139380Y-67265761D02*
X35901285Y-67980047D01*
X36520333Y-67980047D01*
X35520333Y-65138380D02*
X35187000Y-64662190D01*
X34948904Y-65138380D02*
X34948904Y-64138380D01*
X35329857Y-64138380D01*
X35425095Y-64186000D01*
X35472714Y-64233619D01*
X35520333Y-64328857D01*
X35520333Y-64471714D01*
X35472714Y-64566952D01*
X35425095Y-64614571D01*
X35329857Y-64662190D01*
X34948904Y-64662190D01*
X35853666Y-64138380D02*
X36472714Y-64138380D01*
X36139380Y-64519333D01*
X36282238Y-64519333D01*
X36377476Y-64566952D01*
X36425095Y-64614571D01*
X36472714Y-64709809D01*
X36472714Y-64947904D01*
X36425095Y-65043142D01*
X36377476Y-65090761D01*
X36282238Y-65138380D01*
X35996523Y-65138380D01*
X35901285Y-65090761D01*
X35853666Y-65043142D01*
X35520333Y-61963380D02*
X35187000Y-61487190D01*
X34948904Y-61963380D02*
X34948904Y-60963380D01*
X35329857Y-60963380D01*
X35425095Y-61011000D01*
X35472714Y-61058619D01*
X35520333Y-61153857D01*
X35520333Y-61296714D01*
X35472714Y-61391952D01*
X35425095Y-61439571D01*
X35329857Y-61487190D01*
X34948904Y-61487190D01*
X35901285Y-61058619D02*
X35948904Y-61011000D01*
X36044142Y-60963380D01*
X36282238Y-60963380D01*
X36377476Y-61011000D01*
X36425095Y-61058619D01*
X36472714Y-61153857D01*
X36472714Y-61249095D01*
X36425095Y-61391952D01*
X35853666Y-61963380D01*
X36472714Y-61963380D01*
X35520333Y-58788380D02*
X35187000Y-58312190D01*
X34948904Y-58788380D02*
X34948904Y-57788380D01*
X35329857Y-57788380D01*
X35425095Y-57836000D01*
X35472714Y-57883619D01*
X35520333Y-57978857D01*
X35520333Y-58121714D01*
X35472714Y-58216952D01*
X35425095Y-58264571D01*
X35329857Y-58312190D01*
X34948904Y-58312190D01*
X36472714Y-58788380D02*
X35901285Y-58788380D01*
X36187000Y-58788380D02*
X36187000Y-57788380D01*
X36091761Y-57931238D01*
X35996523Y-58026476D01*
X35901285Y-58074095D01*
X33329666Y-73068380D02*
X33329666Y-73782666D01*
X33282047Y-73925523D01*
X33186809Y-74020761D01*
X33043952Y-74068380D01*
X32948714Y-74068380D01*
X33805857Y-74068380D02*
X33805857Y-73068380D01*
X34186809Y-73068380D01*
X34282047Y-73116000D01*
X34329666Y-73163619D01*
X34377285Y-73258857D01*
X34377285Y-73401714D01*
X34329666Y-73496952D01*
X34282047Y-73544571D01*
X34186809Y-73592190D01*
X33805857Y-73592190D01*
X35329666Y-74068380D02*
X34758238Y-74068380D01*
X35043952Y-74068380D02*
X35043952Y-73068380D01*
X34948714Y-73211238D01*
X34853476Y-73306476D01*
X34758238Y-73354095D01*
X33234428Y-80301500D02*
X34091571Y-80301500D01*
X33329666Y-80668880D02*
X33663000Y-81668880D01*
X33996333Y-80668880D01*
X34091571Y-80301500D02*
X35091571Y-80301500D01*
X34329666Y-81668880D02*
X34329666Y-80668880D01*
X34710619Y-80668880D01*
X34805857Y-80716500D01*
X34853476Y-80764119D01*
X34901095Y-80859357D01*
X34901095Y-81002214D01*
X34853476Y-81097452D01*
X34805857Y-81145071D01*
X34710619Y-81192690D01*
X34329666Y-81192690D01*
X99250380Y-53673333D02*
X99964666Y-53673333D01*
X100107523Y-53720952D01*
X100202761Y-53816190D01*
X100250380Y-53959047D01*
X100250380Y-54054285D01*
X99250380Y-52768571D02*
X99250380Y-52959047D01*
X99298000Y-53054285D01*
X99345619Y-53101904D01*
X99488476Y-53197142D01*
X99678952Y-53244761D01*
X100059904Y-53244761D01*
X100155142Y-53197142D01*
X100202761Y-53149523D01*
X100250380Y-53054285D01*
X100250380Y-52863809D01*
X100202761Y-52768571D01*
X100155142Y-52720952D01*
X100059904Y-52673333D01*
X99821809Y-52673333D01*
X99726571Y-52720952D01*
X99678952Y-52768571D01*
X99631333Y-52863809D01*
X99631333Y-53054285D01*
X99678952Y-53149523D01*
X99726571Y-53197142D01*
X99821809Y-53244761D01*
X79470380Y-55530476D02*
X78470380Y-55530476D01*
X78470380Y-55149523D01*
X78518000Y-55054285D01*
X78565619Y-55006666D01*
X78660857Y-54959047D01*
X78803714Y-54959047D01*
X78898952Y-55006666D01*
X78946571Y-55054285D01*
X78994190Y-55149523D01*
X78994190Y-55530476D01*
X79470380Y-54387619D02*
X79422761Y-54482857D01*
X79375142Y-54530476D01*
X79279904Y-54578095D01*
X78994190Y-54578095D01*
X78898952Y-54530476D01*
X78851333Y-54482857D01*
X78803714Y-54387619D01*
X78803714Y-54244761D01*
X78851333Y-54149523D01*
X78898952Y-54101904D01*
X78994190Y-54054285D01*
X79279904Y-54054285D01*
X79375142Y-54101904D01*
X79422761Y-54149523D01*
X79470380Y-54244761D01*
X79470380Y-54387619D01*
X79470380Y-53625714D02*
X78803714Y-53625714D01*
X78994190Y-53625714D02*
X78898952Y-53578095D01*
X78851333Y-53530476D01*
X78803714Y-53435238D01*
X78803714Y-53340000D01*
X78803714Y-53149523D02*
X78803714Y-52768571D01*
X78470380Y-53006666D02*
X79327523Y-53006666D01*
X79422761Y-52959047D01*
X79470380Y-52863809D01*
X79470380Y-52768571D01*
X78946571Y-51340000D02*
X78994190Y-51197142D01*
X79041809Y-51149523D01*
X79137047Y-51101904D01*
X79279904Y-51101904D01*
X79375142Y-51149523D01*
X79422761Y-51197142D01*
X79470380Y-51292380D01*
X79470380Y-51673333D01*
X78470380Y-51673333D01*
X78470380Y-51340000D01*
X78518000Y-51244761D01*
X78565619Y-51197142D01*
X78660857Y-51149523D01*
X78756095Y-51149523D01*
X78851333Y-51197142D01*
X78898952Y-51244761D01*
X78946571Y-51340000D01*
X78946571Y-51673333D01*
X122872380Y-53673333D02*
X123586666Y-53673333D01*
X123729523Y-53720952D01*
X123824761Y-53816190D01*
X123872380Y-53959047D01*
X123872380Y-54054285D01*
X122872380Y-52720952D02*
X122872380Y-53197142D01*
X123348571Y-53244761D01*
X123300952Y-53197142D01*
X123253333Y-53101904D01*
X123253333Y-52863809D01*
X123300952Y-52768571D01*
X123348571Y-52720952D01*
X123443809Y-52673333D01*
X123681904Y-52673333D01*
X123777142Y-52720952D01*
X123824761Y-52768571D01*
X123872380Y-52863809D01*
X123872380Y-53101904D01*
X123824761Y-53197142D01*
X123777142Y-53244761D01*
X103092380Y-55459047D02*
X102092380Y-55459047D01*
X102092380Y-55078095D01*
X102140000Y-54982857D01*
X102187619Y-54935238D01*
X102282857Y-54887619D01*
X102425714Y-54887619D01*
X102520952Y-54935238D01*
X102568571Y-54982857D01*
X102616190Y-55078095D01*
X102616190Y-55459047D01*
X103092380Y-54316190D02*
X103044761Y-54411428D01*
X102997142Y-54459047D01*
X102901904Y-54506666D01*
X102616190Y-54506666D01*
X102520952Y-54459047D01*
X102473333Y-54411428D01*
X102425714Y-54316190D01*
X102425714Y-54173333D01*
X102473333Y-54078095D01*
X102520952Y-54030476D01*
X102616190Y-53982857D01*
X102901904Y-53982857D01*
X102997142Y-54030476D01*
X103044761Y-54078095D01*
X103092380Y-54173333D01*
X103092380Y-54316190D01*
X103092380Y-53554285D02*
X102425714Y-53554285D01*
X102616190Y-53554285D02*
X102520952Y-53506666D01*
X102473333Y-53459047D01*
X102425714Y-53363809D01*
X102425714Y-53268571D01*
X102425714Y-53078095D02*
X102425714Y-52697142D01*
X102092380Y-52935238D02*
X102949523Y-52935238D01*
X103044761Y-52887619D01*
X103092380Y-52792380D01*
X103092380Y-52697142D01*
X102806666Y-51649523D02*
X102806666Y-51173333D01*
X103092380Y-51744761D02*
X102092380Y-51411428D01*
X103092380Y-51078095D01*
X124888666Y-130238380D02*
X124888666Y-130952666D01*
X124841047Y-131095523D01*
X124745809Y-131190761D01*
X124602952Y-131238380D01*
X124507714Y-131238380D01*
X125793428Y-130571714D02*
X125793428Y-131238380D01*
X125555333Y-130190761D02*
X125317238Y-130905047D01*
X125936285Y-130905047D01*
X119960095Y-76914571D02*
X120293428Y-76914571D01*
X120436285Y-77438380D02*
X119960095Y-77438380D01*
X119960095Y-76438380D01*
X120436285Y-76438380D01*
X120769619Y-77438380D02*
X121293428Y-76771714D01*
X120769619Y-76771714D02*
X121293428Y-77438380D01*
X121674380Y-76771714D02*
X121674380Y-77771714D01*
X121674380Y-76819333D02*
X121769619Y-76771714D01*
X121960095Y-76771714D01*
X122055333Y-76819333D01*
X122102952Y-76866952D01*
X122150571Y-76962190D01*
X122150571Y-77247904D01*
X122102952Y-77343142D01*
X122055333Y-77390761D01*
X121960095Y-77438380D01*
X121769619Y-77438380D01*
X121674380Y-77390761D01*
X123007714Y-77438380D02*
X123007714Y-76914571D01*
X122960095Y-76819333D01*
X122864857Y-76771714D01*
X122674380Y-76771714D01*
X122579142Y-76819333D01*
X123007714Y-77390761D02*
X122912476Y-77438380D01*
X122674380Y-77438380D01*
X122579142Y-77390761D01*
X122531523Y-77295523D01*
X122531523Y-77200285D01*
X122579142Y-77105047D01*
X122674380Y-77057428D01*
X122912476Y-77057428D01*
X123007714Y-77009809D01*
X123483904Y-76771714D02*
X123483904Y-77438380D01*
X123483904Y-76866952D02*
X123531523Y-76819333D01*
X123626761Y-76771714D01*
X123769619Y-76771714D01*
X123864857Y-76819333D01*
X123912476Y-76914571D01*
X123912476Y-77438380D01*
X124341047Y-77390761D02*
X124436285Y-77438380D01*
X124626761Y-77438380D01*
X124722000Y-77390761D01*
X124769619Y-77295523D01*
X124769619Y-77247904D01*
X124722000Y-77152666D01*
X124626761Y-77105047D01*
X124483904Y-77105047D01*
X124388666Y-77057428D01*
X124341047Y-76962190D01*
X124341047Y-76914571D01*
X124388666Y-76819333D01*
X124483904Y-76771714D01*
X124626761Y-76771714D01*
X124722000Y-76819333D01*
X125198190Y-77438380D02*
X125198190Y-76771714D01*
X125198190Y-76438380D02*
X125150571Y-76486000D01*
X125198190Y-76533619D01*
X125245809Y-76486000D01*
X125198190Y-76438380D01*
X125198190Y-76533619D01*
X125817238Y-77438380D02*
X125722000Y-77390761D01*
X125674380Y-77343142D01*
X125626761Y-77247904D01*
X125626761Y-76962190D01*
X125674380Y-76866952D01*
X125722000Y-76819333D01*
X125817238Y-76771714D01*
X125960095Y-76771714D01*
X126055333Y-76819333D01*
X126102952Y-76866952D01*
X126150571Y-76962190D01*
X126150571Y-77247904D01*
X126102952Y-77343142D01*
X126055333Y-77390761D01*
X125960095Y-77438380D01*
X125817238Y-77438380D01*
X126579142Y-76771714D02*
X126579142Y-77438380D01*
X126579142Y-76866952D02*
X126626761Y-76819333D01*
X126722000Y-76771714D01*
X126864857Y-76771714D01*
X126960095Y-76819333D01*
X127007714Y-76914571D01*
X127007714Y-77438380D01*
X128579142Y-76914571D02*
X128722000Y-76962190D01*
X128769619Y-77009809D01*
X128817238Y-77105047D01*
X128817238Y-77247904D01*
X128769619Y-77343142D01*
X128722000Y-77390761D01*
X128626761Y-77438380D01*
X128245809Y-77438380D01*
X128245809Y-76438380D01*
X128579142Y-76438380D01*
X128674380Y-76486000D01*
X128722000Y-76533619D01*
X128769619Y-76628857D01*
X128769619Y-76724095D01*
X128722000Y-76819333D01*
X128674380Y-76866952D01*
X128579142Y-76914571D01*
X128245809Y-76914571D01*
X129674380Y-76771714D02*
X129674380Y-77438380D01*
X129245809Y-76771714D02*
X129245809Y-77295523D01*
X129293428Y-77390761D01*
X129388666Y-77438380D01*
X129531523Y-77438380D01*
X129626761Y-77390761D01*
X129674380Y-77343142D01*
X130102952Y-77390761D02*
X130198190Y-77438380D01*
X130388666Y-77438380D01*
X130483904Y-77390761D01*
X130531523Y-77295523D01*
X130531523Y-77247904D01*
X130483904Y-77152666D01*
X130388666Y-77105047D01*
X130245809Y-77105047D01*
X130150571Y-77057428D01*
X130102952Y-76962190D01*
X130102952Y-76914571D01*
X130150571Y-76819333D01*
X130245809Y-76771714D01*
X130388666Y-76771714D01*
X130483904Y-76819333D01*
X35411666Y-141267380D02*
X35411666Y-141981666D01*
X35364047Y-142124523D01*
X35268809Y-142219761D01*
X35125952Y-142267380D01*
X35030714Y-142267380D01*
X35792619Y-141267380D02*
X36411666Y-141267380D01*
X36078333Y-141648333D01*
X36221190Y-141648333D01*
X36316428Y-141695952D01*
X36364047Y-141743571D01*
X36411666Y-141838809D01*
X36411666Y-142076904D01*
X36364047Y-142172142D01*
X36316428Y-142219761D01*
X36221190Y-142267380D01*
X35935476Y-142267380D01*
X35840238Y-142219761D01*
X35792619Y-142172142D01*
X34733095Y-131017380D02*
X34733095Y-130017380D01*
X35114047Y-130017380D01*
X35209285Y-130065000D01*
X35256904Y-130112619D01*
X35304523Y-130207857D01*
X35304523Y-130350714D01*
X35256904Y-130445952D01*
X35209285Y-130493571D01*
X35114047Y-130541190D01*
X34733095Y-130541190D01*
X35875952Y-131017380D02*
X35780714Y-130969761D01*
X35733095Y-130922142D01*
X35685476Y-130826904D01*
X35685476Y-130541190D01*
X35733095Y-130445952D01*
X35780714Y-130398333D01*
X35875952Y-130350714D01*
X36018809Y-130350714D01*
X36114047Y-130398333D01*
X36161666Y-130445952D01*
X36209285Y-130541190D01*
X36209285Y-130826904D01*
X36161666Y-130922142D01*
X36114047Y-130969761D01*
X36018809Y-131017380D01*
X35875952Y-131017380D01*
X36542619Y-130350714D02*
X36733095Y-131017380D01*
X36923571Y-130541190D01*
X37114047Y-131017380D01*
X37304523Y-130350714D01*
X38066428Y-130969761D02*
X37971190Y-131017380D01*
X37780714Y-131017380D01*
X37685476Y-130969761D01*
X37637857Y-130874523D01*
X37637857Y-130493571D01*
X37685476Y-130398333D01*
X37780714Y-130350714D01*
X37971190Y-130350714D01*
X38066428Y-130398333D01*
X38114047Y-130493571D01*
X38114047Y-130588809D01*
X37637857Y-130684047D01*
X38542619Y-131017380D02*
X38542619Y-130350714D01*
X38542619Y-130541190D02*
X38590238Y-130445952D01*
X38637857Y-130398333D01*
X38733095Y-130350714D01*
X38828333Y-130350714D01*
X40399761Y-130017380D02*
X39923571Y-130017380D01*
X39875952Y-130493571D01*
X39923571Y-130445952D01*
X40018809Y-130398333D01*
X40256904Y-130398333D01*
X40352142Y-130445952D01*
X40399761Y-130493571D01*
X40447380Y-130588809D01*
X40447380Y-130826904D01*
X40399761Y-130922142D01*
X40352142Y-130969761D01*
X40256904Y-131017380D01*
X40018809Y-131017380D01*
X39923571Y-130969761D01*
X39875952Y-130922142D01*
X40733095Y-130017380D02*
X41066428Y-131017380D01*
X41399761Y-130017380D01*
X52633666Y-61765380D02*
X52633666Y-62479666D01*
X52586047Y-62622523D01*
X52490809Y-62717761D01*
X52347952Y-62765380D01*
X52252714Y-62765380D01*
X53109857Y-62765380D02*
X53109857Y-61765380D01*
X53490809Y-61765380D01*
X53586047Y-61813000D01*
X53633666Y-61860619D01*
X53681285Y-61955857D01*
X53681285Y-62098714D01*
X53633666Y-62193952D01*
X53586047Y-62241571D01*
X53490809Y-62289190D01*
X53109857Y-62289190D01*
X54062238Y-61860619D02*
X54109857Y-61813000D01*
X54205095Y-61765380D01*
X54443190Y-61765380D01*
X54538428Y-61813000D01*
X54586047Y-61860619D01*
X54633666Y-61955857D01*
X54633666Y-62051095D01*
X54586047Y-62193952D01*
X54014619Y-62765380D01*
X54633666Y-62765380D01*
X51157476Y-72410142D02*
X51109857Y-72457761D01*
X50967000Y-72505380D01*
X50871761Y-72505380D01*
X50728904Y-72457761D01*
X50633666Y-72362523D01*
X50586047Y-72267285D01*
X50538428Y-72076809D01*
X50538428Y-71933952D01*
X50586047Y-71743476D01*
X50633666Y-71648238D01*
X50728904Y-71553000D01*
X50871761Y-71505380D01*
X50967000Y-71505380D01*
X51109857Y-71553000D01*
X51157476Y-71600619D01*
X52062238Y-72505380D02*
X51586047Y-72505380D01*
X51586047Y-71505380D01*
X52395571Y-72505380D02*
X52395571Y-71505380D01*
X52967000Y-72505380D02*
X52538428Y-71933952D01*
X52967000Y-71505380D02*
X52395571Y-72076809D01*
X54109857Y-72457761D02*
X54252714Y-72505380D01*
X54490809Y-72505380D01*
X54586047Y-72457761D01*
X54633666Y-72410142D01*
X54681285Y-72314904D01*
X54681285Y-72219666D01*
X54633666Y-72124428D01*
X54586047Y-72076809D01*
X54490809Y-72029190D01*
X54300333Y-71981571D01*
X54205095Y-71933952D01*
X54157476Y-71886333D01*
X54109857Y-71791095D01*
X54109857Y-71695857D01*
X54157476Y-71600619D01*
X54205095Y-71553000D01*
X54300333Y-71505380D01*
X54538428Y-71505380D01*
X54681285Y-71553000D01*
X55109857Y-71981571D02*
X55443190Y-71981571D01*
X55586047Y-72505380D02*
X55109857Y-72505380D01*
X55109857Y-71505380D01*
X55586047Y-71505380D01*
X56490809Y-72505380D02*
X56014619Y-72505380D01*
X56014619Y-71505380D01*
X48053666Y-50589380D02*
X48053666Y-51303666D01*
X48006047Y-51446523D01*
X47910809Y-51541761D01*
X47767952Y-51589380D01*
X47672714Y-51589380D01*
X49053666Y-51589380D02*
X48482238Y-51589380D01*
X48767952Y-51589380D02*
X48767952Y-50589380D01*
X48672714Y-50732238D01*
X48577476Y-50827476D01*
X48482238Y-50875095D01*
X43624666Y-52171000D02*
X44672285Y-52171000D01*
X43862761Y-53538380D02*
X43862761Y-52538380D01*
X44434190Y-53538380D01*
X44434190Y-52538380D01*
X44672285Y-52171000D02*
X45815142Y-52171000D01*
X44910380Y-53538380D02*
X44910380Y-52538380D01*
X45243714Y-53252666D01*
X45577047Y-52538380D01*
X45577047Y-53538380D01*
X45815142Y-52171000D02*
X46291333Y-52171000D01*
X46053238Y-53538380D02*
X46053238Y-52538380D01*
X76858904Y-145613380D02*
X76858904Y-144613380D01*
X77097000Y-144613380D01*
X77239857Y-144661000D01*
X77335095Y-144756238D01*
X77382714Y-144851476D01*
X77430333Y-145041952D01*
X77430333Y-145184809D01*
X77382714Y-145375285D01*
X77335095Y-145470523D01*
X77239857Y-145565761D01*
X77097000Y-145613380D01*
X76858904Y-145613380D01*
X78382714Y-145613380D02*
X77811285Y-145613380D01*
X78097000Y-145613380D02*
X78097000Y-144613380D01*
X78001761Y-144756238D01*
X77906523Y-144851476D01*
X77811285Y-144899095D01*
X71477476Y-148915380D02*
X71477476Y-147915380D01*
X71858428Y-147915380D01*
X71953666Y-147963000D01*
X72001285Y-148010619D01*
X72048904Y-148105857D01*
X72048904Y-148248714D01*
X72001285Y-148343952D01*
X71953666Y-148391571D01*
X71858428Y-148439190D01*
X71477476Y-148439190D01*
X72667952Y-147915380D02*
X72858428Y-147915380D01*
X72953666Y-147963000D01*
X73048904Y-148058238D01*
X73096523Y-148248714D01*
X73096523Y-148582047D01*
X73048904Y-148772523D01*
X72953666Y-148867761D01*
X72858428Y-148915380D01*
X72667952Y-148915380D01*
X72572714Y-148867761D01*
X72477476Y-148772523D01*
X72429857Y-148582047D01*
X72429857Y-148248714D01*
X72477476Y-148058238D01*
X72572714Y-147963000D01*
X72667952Y-147915380D01*
X73429857Y-147915380D02*
X73667952Y-148915380D01*
X73858428Y-148201095D01*
X74048904Y-148915380D01*
X74287000Y-147915380D01*
X74667952Y-148391571D02*
X75001285Y-148391571D01*
X75144142Y-148915380D02*
X74667952Y-148915380D01*
X74667952Y-147915380D01*
X75144142Y-147915380D01*
X76144142Y-148915380D02*
X75810809Y-148439190D01*
X75572714Y-148915380D02*
X75572714Y-147915380D01*
X75953666Y-147915380D01*
X76048904Y-147963000D01*
X76096523Y-148010619D01*
X76144142Y-148105857D01*
X76144142Y-148248714D01*
X76096523Y-148343952D01*
X76048904Y-148391571D01*
X75953666Y-148439190D01*
X75572714Y-148439190D01*
X74041333Y-56278142D02*
X73993714Y-56325761D01*
X73850857Y-56373380D01*
X73755619Y-56373380D01*
X73612761Y-56325761D01*
X73517523Y-56230523D01*
X73469904Y-56135285D01*
X73422285Y-55944809D01*
X73422285Y-55801952D01*
X73469904Y-55611476D01*
X73517523Y-55516238D01*
X73612761Y-55421000D01*
X73755619Y-55373380D01*
X73850857Y-55373380D01*
X73993714Y-55421000D01*
X74041333Y-55468619D01*
X74374666Y-55373380D02*
X75041333Y-55373380D01*
X74612761Y-56373380D01*
X111807333Y-148607142D02*
X111759714Y-148654761D01*
X111616857Y-148702380D01*
X111521619Y-148702380D01*
X111378761Y-148654761D01*
X111283523Y-148559523D01*
X111235904Y-148464285D01*
X111188285Y-148273809D01*
X111188285Y-148130952D01*
X111235904Y-147940476D01*
X111283523Y-147845238D01*
X111378761Y-147750000D01*
X111521619Y-147702380D01*
X111616857Y-147702380D01*
X111759714Y-147750000D01*
X111807333Y-147797619D01*
X112664476Y-147702380D02*
X112474000Y-147702380D01*
X112378761Y-147750000D01*
X112331142Y-147797619D01*
X112235904Y-147940476D01*
X112188285Y-148130952D01*
X112188285Y-148511904D01*
X112235904Y-148607142D01*
X112283523Y-148654761D01*
X112378761Y-148702380D01*
X112569238Y-148702380D01*
X112664476Y-148654761D01*
X112712095Y-148607142D01*
X112759714Y-148511904D01*
X112759714Y-148273809D01*
X112712095Y-148178571D01*
X112664476Y-148130952D01*
X112569238Y-148083333D01*
X112378761Y-148083333D01*
X112283523Y-148130952D01*
X112235904Y-148178571D01*
X112188285Y-148273809D01*
X79970333Y-80113142D02*
X79922714Y-80160761D01*
X79779857Y-80208380D01*
X79684619Y-80208380D01*
X79541761Y-80160761D01*
X79446523Y-80065523D01*
X79398904Y-79970285D01*
X79351285Y-79779809D01*
X79351285Y-79636952D01*
X79398904Y-79446476D01*
X79446523Y-79351238D01*
X79541761Y-79256000D01*
X79684619Y-79208380D01*
X79779857Y-79208380D01*
X79922714Y-79256000D01*
X79970333Y-79303619D01*
X80351285Y-79303619D02*
X80398904Y-79256000D01*
X80494142Y-79208380D01*
X80732238Y-79208380D01*
X80827476Y-79256000D01*
X80875095Y-79303619D01*
X80922714Y-79398857D01*
X80922714Y-79494095D01*
X80875095Y-79636952D01*
X80303666Y-80208380D01*
X80922714Y-80208380D01*
X99187333Y-148607142D02*
X99139714Y-148654761D01*
X98996857Y-148702380D01*
X98901619Y-148702380D01*
X98758761Y-148654761D01*
X98663523Y-148559523D01*
X98615904Y-148464285D01*
X98568285Y-148273809D01*
X98568285Y-148130952D01*
X98615904Y-147940476D01*
X98663523Y-147845238D01*
X98758761Y-147750000D01*
X98901619Y-147702380D01*
X98996857Y-147702380D01*
X99139714Y-147750000D01*
X99187333Y-147797619D01*
X100092095Y-147702380D02*
X99615904Y-147702380D01*
X99568285Y-148178571D01*
X99615904Y-148130952D01*
X99711142Y-148083333D01*
X99949238Y-148083333D01*
X100044476Y-148130952D01*
X100092095Y-148178571D01*
X100139714Y-148273809D01*
X100139714Y-148511904D01*
X100092095Y-148607142D01*
X100044476Y-148654761D01*
X99949238Y-148702380D01*
X99711142Y-148702380D01*
X99615904Y-148654761D01*
X99568285Y-148607142D01*
X85852333Y-148607142D02*
X85804714Y-148654761D01*
X85661857Y-148702380D01*
X85566619Y-148702380D01*
X85423761Y-148654761D01*
X85328523Y-148559523D01*
X85280904Y-148464285D01*
X85233285Y-148273809D01*
X85233285Y-148130952D01*
X85280904Y-147940476D01*
X85328523Y-147845238D01*
X85423761Y-147750000D01*
X85566619Y-147702380D01*
X85661857Y-147702380D01*
X85804714Y-147750000D01*
X85852333Y-147797619D01*
X86709476Y-148035714D02*
X86709476Y-148702380D01*
X86471380Y-147654761D02*
X86233285Y-148369047D01*
X86852333Y-148369047D01*
X108926333Y-80049642D02*
X108878714Y-80097261D01*
X108735857Y-80144880D01*
X108640619Y-80144880D01*
X108497761Y-80097261D01*
X108402523Y-80002023D01*
X108354904Y-79906785D01*
X108307285Y-79716309D01*
X108307285Y-79573452D01*
X108354904Y-79382976D01*
X108402523Y-79287738D01*
X108497761Y-79192500D01*
X108640619Y-79144880D01*
X108735857Y-79144880D01*
X108878714Y-79192500D01*
X108926333Y-79240119D01*
X109259666Y-79144880D02*
X109878714Y-79144880D01*
X109545380Y-79525833D01*
X109688238Y-79525833D01*
X109783476Y-79573452D01*
X109831095Y-79621071D01*
X109878714Y-79716309D01*
X109878714Y-79954404D01*
X109831095Y-80049642D01*
X109783476Y-80097261D01*
X109688238Y-80144880D01*
X109402523Y-80144880D01*
X109307285Y-80097261D01*
X109259666Y-80049642D01*
X32701142Y-91392666D02*
X32748761Y-91440285D01*
X32796380Y-91583142D01*
X32796380Y-91678380D01*
X32748761Y-91821238D01*
X32653523Y-91916476D01*
X32558285Y-91964095D01*
X32367809Y-92011714D01*
X32224952Y-92011714D01*
X32034476Y-91964095D01*
X31939238Y-91916476D01*
X31844000Y-91821238D01*
X31796380Y-91678380D01*
X31796380Y-91583142D01*
X31844000Y-91440285D01*
X31891619Y-91392666D01*
X32796380Y-90440285D02*
X32796380Y-91011714D01*
X32796380Y-90726000D02*
X31796380Y-90726000D01*
X31939238Y-90821238D01*
X32034476Y-90916476D01*
X32082095Y-91011714D01*
X45907142Y-144316666D02*
X45954761Y-144364285D01*
X46002380Y-144507142D01*
X46002380Y-144602380D01*
X45954761Y-144745238D01*
X45859523Y-144840476D01*
X45764285Y-144888095D01*
X45573809Y-144935714D01*
X45430952Y-144935714D01*
X45240476Y-144888095D01*
X45145238Y-144840476D01*
X45050000Y-144745238D01*
X45002380Y-144602380D01*
X45002380Y-144507142D01*
X45050000Y-144364285D01*
X45097619Y-144316666D01*
X45430952Y-143745238D02*
X45383333Y-143840476D01*
X45335714Y-143888095D01*
X45240476Y-143935714D01*
X45192857Y-143935714D01*
X45097619Y-143888095D01*
X45050000Y-143840476D01*
X45002380Y-143745238D01*
X45002380Y-143554761D01*
X45050000Y-143459523D01*
X45097619Y-143411904D01*
X45192857Y-143364285D01*
X45240476Y-143364285D01*
X45335714Y-143411904D01*
X45383333Y-143459523D01*
X45430952Y-143554761D01*
X45430952Y-143745238D01*
X45478571Y-143840476D01*
X45526190Y-143888095D01*
X45621428Y-143935714D01*
X45811904Y-143935714D01*
X45907142Y-143888095D01*
X45954761Y-143840476D01*
X46002380Y-143745238D01*
X46002380Y-143554761D01*
X45954761Y-143459523D01*
X45907142Y-143411904D01*
X45811904Y-143364285D01*
X45621428Y-143364285D01*
X45526190Y-143411904D01*
X45478571Y-143459523D01*
X45430952Y-143554761D01*
M02*
