M48
INCH,TZ
T1C0.0118
T2C0.0295
T3C0.0315
T4C0.0354
T5C0.0394
T6C0.0433
T7C0.1260
%
G90
G05
T1
X15728Y-40600
X15975Y-41000
X16178Y-41450
X16425Y-44900
X16450Y-45900
X16450Y-46875
X16450Y-47875
X16450Y-48900
X16700Y-32900
X16700Y-43900
X16825Y-42950
X16975Y-41925
X17000Y-30850
X17300Y-26725
X17300Y-34900
X17600Y-37975
X17625Y-39175
X17625Y-39575
X17626Y-40003
X18275Y-37975
X18900Y-40900
X19150Y-39000
X19450Y-37975
X19475Y-32900
X19850Y-29900
X20050Y-53100
X20075Y-52500
X22150Y-48350
X22576Y-46576
X22600Y-44450
X22600Y-44900
X22600Y-45975
X24675Y-45100
X24700Y-45600
X24700Y-46300
X24975Y-43875
X24975Y-42900
X24975Y-41900
X25225Y-40875
X25725Y-47850
X29675Y-32000
X30050Y-30700
X30050Y-32000
X30050Y-34700
X30700Y-33450
X30724Y-34424
X31125Y-40425
X31450Y-47425
X31975Y-48600
X33250Y-50500
X33800Y-53500
X34000Y-33475
X34025Y-34850
X34026Y-34424
X34500Y-30500
X36350Y-50000
X37949Y-46576
X38225Y-34672
X38500Y-48300
X38500Y-28250
X39600Y-36000
X39603Y-51500
X39850Y-55200
X40075Y-42000
X40174Y-36576
X40175Y-35225
X40400Y-46000
X40474Y-28676
X40788Y-44763
X42250Y-48300
X43050Y-44300
X43050Y-44694
X43550Y-46400
X44088Y-40438
X44100Y-41250
X44550Y-40100
X44550Y-41250
X44625Y-31275
X45000Y-41250
X45047Y-39650
X45050Y-31275
X45050Y-43650
X45350Y-44350
X45425Y-31275
X45525Y-44925
X45540Y-41250
X45540Y-38450
X45550Y-47300
X45550Y-28675
X45550Y-45700
X45550Y-46300
X45550Y-46800
X45550Y-47750
X45825Y-31275
X45900Y-37690
X45904Y-41250
X46211Y-31262
X46550Y-36000
X46550Y-41250
X46626Y-31550
X46800Y-37350
X46950Y-41250
X46974Y-21027
X47350Y-38000
X47354Y-41250
X47475Y-24775
X47800Y-40900
X47825Y-37950
X48050Y-24775
X48175Y-35725
X50200Y-51450
X50200Y-52350
X50200Y-52800
X50200Y-51900
X50575Y-55050
T2
X24600Y-53250
X25100Y-52750
X25600Y-53250
T3
X13600Y-34931
X13600Y-36900
X14950Y-22750
X14950Y-24000
X14950Y-25250
X14950Y-26500
X14950Y-27800
X15000Y-29900
X15000Y-30900
X15000Y-31900
X15000Y-32900
X15000Y-33900
X15000Y-34900
X15000Y-35900
X15000Y-36900
X15000Y-37900
X15000Y-38900
X15000Y-39900
X15000Y-40900
X15000Y-41900
X15000Y-42900
X15000Y-43900
X15000Y-44900
X15000Y-45900
X15000Y-46900
X15000Y-47900
X15000Y-48900
X18950Y-22750
X18950Y-24000
X18950Y-25250
X18950Y-26500
X18950Y-27800
X19694Y-55550
X21000Y-29900
X21000Y-30900
X21000Y-31900
X21000Y-32900
X21000Y-33900
X21000Y-34900
X21000Y-35900
X21000Y-36900
X21000Y-37900
X21000Y-38900
X21000Y-39900
X21000Y-40900
X21000Y-41900
X21000Y-42900
X21000Y-43900
X21000Y-44900
X21000Y-45900
X21000Y-46900
X21000Y-47900
X21000Y-48900
X21190Y-55550
X23400Y-21200
X23400Y-27200
X26400Y-21200
X26400Y-27200
X26550Y-34000
X26550Y-35000
X26550Y-36000
X26550Y-37000
X26550Y-38000
X26550Y-39000
X26550Y-40000
X26550Y-41000
X26550Y-42000
X26550Y-43000
X26550Y-44000
X26550Y-45000
X26550Y-46000
X26550Y-47000
X28231Y-21150
X28550Y-51150
X28550Y-55150
X29050Y-23400
X29050Y-29400
X30050Y-23400
X30050Y-29400
X30200Y-21150
X30581Y-32200
X31050Y-23400
X31050Y-29400
X32050Y-23400
X32050Y-29400
X32350Y-49500
X32350Y-50500
X32350Y-51500
X32350Y-52500
X32350Y-53500
X32350Y-54500
X32350Y-55500
X32550Y-32200
X32550Y-34000
X32550Y-35000
X32550Y-36000
X32550Y-37000
X32550Y-38000
X32550Y-39000
X32550Y-40000
X32550Y-41000
X32550Y-42000
X32550Y-43000
X32550Y-44000
X32550Y-45000
X32550Y-46000
X32550Y-47000
X32881Y-57500
X33050Y-23400
X33050Y-29400
X34050Y-23400
X34050Y-29400
X34850Y-57500
X35050Y-23400
X35050Y-29400
X35350Y-49500
X35350Y-50500
X35350Y-51500
X35350Y-52500
X35350Y-53500
X35350Y-54500
X35350Y-55500
X35950Y-34000
X35950Y-35000
X35950Y-36000
X35950Y-37000
X35950Y-38000
X35950Y-39000
X35950Y-40000
X35950Y-41000
X35950Y-42000
X35950Y-43000
X35950Y-44000
X35950Y-45000
X35950Y-46000
X35950Y-47000
X36050Y-23400
X36050Y-29400
X37050Y-23400
X37050Y-29400
X37600Y-49500
X37600Y-50500
X37600Y-51500
X37600Y-52500
X37600Y-53500
X37600Y-54500
X37600Y-55500
X38050Y-23400
X38050Y-29400
X38131Y-57500
X39050Y-23400
X39050Y-29400
X40050Y-23400
X40050Y-29400
X40100Y-57500
X40600Y-49500
X40600Y-50500
X40600Y-51500
X40600Y-52500
X40600Y-53500
X40600Y-54500
X40600Y-55500
X41050Y-23400
X41050Y-29400
X41950Y-32200
X41950Y-34000
X41950Y-35000
X41950Y-36000
X41950Y-37000
X41950Y-38000
X41950Y-39000
X41950Y-40000
X41950Y-41000
X41950Y-42000
X41950Y-43000
X41950Y-44000
X41950Y-45000
X41950Y-46000
X41950Y-47000
X42050Y-23400
X42050Y-29400
X42600Y-49500
X42600Y-50500
X42600Y-51500
X42600Y-52500
X42600Y-53500
X42600Y-54500
X42600Y-55500
X43050Y-23400
X43050Y-29400
X43100Y-57500
X43919Y-32200
X44050Y-23400
X44050Y-29400
X45050Y-23400
X45050Y-29400
X45069Y-57500
X45600Y-49500
X45600Y-50500
X45600Y-51500
X45600Y-52500
X45600Y-53500
X45600Y-54500
X45600Y-55500
X46050Y-23400
X46050Y-29400
X47050Y-23400
X47050Y-29400
X48050Y-23400
X48050Y-29400
T4
X28550Y-57200
X29550Y-57200
T5
X13450Y-29900
X13450Y-30900
X16200Y-57550
X17200Y-57550
X18200Y-57550
X19050Y-21050
X21050Y-21050
X21050Y-25450
X21050Y-26450
X21050Y-27450
X22500Y-52500
X32200Y-20500
X32200Y-21500
X33200Y-20500
X33200Y-21500
X34200Y-20500
X34200Y-21500
X35200Y-20500
X35200Y-21500
X36200Y-20500
X36200Y-21500
X37200Y-20500
X37200Y-21500
X38200Y-20500
X38200Y-21500
X41500Y-20500
X41500Y-21500
X42500Y-20500
X42500Y-21500
X43500Y-20500
X43500Y-21500
X44500Y-20500
X44500Y-21500
X45500Y-20500
X45500Y-21500
X46500Y-20500
X46500Y-21500
X47500Y-20500
X47500Y-21500
X48120Y-56710
X48800Y-31400
X48800Y-32400
X48800Y-33400
X48800Y-34400
X48800Y-35400
X48800Y-36400
X48800Y-37400
X48800Y-38400
X48800Y-39400
X48800Y-40400
X48800Y-41400
X48800Y-42400
X48800Y-43400
X48800Y-44400
X48800Y-45400
X48800Y-46400
X48800Y-47400
X48800Y-48400
X48800Y-49400
X48800Y-50400
X49800Y-31400
X49800Y-32400
X49800Y-33400
X49800Y-34400
X49800Y-35400
X49800Y-36400
X49800Y-37400
X49800Y-38400
X49800Y-39400
X49800Y-40400
X49800Y-41400
X49800Y-42400
X49800Y-43400
X49800Y-44400
X49800Y-45400
X49800Y-46400
X49800Y-47400
X49800Y-48400
X49800Y-49400
X49800Y-50400
T6
X23766Y-55778
X23766Y-57550
X26325Y-55778
X26325Y-57550
T7
X13650Y-21150
X13650Y-57600
X50100Y-21150
X50100Y-57600
T5
G00X15037Y-52856
M15
G01X15037Y-53643
M16
G05
G00X15825Y-55100
M15
G01X16612Y-55100
M16
G05
G00X17400Y-52856
M15
G01X17400Y-53643
M16
G05
T0
M30
