M48
INCH,TZ
T1C0.0157
T2C0.0295
T3C0.0315
T4C0.0394
%
G90
G05
T1
X13000Y-35250
X13750Y-46250
X16750Y-48750
X18375Y-41875
X18500Y-31250
X18750Y-44750
X18750Y-47750
X18750Y-49750
X18750Y-50750
X18750Y-51750
X18750Y-52750
X18750Y-53750
X19000Y-36000
X19250Y-46750
X19500Y-55250
X19500Y-56250
X20250Y-33500
X20750Y-28250
X20750Y-28750
X20750Y-49250
X21500Y-42750
X21750Y-56750
X22250Y-48250
X22750Y-36500
X23000Y-43301
X23000Y-43750
X23000Y-45500
X23000Y-42907
X23500Y-42000
X23750Y-47250
X24250Y-46750
X24750Y-46250
X25000Y-40250
X25000Y-42500
X26750Y-36500
X28250Y-31750
X30500Y-42500
X33000Y-49250
X33000Y-51250
X33000Y-53250
X33000Y-54250
X33000Y-55250
X33000Y-56250
X34500Y-32000
X35250Y-36250
X35250Y-36750
X35750Y-35750
X35750Y-41500
X36078Y-32328
X36713Y-43787
X36750Y-40250
X36750Y-36250
X36750Y-38000
X36787Y-44713
X37000Y-32500
X37500Y-43250
X37750Y-46250
X37750Y-47250
X38000Y-45018
X38750Y-38000
X40285Y-42500
X40750Y-36250
X41000Y-46250
X41000Y-47250
X41250Y-45018
X42750Y-42250
X42750Y-43250
X48000Y-42750
X48500Y-42250
X48750Y-36250
X49750Y-44000
X50250Y-44000
T2
X34750Y-26750
X35250Y-27250
X35750Y-26750
T3
X14004Y-28500
X15000Y-32500
X15000Y-36500
X15500Y-28500
X18000Y-27813
X18000Y-29781
X18000Y-32031
X18000Y-34000
X18000Y-37250
X18000Y-39219
X20000Y-27250
X20000Y-30250
X20000Y-32250
X20000Y-35250
X20000Y-37250
X20000Y-40250
X21000Y-21250
X21000Y-27250
X21000Y-30250
X21000Y-32250
X21000Y-35250
X21000Y-37250
X21000Y-40250
X22000Y-27250
X22000Y-30250
X22000Y-32250
X22000Y-35250
X22000Y-37250
X22000Y-40250
X23000Y-27250
X23000Y-30250
X23000Y-32250
X23000Y-35250
X23000Y-37250
X23000Y-40250
X24000Y-27250
X24000Y-30250
X24000Y-32250
X24000Y-35250
X24000Y-37250
X24000Y-40250
X25000Y-21250
X25000Y-27250
X25000Y-30250
X25000Y-32250
X25000Y-35250
X25000Y-37250
X25000Y-40250
X26000Y-27250
X26000Y-30250
X26000Y-32250
X26000Y-35250
X26000Y-37250
X26000Y-40250
X26031Y-57500
X28000Y-20750
X28000Y-24750
X28000Y-57500
X29000Y-30250
X29000Y-33250
X29750Y-44250
X29750Y-45250
X29750Y-46250
X29750Y-47250
X29750Y-48250
X29750Y-49250
X29750Y-50250
X29750Y-51250
X29750Y-52250
X29750Y-53250
X29750Y-54250
X29750Y-55250
X29750Y-56250
X29750Y-57250
X30500Y-20750
X30500Y-24750
X33000Y-20750
X33000Y-24750
X35000Y-30250
X35000Y-33250
X35750Y-44250
X35750Y-45250
X35750Y-46250
X35750Y-47250
X35750Y-48250
X35750Y-49250
X35750Y-50250
X35750Y-51250
X35750Y-52250
X35750Y-53250
X35750Y-54250
X35750Y-55250
X35750Y-56250
X35750Y-57250
X38000Y-29500
X38000Y-33500
X38000Y-35031
X38000Y-37000
X38781Y-57500
X40000Y-21750
X40000Y-22750
X40000Y-23750
X40000Y-24750
X40000Y-25750
X40000Y-26750
X40000Y-27750
X40000Y-28750
X40000Y-29750
X40000Y-30750
X40000Y-31750
X40000Y-32750
X40000Y-33750
X40000Y-34750
X40000Y-35750
X40000Y-36750
X40000Y-37750
X40000Y-38750
X40000Y-39750
X40000Y-40750
X40750Y-57500
X42500Y-44250
X42500Y-45250
X42500Y-46250
X42500Y-47250
X42500Y-48250
X42500Y-49250
X42500Y-50250
X42500Y-51250
X42500Y-52250
X42500Y-53250
X42500Y-54250
X42500Y-55250
X42500Y-56250
X42500Y-57250
X48500Y-44250
X48500Y-45250
X48500Y-46250
X48500Y-47250
X48500Y-48250
X48500Y-49250
X48500Y-50250
X48500Y-51250
X48500Y-52250
X48500Y-53250
X48500Y-54250
X48500Y-55250
X48500Y-56250
X48500Y-57250
X50000Y-21750
X50000Y-22750
X50000Y-23750
X50000Y-24750
X50000Y-25750
X50000Y-26750
X50000Y-27750
X50000Y-28750
X50000Y-29750
X50000Y-30750
X50000Y-31750
X50000Y-32750
X50000Y-33750
X50000Y-34750
X50000Y-35750
X50000Y-36750
X50000Y-37750
X50000Y-38750
X50000Y-39750
X50000Y-40750
T4
X14500Y-38750
X14500Y-39750
X14500Y-40750
X14500Y-41750
X14500Y-42750
X14500Y-43750
X14500Y-44750
X14500Y-45750
X14500Y-46750
X14500Y-47750
X14500Y-48750
X14500Y-49750
X14500Y-50750
X14500Y-51750
X14500Y-52750
X14500Y-53750
X14500Y-54750
X14500Y-55750
X14500Y-56750
X14500Y-57750
X15500Y-38750
X15500Y-39750
X15500Y-40750
X15500Y-41750
X15500Y-42750
X15500Y-43750
X15500Y-44750
X15500Y-45750
X15500Y-46750
X15500Y-47750
X15500Y-48750
X15500Y-49750
X15500Y-50750
X15500Y-51750
X15500Y-52750
X15500Y-53750
X15500Y-54750
X15500Y-55750
X15500Y-56750
X15500Y-57750
X21000Y-23500
X21000Y-24500
X22000Y-23500
X22000Y-24500
X23000Y-23500
X23000Y-24500
X24000Y-23500
X24000Y-24500
X25000Y-23500
X25000Y-24500
X29500Y-36500
X30250Y-26750
X30500Y-36500
X31250Y-26750
X31500Y-36500
X32250Y-26750
X32500Y-36500
X33500Y-36500
X35000Y-21000
X35000Y-22772
X37559Y-21000
X37559Y-22772
X38000Y-26000
X38000Y-27000
T4
G00X15388Y-22106
M15
G01X15388Y-22894
M16
G05
G00X16175Y-24350
M15
G01X16963Y-24350
M16
G05
G00X17750Y-22106
M15
G01X17750Y-22894
M16
G05
T0
M30
