G04 #@! TF.GenerationSoftware,KiCad,Pcbnew,(5.1.9-0-10_14)*
G04 #@! TF.CreationDate,2022-10-07T18:33:01-05:00*
G04 #@! TF.ProjectId,My6502,4d793635-3032-42e6-9b69-6361645f7063,rev?*
G04 #@! TF.SameCoordinates,Original*
G04 #@! TF.FileFunction,Other,Fab,Top*
%FSLAX46Y46*%
G04 Gerber Fmt 4.6, Leading zero omitted, Abs format (unit mm)*
G04 Created by KiCad (PCBNEW (5.1.9-0-10_14)) date 2022-10-07 18:33:01*
%MOMM*%
%LPD*%
G01*
G04 APERTURE LIST*
%ADD10C,0.100000*%
%ADD11C,0.150000*%
%ADD12C,0.129000*%
G04 APERTURE END LIST*
D10*
X65631064Y-143927000D02*
G75*
G03*
X65631064Y-143927000I-2015564J0D01*
G01*
X66615500Y-146927000D02*
X63615500Y-146927000D01*
X66615500Y-140927000D02*
X66615500Y-146927000D01*
X60615500Y-140927000D02*
X66615500Y-140927000D01*
X60615500Y-146927000D02*
X60615500Y-140927000D01*
X63615500Y-146927000D02*
X60615500Y-146927000D01*
X56896000Y-51118000D02*
X68946000Y-51118000D01*
X69596000Y-51768000D02*
X69596000Y-71168000D01*
X68946000Y-71818000D02*
X57546000Y-71818000D01*
X56896000Y-51118000D02*
X56896000Y-71168000D01*
X57896000Y-52118000D02*
X57896000Y-70468000D01*
X57896000Y-52118000D02*
X68246000Y-52118000D01*
X68596000Y-52468000D02*
X68596000Y-70468000D01*
X58246000Y-70818000D02*
X68246000Y-70818000D01*
X69596000Y-51768000D02*
G75*
G03*
X68946000Y-51118000I-650000J0D01*
G01*
X68946000Y-71818000D02*
G75*
G03*
X69596000Y-71168000I0J650000D01*
G01*
X56896000Y-71168000D02*
G75*
G03*
X57546000Y-71818000I650000J0D01*
G01*
X68596000Y-52468000D02*
G75*
G03*
X68246000Y-52118000I-350000J0D01*
G01*
X68246000Y-70818000D02*
G75*
G03*
X68596000Y-70468000I0J350000D01*
G01*
X57896000Y-70468000D02*
G75*
G03*
X58246000Y-70818000I350000J0D01*
G01*
X123377000Y-75946000D02*
X123377000Y-58166000D01*
X72457000Y-75946000D02*
X123377000Y-75946000D01*
X72457000Y-58166000D02*
X72457000Y-75946000D01*
X123377000Y-58166000D02*
X72457000Y-58166000D01*
X122317000Y-59691000D02*
X123317000Y-60691000D01*
X72517000Y-59691000D02*
X122317000Y-59691000D01*
X72517000Y-74421000D02*
X72517000Y-59691000D01*
X123317000Y-74421000D02*
X72517000Y-74421000D01*
X123317000Y-60691000D02*
X123317000Y-74421000D01*
X117094000Y-124400000D02*
X106934000Y-124400000D01*
X117094000Y-142300000D02*
X117094000Y-124400000D01*
X106934000Y-142300000D02*
X117094000Y-142300000D01*
X106934000Y-124400000D02*
X106934000Y-142300000D01*
X108839000Y-125460000D02*
X109839000Y-124460000D01*
X108839000Y-142240000D02*
X108839000Y-125460000D01*
X115189000Y-142240000D02*
X108839000Y-142240000D01*
X115189000Y-124460000D02*
X115189000Y-142240000D01*
X109839000Y-124460000D02*
X115189000Y-124460000D01*
X61984000Y-137005000D02*
X65484000Y-137005000D01*
X62000375Y-137008625D02*
G75*
G02*
X63754000Y-132775000I1753625J1753625D01*
G01*
X65507625Y-137008625D02*
G75*
G03*
X63754000Y-132775000I-1753625J1753625D01*
G01*
X104394000Y-124400000D02*
X94234000Y-124400000D01*
X104394000Y-142300000D02*
X104394000Y-124400000D01*
X94234000Y-142300000D02*
X104394000Y-142300000D01*
X94234000Y-124400000D02*
X94234000Y-142300000D01*
X96139000Y-125460000D02*
X97139000Y-124460000D01*
X96139000Y-142240000D02*
X96139000Y-125460000D01*
X102489000Y-142240000D02*
X96139000Y-142240000D01*
X102489000Y-124460000D02*
X102489000Y-142240000D01*
X97139000Y-124460000D02*
X102489000Y-124460000D01*
X91059000Y-124400000D02*
X80899000Y-124400000D01*
X91059000Y-142300000D02*
X91059000Y-124400000D01*
X80899000Y-142300000D02*
X91059000Y-142300000D01*
X80899000Y-124400000D02*
X80899000Y-142300000D01*
X82804000Y-125460000D02*
X83804000Y-124460000D01*
X82804000Y-142240000D02*
X82804000Y-125460000D01*
X89154000Y-142240000D02*
X82804000Y-142240000D01*
X89154000Y-124460000D02*
X89154000Y-142240000D01*
X83804000Y-124460000D02*
X89154000Y-124460000D01*
X107823000Y-85030000D02*
X90043000Y-85030000D01*
X107823000Y-120710000D02*
X107823000Y-85030000D01*
X90043000Y-120710000D02*
X107823000Y-120710000D01*
X90043000Y-85030000D02*
X90043000Y-120710000D01*
X91568000Y-86090000D02*
X92568000Y-85090000D01*
X91568000Y-120650000D02*
X91568000Y-86090000D01*
X106298000Y-120650000D02*
X91568000Y-120650000D01*
X106298000Y-85090000D02*
X106298000Y-120650000D01*
X92568000Y-85090000D02*
X106298000Y-85090000D01*
X54610000Y-74616000D02*
X36830000Y-74616000D01*
X54610000Y-125536000D02*
X54610000Y-74616000D01*
X36830000Y-125536000D02*
X54610000Y-125536000D01*
X36830000Y-74616000D02*
X36830000Y-125536000D01*
X38355000Y-75676000D02*
X39355000Y-74676000D01*
X38355000Y-125476000D02*
X38355000Y-75676000D01*
X53085000Y-125476000D02*
X38355000Y-125476000D01*
X53085000Y-74676000D02*
X53085000Y-125476000D01*
X39355000Y-74676000D02*
X53085000Y-74676000D01*
X83947000Y-85030000D02*
X66167000Y-85030000D01*
X83947000Y-120710000D02*
X83947000Y-85030000D01*
X66167000Y-120710000D02*
X83947000Y-120710000D01*
X66167000Y-85030000D02*
X66167000Y-120710000D01*
X67692000Y-86090000D02*
X68692000Y-85090000D01*
X67692000Y-120650000D02*
X67692000Y-86090000D01*
X82422000Y-120650000D02*
X67692000Y-120650000D01*
X82422000Y-85090000D02*
X82422000Y-120650000D01*
X68692000Y-85090000D02*
X82422000Y-85090000D01*
X72517000Y-140081000D02*
X72517000Y-138151000D01*
X72517000Y-129921000D02*
X72517000Y-131851000D01*
X73767000Y-138151000D02*
X73767000Y-131851000D01*
X71267000Y-138151000D02*
X73767000Y-138151000D01*
X71267000Y-131851000D02*
X71267000Y-138151000D01*
X73767000Y-131851000D02*
X71267000Y-131851000D01*
X48133000Y-70612000D02*
X46203000Y-70612000D01*
X37973000Y-70612000D02*
X39903000Y-70612000D01*
X46203000Y-69362000D02*
X39903000Y-69362000D01*
X46203000Y-71862000D02*
X46203000Y-69362000D01*
X39903000Y-71862000D02*
X46203000Y-71862000D01*
X39903000Y-69362000D02*
X39903000Y-71862000D01*
X48133000Y-67310000D02*
X46203000Y-67310000D01*
X37973000Y-67310000D02*
X39903000Y-67310000D01*
X46203000Y-66060000D02*
X39903000Y-66060000D01*
X46203000Y-68560000D02*
X46203000Y-66060000D01*
X39903000Y-68560000D02*
X46203000Y-68560000D01*
X39903000Y-66060000D02*
X39903000Y-68560000D01*
X48133000Y-64135000D02*
X46203000Y-64135000D01*
X37973000Y-64135000D02*
X39903000Y-64135000D01*
X46203000Y-62885000D02*
X39903000Y-62885000D01*
X46203000Y-65385000D02*
X46203000Y-62885000D01*
X39903000Y-65385000D02*
X46203000Y-65385000D01*
X39903000Y-62885000D02*
X39903000Y-65385000D01*
X48133000Y-60960000D02*
X46203000Y-60960000D01*
X37973000Y-60960000D02*
X39903000Y-60960000D01*
X46203000Y-59710000D02*
X39903000Y-59710000D01*
X46203000Y-62210000D02*
X46203000Y-59710000D01*
X39903000Y-62210000D02*
X46203000Y-62210000D01*
X39903000Y-59710000D02*
X39903000Y-62210000D01*
X48133000Y-57785000D02*
X46203000Y-57785000D01*
X37973000Y-57785000D02*
X39903000Y-57785000D01*
X46203000Y-56535000D02*
X39903000Y-56535000D01*
X46203000Y-59035000D02*
X46203000Y-56535000D01*
X39903000Y-59035000D02*
X46203000Y-59035000D01*
X39903000Y-56535000D02*
X39903000Y-59035000D01*
X32893000Y-75311000D02*
X33528000Y-74676000D01*
X32893000Y-79756000D02*
X32893000Y-75311000D01*
X35433000Y-79756000D02*
X32893000Y-79756000D01*
X35433000Y-74676000D02*
X35433000Y-79756000D01*
X33528000Y-74676000D02*
X35433000Y-74676000D01*
X80518000Y-50800000D02*
X98298000Y-50800000D01*
X80518000Y-55880000D02*
X80518000Y-50800000D01*
X97298000Y-55880000D02*
X80518000Y-55880000D01*
X98298000Y-54880000D02*
X97298000Y-55880000D01*
X98298000Y-50800000D02*
X98298000Y-54880000D01*
X104140000Y-50800000D02*
X121920000Y-50800000D01*
X104140000Y-55880000D02*
X104140000Y-50800000D01*
X120920000Y-55880000D02*
X104140000Y-55880000D01*
X121920000Y-54880000D02*
X120920000Y-55880000D01*
X121920000Y-50800000D02*
X121920000Y-54880000D01*
X127762000Y-78486000D02*
X127762000Y-129286000D01*
X122682000Y-78486000D02*
X127762000Y-78486000D01*
X122682000Y-128286000D02*
X122682000Y-78486000D01*
X123682000Y-129286000D02*
X122682000Y-128286000D01*
X127762000Y-129286000D02*
X123682000Y-129286000D01*
X44195000Y-131565000D02*
X30495000Y-131565000D01*
X44995000Y-140565000D02*
X44995000Y-132315000D01*
X30495000Y-140565000D02*
X44995000Y-140565000D01*
X30495000Y-131565000D02*
X30495000Y-140565000D01*
X33995000Y-131565000D02*
X33995000Y-140565000D01*
X44191787Y-131559575D02*
X44995000Y-132315000D01*
X52197000Y-64008000D02*
X52832000Y-63373000D01*
X52197000Y-70993000D02*
X52197000Y-64008000D01*
X54737000Y-70993000D02*
X52197000Y-70993000D01*
X54737000Y-63373000D02*
X54737000Y-70993000D01*
X52832000Y-63373000D02*
X54737000Y-63373000D01*
X47117000Y-52832000D02*
X47752000Y-52197000D01*
X47117000Y-54737000D02*
X47117000Y-52832000D01*
X49657000Y-54737000D02*
X47117000Y-54737000D01*
X49657000Y-52197000D02*
X49657000Y-54737000D01*
X47752000Y-52197000D02*
X49657000Y-52197000D01*
X75287000Y-146454190D02*
X75287000Y-144121810D01*
X75287000Y-145288000D02*
G75*
G03*
X75287000Y-145288000I-1500000J0D01*
G01*
X75287555Y-144122524D02*
G75*
G03*
X75287000Y-146454190I-1500555J-1165476D01*
G01*
X72058000Y-54671000D02*
X76358000Y-54671000D01*
X72058000Y-52771000D02*
X72058000Y-54671000D01*
X76358000Y-52771000D02*
X72058000Y-52771000D01*
X76358000Y-54671000D02*
X76358000Y-52771000D01*
X109824000Y-147000000D02*
X114124000Y-147000000D01*
X109824000Y-145100000D02*
X109824000Y-147000000D01*
X114124000Y-145100000D02*
X109824000Y-145100000D01*
X114124000Y-147000000D02*
X114124000Y-145100000D01*
X78027000Y-82738000D02*
X82327000Y-82738000D01*
X78027000Y-80838000D02*
X78027000Y-82738000D01*
X82327000Y-80838000D02*
X78027000Y-80838000D01*
X82327000Y-82738000D02*
X82327000Y-80838000D01*
X97204000Y-147000000D02*
X101504000Y-147000000D01*
X97204000Y-145100000D02*
X97204000Y-147000000D01*
X101504000Y-145100000D02*
X97204000Y-145100000D01*
X101504000Y-147000000D02*
X101504000Y-145100000D01*
X83869000Y-147000000D02*
X88169000Y-147000000D01*
X83869000Y-145100000D02*
X83869000Y-147000000D01*
X88169000Y-145100000D02*
X83869000Y-145100000D01*
X88169000Y-147000000D02*
X88169000Y-145100000D01*
X111203000Y-80838000D02*
X106903000Y-80838000D01*
X111203000Y-82738000D02*
X111203000Y-80838000D01*
X106903000Y-82738000D02*
X111203000Y-82738000D01*
X106903000Y-80838000D02*
X106903000Y-82738000D01*
X33594000Y-89076000D02*
X33594000Y-93376000D01*
X35494000Y-89076000D02*
X33594000Y-89076000D01*
X35494000Y-93376000D02*
X35494000Y-89076000D01*
X33594000Y-93376000D02*
X35494000Y-93376000D01*
X48652500Y-147176759D02*
X49452500Y-147176759D01*
X49052500Y-147576759D02*
X49052500Y-146776759D01*
X54800000Y-144150000D02*
G75*
G03*
X54800000Y-144150000I-4000000J0D01*
G01*
D11*
X62282166Y-144331761D02*
X62425023Y-144379380D01*
X62663119Y-144379380D01*
X62758357Y-144331761D01*
X62805976Y-144284142D01*
X62853595Y-144188904D01*
X62853595Y-144093666D01*
X62805976Y-143998428D01*
X62758357Y-143950809D01*
X62663119Y-143903190D01*
X62472642Y-143855571D01*
X62377404Y-143807952D01*
X62329785Y-143760333D01*
X62282166Y-143665095D01*
X62282166Y-143569857D01*
X62329785Y-143474619D01*
X62377404Y-143427000D01*
X62472642Y-143379380D01*
X62710738Y-143379380D01*
X62853595Y-143427000D01*
X63186928Y-143379380D02*
X63425023Y-144379380D01*
X63615500Y-143665095D01*
X63805976Y-144379380D01*
X64044071Y-143379380D01*
X64948833Y-144379380D02*
X64377404Y-144379380D01*
X64663119Y-144379380D02*
X64663119Y-143379380D01*
X64567880Y-143522238D01*
X64472642Y-143617476D01*
X64377404Y-143665095D01*
X62698380Y-62277523D02*
X63698380Y-61610857D01*
X62698380Y-61610857D02*
X63698380Y-62277523D01*
X63698380Y-60706095D02*
X63698380Y-61277523D01*
X63698380Y-60991809D02*
X62698380Y-60991809D01*
X62841238Y-61087047D01*
X62936476Y-61182285D01*
X62984095Y-61277523D01*
X97369380Y-67817904D02*
X98178904Y-67817904D01*
X98274142Y-67770285D01*
X98321761Y-67722666D01*
X98369380Y-67627428D01*
X98369380Y-67436952D01*
X98321761Y-67341714D01*
X98274142Y-67294095D01*
X98178904Y-67246476D01*
X97369380Y-67246476D01*
X97369380Y-66865523D02*
X97369380Y-66198857D01*
X98369380Y-66627428D01*
X111252095Y-132802380D02*
X111252095Y-133611904D01*
X111299714Y-133707142D01*
X111347333Y-133754761D01*
X111442571Y-133802380D01*
X111633047Y-133802380D01*
X111728285Y-133754761D01*
X111775904Y-133707142D01*
X111823523Y-133611904D01*
X111823523Y-132802380D01*
X112728285Y-132802380D02*
X112537809Y-132802380D01*
X112442571Y-132850000D01*
X112394952Y-132897619D01*
X112299714Y-133040476D01*
X112252095Y-133230952D01*
X112252095Y-133611904D01*
X112299714Y-133707142D01*
X112347333Y-133754761D01*
X112442571Y-133802380D01*
X112633047Y-133802380D01*
X112728285Y-133754761D01*
X112775904Y-133707142D01*
X112823523Y-133611904D01*
X112823523Y-133373809D01*
X112775904Y-133278571D01*
X112728285Y-133230952D01*
X112633047Y-133183333D01*
X112442571Y-133183333D01*
X112347333Y-133230952D01*
X112299714Y-133278571D01*
X112252095Y-133373809D01*
X59539714Y-138497380D02*
X59539714Y-137497380D01*
X59777809Y-137497380D01*
X59920666Y-137545000D01*
X60015904Y-137640238D01*
X60063523Y-137735476D01*
X60111142Y-137925952D01*
X60111142Y-138068809D01*
X60063523Y-138259285D01*
X60015904Y-138354523D01*
X59920666Y-138449761D01*
X59777809Y-138497380D01*
X59539714Y-138497380D01*
X60492095Y-138449761D02*
X60634952Y-138497380D01*
X60873047Y-138497380D01*
X60968285Y-138449761D01*
X61015904Y-138402142D01*
X61063523Y-138306904D01*
X61063523Y-138211666D01*
X61015904Y-138116428D01*
X60968285Y-138068809D01*
X60873047Y-138021190D01*
X60682571Y-137973571D01*
X60587333Y-137925952D01*
X60539714Y-137878333D01*
X60492095Y-137783095D01*
X60492095Y-137687857D01*
X60539714Y-137592619D01*
X60587333Y-137545000D01*
X60682571Y-137497380D01*
X60920666Y-137497380D01*
X61063523Y-137545000D01*
X62015904Y-138497380D02*
X61444476Y-138497380D01*
X61730190Y-138497380D02*
X61730190Y-137497380D01*
X61634952Y-137640238D01*
X61539714Y-137735476D01*
X61444476Y-137783095D01*
X62587333Y-137925952D02*
X62492095Y-137878333D01*
X62444476Y-137830714D01*
X62396857Y-137735476D01*
X62396857Y-137687857D01*
X62444476Y-137592619D01*
X62492095Y-137545000D01*
X62587333Y-137497380D01*
X62777809Y-137497380D01*
X62873047Y-137545000D01*
X62920666Y-137592619D01*
X62968285Y-137687857D01*
X62968285Y-137735476D01*
X62920666Y-137830714D01*
X62873047Y-137878333D01*
X62777809Y-137925952D01*
X62587333Y-137925952D01*
X62492095Y-137973571D01*
X62444476Y-138021190D01*
X62396857Y-138116428D01*
X62396857Y-138306904D01*
X62444476Y-138402142D01*
X62492095Y-138449761D01*
X62587333Y-138497380D01*
X62777809Y-138497380D01*
X62873047Y-138449761D01*
X62920666Y-138402142D01*
X62968285Y-138306904D01*
X62968285Y-138116428D01*
X62920666Y-138021190D01*
X62873047Y-137973571D01*
X62777809Y-137925952D01*
X63920666Y-138497380D02*
X63349238Y-138497380D01*
X63634952Y-138497380D02*
X63634952Y-137497380D01*
X63539714Y-137640238D01*
X63444476Y-137735476D01*
X63349238Y-137783095D01*
X64254000Y-137497380D02*
X64873047Y-137497380D01*
X64539714Y-137878333D01*
X64682571Y-137878333D01*
X64777809Y-137925952D01*
X64825428Y-137973571D01*
X64873047Y-138068809D01*
X64873047Y-138306904D01*
X64825428Y-138402142D01*
X64777809Y-138449761D01*
X64682571Y-138497380D01*
X64396857Y-138497380D01*
X64301619Y-138449761D01*
X64254000Y-138402142D01*
X65301619Y-138116428D02*
X66063523Y-138116428D01*
X67063523Y-138497380D02*
X66492095Y-138497380D01*
X66777809Y-138497380D02*
X66777809Y-137497380D01*
X66682571Y-137640238D01*
X66587333Y-137735476D01*
X66492095Y-137783095D01*
X67682571Y-137497380D02*
X67777809Y-137497380D01*
X67873047Y-137545000D01*
X67920666Y-137592619D01*
X67968285Y-137687857D01*
X68015904Y-137878333D01*
X68015904Y-138116428D01*
X67968285Y-138306904D01*
X67920666Y-138402142D01*
X67873047Y-138449761D01*
X67777809Y-138497380D01*
X67682571Y-138497380D01*
X67587333Y-138449761D01*
X67539714Y-138402142D01*
X67492095Y-138306904D01*
X67444476Y-138116428D01*
X67444476Y-137878333D01*
X67492095Y-137687857D01*
X67539714Y-137592619D01*
X67587333Y-137545000D01*
X67682571Y-137497380D01*
X62992095Y-134707380D02*
X62992095Y-135516904D01*
X63039714Y-135612142D01*
X63087333Y-135659761D01*
X63182571Y-135707380D01*
X63373047Y-135707380D01*
X63468285Y-135659761D01*
X63515904Y-135612142D01*
X63563523Y-135516904D01*
X63563523Y-134707380D01*
X64182571Y-135135952D02*
X64087333Y-135088333D01*
X64039714Y-135040714D01*
X63992095Y-134945476D01*
X63992095Y-134897857D01*
X64039714Y-134802619D01*
X64087333Y-134755000D01*
X64182571Y-134707380D01*
X64373047Y-134707380D01*
X64468285Y-134755000D01*
X64515904Y-134802619D01*
X64563523Y-134897857D01*
X64563523Y-134945476D01*
X64515904Y-135040714D01*
X64468285Y-135088333D01*
X64373047Y-135135952D01*
X64182571Y-135135952D01*
X64087333Y-135183571D01*
X64039714Y-135231190D01*
X63992095Y-135326428D01*
X63992095Y-135516904D01*
X64039714Y-135612142D01*
X64087333Y-135659761D01*
X64182571Y-135707380D01*
X64373047Y-135707380D01*
X64468285Y-135659761D01*
X64515904Y-135612142D01*
X64563523Y-135516904D01*
X64563523Y-135326428D01*
X64515904Y-135231190D01*
X64468285Y-135183571D01*
X64373047Y-135135952D01*
X98552095Y-132802380D02*
X98552095Y-133611904D01*
X98599714Y-133707142D01*
X98647333Y-133754761D01*
X98742571Y-133802380D01*
X98933047Y-133802380D01*
X99028285Y-133754761D01*
X99075904Y-133707142D01*
X99123523Y-133611904D01*
X99123523Y-132802380D01*
X100075904Y-132802380D02*
X99599714Y-132802380D01*
X99552095Y-133278571D01*
X99599714Y-133230952D01*
X99694952Y-133183333D01*
X99933047Y-133183333D01*
X100028285Y-133230952D01*
X100075904Y-133278571D01*
X100123523Y-133373809D01*
X100123523Y-133611904D01*
X100075904Y-133707142D01*
X100028285Y-133754761D01*
X99933047Y-133802380D01*
X99694952Y-133802380D01*
X99599714Y-133754761D01*
X99552095Y-133707142D01*
X85217095Y-132802380D02*
X85217095Y-133611904D01*
X85264714Y-133707142D01*
X85312333Y-133754761D01*
X85407571Y-133802380D01*
X85598047Y-133802380D01*
X85693285Y-133754761D01*
X85740904Y-133707142D01*
X85788523Y-133611904D01*
X85788523Y-132802380D01*
X86693285Y-133135714D02*
X86693285Y-133802380D01*
X86455190Y-132754761D02*
X86217095Y-133469047D01*
X86836142Y-133469047D01*
X98171095Y-102322380D02*
X98171095Y-103131904D01*
X98218714Y-103227142D01*
X98266333Y-103274761D01*
X98361571Y-103322380D01*
X98552047Y-103322380D01*
X98647285Y-103274761D01*
X98694904Y-103227142D01*
X98742523Y-103131904D01*
X98742523Y-102322380D01*
X99123476Y-102322380D02*
X99742523Y-102322380D01*
X99409190Y-102703333D01*
X99552047Y-102703333D01*
X99647285Y-102750952D01*
X99694904Y-102798571D01*
X99742523Y-102893809D01*
X99742523Y-103131904D01*
X99694904Y-103227142D01*
X99647285Y-103274761D01*
X99552047Y-103322380D01*
X99266333Y-103322380D01*
X99171095Y-103274761D01*
X99123476Y-103227142D01*
X44958095Y-99528380D02*
X44958095Y-100337904D01*
X45005714Y-100433142D01*
X45053333Y-100480761D01*
X45148571Y-100528380D01*
X45339047Y-100528380D01*
X45434285Y-100480761D01*
X45481904Y-100433142D01*
X45529523Y-100337904D01*
X45529523Y-99528380D01*
X46529523Y-100528380D02*
X45958095Y-100528380D01*
X46243809Y-100528380D02*
X46243809Y-99528380D01*
X46148571Y-99671238D01*
X46053333Y-99766476D01*
X45958095Y-99814095D01*
X74295095Y-102322380D02*
X74295095Y-103131904D01*
X74342714Y-103227142D01*
X74390333Y-103274761D01*
X74485571Y-103322380D01*
X74676047Y-103322380D01*
X74771285Y-103274761D01*
X74818904Y-103227142D01*
X74866523Y-103131904D01*
X74866523Y-102322380D01*
X75295095Y-102417619D02*
X75342714Y-102370000D01*
X75437952Y-102322380D01*
X75676047Y-102322380D01*
X75771285Y-102370000D01*
X75818904Y-102417619D01*
X75866523Y-102512857D01*
X75866523Y-102608095D01*
X75818904Y-102750952D01*
X75247476Y-103322380D01*
X75866523Y-103322380D01*
X55888095Y-130802380D02*
X56459523Y-130802380D01*
X56173809Y-131802380D02*
X56173809Y-130802380D01*
X56792857Y-131802380D02*
X56792857Y-130802380D01*
X57173809Y-130802380D01*
X57269047Y-130850000D01*
X57316666Y-130897619D01*
X57364285Y-130992857D01*
X57364285Y-131135714D01*
X57316666Y-131230952D01*
X57269047Y-131278571D01*
X57173809Y-131326190D01*
X56792857Y-131326190D01*
X57745238Y-130897619D02*
X57792857Y-130850000D01*
X57888095Y-130802380D01*
X58126190Y-130802380D01*
X58221428Y-130850000D01*
X58269047Y-130897619D01*
X58316666Y-130992857D01*
X58316666Y-131088095D01*
X58269047Y-131230952D01*
X57697619Y-131802380D01*
X58316666Y-131802380D01*
X52205095Y-50919380D02*
X52776523Y-50919380D01*
X52490809Y-51919380D02*
X52490809Y-50919380D01*
X53109857Y-51919380D02*
X53109857Y-50919380D01*
X53490809Y-50919380D01*
X53586047Y-50967000D01*
X53633666Y-51014619D01*
X53681285Y-51109857D01*
X53681285Y-51252714D01*
X53633666Y-51347952D01*
X53586047Y-51395571D01*
X53490809Y-51443190D01*
X53109857Y-51443190D01*
X54633666Y-51919380D02*
X54062238Y-51919380D01*
X54347952Y-51919380D02*
X54347952Y-50919380D01*
X54252714Y-51062238D01*
X54157476Y-51157476D01*
X54062238Y-51205095D01*
X70599380Y-135667666D02*
X70599380Y-136239095D01*
X70599380Y-135953380D02*
X69599380Y-135953380D01*
X69742238Y-136048619D01*
X69837476Y-136143857D01*
X69885095Y-136239095D01*
X69599380Y-134762904D02*
X69599380Y-135239095D01*
X70075571Y-135286714D01*
X70027952Y-135239095D01*
X69980333Y-135143857D01*
X69980333Y-134905761D01*
X70027952Y-134810523D01*
X70075571Y-134762904D01*
X70170809Y-134715285D01*
X70408904Y-134715285D01*
X70504142Y-134762904D01*
X70551761Y-134810523D01*
X70599380Y-134905761D01*
X70599380Y-135143857D01*
X70551761Y-135239095D01*
X70504142Y-135286714D01*
X69599380Y-134096238D02*
X69599380Y-134001000D01*
X69647000Y-133905761D01*
X69694619Y-133858142D01*
X69789857Y-133810523D01*
X69980333Y-133762904D01*
X70218428Y-133762904D01*
X70408904Y-133810523D01*
X70504142Y-133858142D01*
X70551761Y-133905761D01*
X70599380Y-134001000D01*
X70599380Y-134096238D01*
X70551761Y-134191476D01*
X70504142Y-134239095D01*
X70408904Y-134286714D01*
X70218428Y-134334333D01*
X69980333Y-134334333D01*
X69789857Y-134286714D01*
X69694619Y-134239095D01*
X69647000Y-134191476D01*
X69599380Y-134096238D01*
X72969380Y-135167666D02*
X72493190Y-135501000D01*
X72969380Y-135739095D02*
X71969380Y-135739095D01*
X71969380Y-135358142D01*
X72017000Y-135262904D01*
X72064619Y-135215285D01*
X72159857Y-135167666D01*
X72302714Y-135167666D01*
X72397952Y-135215285D01*
X72445571Y-135262904D01*
X72493190Y-135358142D01*
X72493190Y-135739095D01*
X71969380Y-134310523D02*
X71969380Y-134501000D01*
X72017000Y-134596238D01*
X72064619Y-134643857D01*
X72207476Y-134739095D01*
X72397952Y-134786714D01*
X72778904Y-134786714D01*
X72874142Y-134739095D01*
X72921761Y-134691476D01*
X72969380Y-134596238D01*
X72969380Y-134405761D01*
X72921761Y-134310523D01*
X72874142Y-134262904D01*
X72778904Y-134215285D01*
X72540809Y-134215285D01*
X72445571Y-134262904D01*
X72397952Y-134310523D01*
X72350333Y-134405761D01*
X72350333Y-134596238D01*
X72397952Y-134691476D01*
X72445571Y-134739095D01*
X72540809Y-134786714D01*
X41743476Y-72434380D02*
X42362523Y-72434380D01*
X42029190Y-72815333D01*
X42172047Y-72815333D01*
X42267285Y-72862952D01*
X42314904Y-72910571D01*
X42362523Y-73005809D01*
X42362523Y-73243904D01*
X42314904Y-73339142D01*
X42267285Y-73386761D01*
X42172047Y-73434380D01*
X41886333Y-73434380D01*
X41791095Y-73386761D01*
X41743476Y-73339142D01*
X42791095Y-73434380D02*
X42791095Y-72434380D01*
X43362523Y-73434380D02*
X42933952Y-72862952D01*
X43362523Y-72434380D02*
X42791095Y-73005809D01*
X43695857Y-72434380D02*
X44314904Y-72434380D01*
X43981571Y-72815333D01*
X44124428Y-72815333D01*
X44219666Y-72862952D01*
X44267285Y-72910571D01*
X44314904Y-73005809D01*
X44314904Y-73243904D01*
X44267285Y-73339142D01*
X44219666Y-73386761D01*
X44124428Y-73434380D01*
X43838714Y-73434380D01*
X43743476Y-73386761D01*
X43695857Y-73339142D01*
X42886333Y-71064380D02*
X42553000Y-70588190D01*
X42314904Y-71064380D02*
X42314904Y-70064380D01*
X42695857Y-70064380D01*
X42791095Y-70112000D01*
X42838714Y-70159619D01*
X42886333Y-70254857D01*
X42886333Y-70397714D01*
X42838714Y-70492952D01*
X42791095Y-70540571D01*
X42695857Y-70588190D01*
X42314904Y-70588190D01*
X43791095Y-70064380D02*
X43314904Y-70064380D01*
X43267285Y-70540571D01*
X43314904Y-70492952D01*
X43410142Y-70445333D01*
X43648238Y-70445333D01*
X43743476Y-70492952D01*
X43791095Y-70540571D01*
X43838714Y-70635809D01*
X43838714Y-70873904D01*
X43791095Y-70969142D01*
X43743476Y-71016761D01*
X43648238Y-71064380D01*
X43410142Y-71064380D01*
X43314904Y-71016761D01*
X43267285Y-70969142D01*
X41743476Y-69132380D02*
X42362523Y-69132380D01*
X42029190Y-69513333D01*
X42172047Y-69513333D01*
X42267285Y-69560952D01*
X42314904Y-69608571D01*
X42362523Y-69703809D01*
X42362523Y-69941904D01*
X42314904Y-70037142D01*
X42267285Y-70084761D01*
X42172047Y-70132380D01*
X41886333Y-70132380D01*
X41791095Y-70084761D01*
X41743476Y-70037142D01*
X42791095Y-70132380D02*
X42791095Y-69132380D01*
X43362523Y-70132380D02*
X42933952Y-69560952D01*
X43362523Y-69132380D02*
X42791095Y-69703809D01*
X43695857Y-69132380D02*
X44314904Y-69132380D01*
X43981571Y-69513333D01*
X44124428Y-69513333D01*
X44219666Y-69560952D01*
X44267285Y-69608571D01*
X44314904Y-69703809D01*
X44314904Y-69941904D01*
X44267285Y-70037142D01*
X44219666Y-70084761D01*
X44124428Y-70132380D01*
X43838714Y-70132380D01*
X43743476Y-70084761D01*
X43695857Y-70037142D01*
X42886333Y-67762380D02*
X42553000Y-67286190D01*
X42314904Y-67762380D02*
X42314904Y-66762380D01*
X42695857Y-66762380D01*
X42791095Y-66810000D01*
X42838714Y-66857619D01*
X42886333Y-66952857D01*
X42886333Y-67095714D01*
X42838714Y-67190952D01*
X42791095Y-67238571D01*
X42695857Y-67286190D01*
X42314904Y-67286190D01*
X43743476Y-67095714D02*
X43743476Y-67762380D01*
X43505380Y-66714761D02*
X43267285Y-67429047D01*
X43886333Y-67429047D01*
X41743476Y-65957380D02*
X42362523Y-65957380D01*
X42029190Y-66338333D01*
X42172047Y-66338333D01*
X42267285Y-66385952D01*
X42314904Y-66433571D01*
X42362523Y-66528809D01*
X42362523Y-66766904D01*
X42314904Y-66862142D01*
X42267285Y-66909761D01*
X42172047Y-66957380D01*
X41886333Y-66957380D01*
X41791095Y-66909761D01*
X41743476Y-66862142D01*
X42791095Y-66957380D02*
X42791095Y-65957380D01*
X43362523Y-66957380D02*
X42933952Y-66385952D01*
X43362523Y-65957380D02*
X42791095Y-66528809D01*
X43695857Y-65957380D02*
X44314904Y-65957380D01*
X43981571Y-66338333D01*
X44124428Y-66338333D01*
X44219666Y-66385952D01*
X44267285Y-66433571D01*
X44314904Y-66528809D01*
X44314904Y-66766904D01*
X44267285Y-66862142D01*
X44219666Y-66909761D01*
X44124428Y-66957380D01*
X43838714Y-66957380D01*
X43743476Y-66909761D01*
X43695857Y-66862142D01*
X42886333Y-64587380D02*
X42553000Y-64111190D01*
X42314904Y-64587380D02*
X42314904Y-63587380D01*
X42695857Y-63587380D01*
X42791095Y-63635000D01*
X42838714Y-63682619D01*
X42886333Y-63777857D01*
X42886333Y-63920714D01*
X42838714Y-64015952D01*
X42791095Y-64063571D01*
X42695857Y-64111190D01*
X42314904Y-64111190D01*
X43219666Y-63587380D02*
X43838714Y-63587380D01*
X43505380Y-63968333D01*
X43648238Y-63968333D01*
X43743476Y-64015952D01*
X43791095Y-64063571D01*
X43838714Y-64158809D01*
X43838714Y-64396904D01*
X43791095Y-64492142D01*
X43743476Y-64539761D01*
X43648238Y-64587380D01*
X43362523Y-64587380D01*
X43267285Y-64539761D01*
X43219666Y-64492142D01*
X41743476Y-62782380D02*
X42362523Y-62782380D01*
X42029190Y-63163333D01*
X42172047Y-63163333D01*
X42267285Y-63210952D01*
X42314904Y-63258571D01*
X42362523Y-63353809D01*
X42362523Y-63591904D01*
X42314904Y-63687142D01*
X42267285Y-63734761D01*
X42172047Y-63782380D01*
X41886333Y-63782380D01*
X41791095Y-63734761D01*
X41743476Y-63687142D01*
X42791095Y-63782380D02*
X42791095Y-62782380D01*
X43362523Y-63782380D02*
X42933952Y-63210952D01*
X43362523Y-62782380D02*
X42791095Y-63353809D01*
X43695857Y-62782380D02*
X44314904Y-62782380D01*
X43981571Y-63163333D01*
X44124428Y-63163333D01*
X44219666Y-63210952D01*
X44267285Y-63258571D01*
X44314904Y-63353809D01*
X44314904Y-63591904D01*
X44267285Y-63687142D01*
X44219666Y-63734761D01*
X44124428Y-63782380D01*
X43838714Y-63782380D01*
X43743476Y-63734761D01*
X43695857Y-63687142D01*
X42886333Y-61412380D02*
X42553000Y-60936190D01*
X42314904Y-61412380D02*
X42314904Y-60412380D01*
X42695857Y-60412380D01*
X42791095Y-60460000D01*
X42838714Y-60507619D01*
X42886333Y-60602857D01*
X42886333Y-60745714D01*
X42838714Y-60840952D01*
X42791095Y-60888571D01*
X42695857Y-60936190D01*
X42314904Y-60936190D01*
X43267285Y-60507619D02*
X43314904Y-60460000D01*
X43410142Y-60412380D01*
X43648238Y-60412380D01*
X43743476Y-60460000D01*
X43791095Y-60507619D01*
X43838714Y-60602857D01*
X43838714Y-60698095D01*
X43791095Y-60840952D01*
X43219666Y-61412380D01*
X43838714Y-61412380D01*
X41743476Y-59607380D02*
X42362523Y-59607380D01*
X42029190Y-59988333D01*
X42172047Y-59988333D01*
X42267285Y-60035952D01*
X42314904Y-60083571D01*
X42362523Y-60178809D01*
X42362523Y-60416904D01*
X42314904Y-60512142D01*
X42267285Y-60559761D01*
X42172047Y-60607380D01*
X41886333Y-60607380D01*
X41791095Y-60559761D01*
X41743476Y-60512142D01*
X42791095Y-60607380D02*
X42791095Y-59607380D01*
X43362523Y-60607380D02*
X42933952Y-60035952D01*
X43362523Y-59607380D02*
X42791095Y-60178809D01*
X43695857Y-59607380D02*
X44314904Y-59607380D01*
X43981571Y-59988333D01*
X44124428Y-59988333D01*
X44219666Y-60035952D01*
X44267285Y-60083571D01*
X44314904Y-60178809D01*
X44314904Y-60416904D01*
X44267285Y-60512142D01*
X44219666Y-60559761D01*
X44124428Y-60607380D01*
X43838714Y-60607380D01*
X43743476Y-60559761D01*
X43695857Y-60512142D01*
X42886333Y-58237380D02*
X42553000Y-57761190D01*
X42314904Y-58237380D02*
X42314904Y-57237380D01*
X42695857Y-57237380D01*
X42791095Y-57285000D01*
X42838714Y-57332619D01*
X42886333Y-57427857D01*
X42886333Y-57570714D01*
X42838714Y-57665952D01*
X42791095Y-57713571D01*
X42695857Y-57761190D01*
X42314904Y-57761190D01*
X43838714Y-58237380D02*
X43267285Y-58237380D01*
X43553000Y-58237380D02*
X43553000Y-57237380D01*
X43457761Y-57380238D01*
X43362523Y-57475476D01*
X43267285Y-57523095D01*
X33615380Y-78049333D02*
X34329666Y-78049333D01*
X34472523Y-78096952D01*
X34567761Y-78192190D01*
X34615380Y-78335047D01*
X34615380Y-78430285D01*
X34615380Y-77573142D02*
X33615380Y-77573142D01*
X33615380Y-77192190D01*
X33663000Y-77096952D01*
X33710619Y-77049333D01*
X33805857Y-77001714D01*
X33948714Y-77001714D01*
X34043952Y-77049333D01*
X34091571Y-77096952D01*
X34139190Y-77192190D01*
X34139190Y-77573142D01*
X34615380Y-76049333D02*
X34615380Y-76620761D01*
X34615380Y-76335047D02*
X33615380Y-76335047D01*
X33758238Y-76430285D01*
X33853476Y-76525523D01*
X33901095Y-76620761D01*
X89074666Y-52792380D02*
X89074666Y-53506666D01*
X89027047Y-53649523D01*
X88931809Y-53744761D01*
X88788952Y-53792380D01*
X88693714Y-53792380D01*
X89979428Y-52792380D02*
X89788952Y-52792380D01*
X89693714Y-52840000D01*
X89646095Y-52887619D01*
X89550857Y-53030476D01*
X89503238Y-53220952D01*
X89503238Y-53601904D01*
X89550857Y-53697142D01*
X89598476Y-53744761D01*
X89693714Y-53792380D01*
X89884190Y-53792380D01*
X89979428Y-53744761D01*
X90027047Y-53697142D01*
X90074666Y-53601904D01*
X90074666Y-53363809D01*
X90027047Y-53268571D01*
X89979428Y-53220952D01*
X89884190Y-53173333D01*
X89693714Y-53173333D01*
X89598476Y-53220952D01*
X89550857Y-53268571D01*
X89503238Y-53363809D01*
X112696666Y-52792380D02*
X112696666Y-53506666D01*
X112649047Y-53649523D01*
X112553809Y-53744761D01*
X112410952Y-53792380D01*
X112315714Y-53792380D01*
X113649047Y-52792380D02*
X113172857Y-52792380D01*
X113125238Y-53268571D01*
X113172857Y-53220952D01*
X113268095Y-53173333D01*
X113506190Y-53173333D01*
X113601428Y-53220952D01*
X113649047Y-53268571D01*
X113696666Y-53363809D01*
X113696666Y-53601904D01*
X113649047Y-53697142D01*
X113601428Y-53744761D01*
X113506190Y-53792380D01*
X113268095Y-53792380D01*
X113172857Y-53744761D01*
X113125238Y-53697142D01*
X124674380Y-104219333D02*
X125388666Y-104219333D01*
X125531523Y-104266952D01*
X125626761Y-104362190D01*
X125674380Y-104505047D01*
X125674380Y-104600285D01*
X125007714Y-103314571D02*
X125674380Y-103314571D01*
X124626761Y-103552666D02*
X125341047Y-103790761D01*
X125341047Y-103171714D01*
X40861666Y-132567380D02*
X40861666Y-133281666D01*
X40814047Y-133424523D01*
X40718809Y-133519761D01*
X40575952Y-133567380D01*
X40480714Y-133567380D01*
X41242619Y-132567380D02*
X41861666Y-132567380D01*
X41528333Y-132948333D01*
X41671190Y-132948333D01*
X41766428Y-132995952D01*
X41814047Y-133043571D01*
X41861666Y-133138809D01*
X41861666Y-133376904D01*
X41814047Y-133472142D01*
X41766428Y-133519761D01*
X41671190Y-133567380D01*
X41385476Y-133567380D01*
X41290238Y-133519761D01*
X41242619Y-133472142D01*
X52919380Y-68016333D02*
X53633666Y-68016333D01*
X53776523Y-68063952D01*
X53871761Y-68159190D01*
X53919380Y-68302047D01*
X53919380Y-68397285D01*
X53919380Y-67540142D02*
X52919380Y-67540142D01*
X52919380Y-67159190D01*
X52967000Y-67063952D01*
X53014619Y-67016333D01*
X53109857Y-66968714D01*
X53252714Y-66968714D01*
X53347952Y-67016333D01*
X53395571Y-67063952D01*
X53443190Y-67159190D01*
X53443190Y-67540142D01*
X53014619Y-66587761D02*
X52967000Y-66540142D01*
X52919380Y-66444904D01*
X52919380Y-66206809D01*
X52967000Y-66111571D01*
X53014619Y-66063952D01*
X53109857Y-66016333D01*
X53205095Y-66016333D01*
X53347952Y-66063952D01*
X53919380Y-66635380D01*
X53919380Y-66016333D01*
X47839380Y-53800333D02*
X48553666Y-53800333D01*
X48696523Y-53847952D01*
X48791761Y-53943190D01*
X48839380Y-54086047D01*
X48839380Y-54181285D01*
X48839380Y-52800333D02*
X48839380Y-53371761D01*
X48839380Y-53086047D02*
X47839380Y-53086047D01*
X47982238Y-53181285D01*
X48077476Y-53276523D01*
X48125095Y-53371761D01*
X34209095Y-146756380D02*
X34209095Y-145756380D01*
X34209095Y-146232571D02*
X34780523Y-146232571D01*
X34780523Y-146756380D02*
X34780523Y-145756380D01*
X35685285Y-146089714D02*
X35685285Y-146756380D01*
X35447190Y-145708761D02*
X35209095Y-146423047D01*
X35828142Y-146423047D01*
X34209095Y-54173380D02*
X34209095Y-53173380D01*
X34209095Y-53649571D02*
X34780523Y-53649571D01*
X34780523Y-54173380D02*
X34780523Y-53173380D01*
X35161476Y-53173380D02*
X35780523Y-53173380D01*
X35447190Y-53554333D01*
X35590047Y-53554333D01*
X35685285Y-53601952D01*
X35732904Y-53649571D01*
X35780523Y-53744809D01*
X35780523Y-53982904D01*
X35732904Y-54078142D01*
X35685285Y-54125761D01*
X35590047Y-54173380D01*
X35304333Y-54173380D01*
X35209095Y-54125761D01*
X35161476Y-54078142D01*
X126792095Y-54173380D02*
X126792095Y-53173380D01*
X126792095Y-53649571D02*
X127363523Y-53649571D01*
X127363523Y-54173380D02*
X127363523Y-53173380D01*
X127792095Y-53268619D02*
X127839714Y-53221000D01*
X127934952Y-53173380D01*
X128173047Y-53173380D01*
X128268285Y-53221000D01*
X128315904Y-53268619D01*
X128363523Y-53363857D01*
X128363523Y-53459095D01*
X128315904Y-53601952D01*
X127744476Y-54173380D01*
X128363523Y-54173380D01*
X126792095Y-146756380D02*
X126792095Y-145756380D01*
X126792095Y-146232571D02*
X127363523Y-146232571D01*
X127363523Y-146756380D02*
X127363523Y-145756380D01*
X128363523Y-146756380D02*
X127792095Y-146756380D01*
X128077809Y-146756380D02*
X128077809Y-145756380D01*
X127982571Y-145899238D01*
X127887333Y-145994476D01*
X127792095Y-146042095D01*
X72565142Y-50973380D02*
X72660380Y-50973380D01*
X72755619Y-51021000D01*
X72803238Y-51068619D01*
X72850857Y-51163857D01*
X72898476Y-51354333D01*
X72898476Y-51592428D01*
X72850857Y-51782904D01*
X72803238Y-51878142D01*
X72755619Y-51925761D01*
X72660380Y-51973380D01*
X72565142Y-51973380D01*
X72469904Y-51925761D01*
X72422285Y-51878142D01*
X72374666Y-51782904D01*
X72327047Y-51592428D01*
X72327047Y-51354333D01*
X72374666Y-51163857D01*
X72422285Y-51068619D01*
X72469904Y-51021000D01*
X72565142Y-50973380D01*
X73327047Y-51878142D02*
X73374666Y-51925761D01*
X73327047Y-51973380D01*
X73279428Y-51925761D01*
X73327047Y-51878142D01*
X73327047Y-51973380D01*
X74327047Y-51973380D02*
X73755619Y-51973380D01*
X74041333Y-51973380D02*
X74041333Y-50973380D01*
X73946095Y-51116238D01*
X73850857Y-51211476D01*
X73755619Y-51259095D01*
X75184190Y-51306714D02*
X75184190Y-51973380D01*
X74755619Y-51306714D02*
X74755619Y-51830523D01*
X74803238Y-51925761D01*
X74898476Y-51973380D01*
X75041333Y-51973380D01*
X75136571Y-51925761D01*
X75184190Y-51878142D01*
X75993714Y-51449571D02*
X75660380Y-51449571D01*
X75660380Y-51973380D02*
X75660380Y-50973380D01*
X76136571Y-50973380D01*
D12*
X74064666Y-54028142D02*
X74023714Y-54069095D01*
X73900857Y-54110047D01*
X73818952Y-54110047D01*
X73696095Y-54069095D01*
X73614190Y-53987190D01*
X73573238Y-53905285D01*
X73532285Y-53741476D01*
X73532285Y-53618619D01*
X73573238Y-53454809D01*
X73614190Y-53372904D01*
X73696095Y-53291000D01*
X73818952Y-53250047D01*
X73900857Y-53250047D01*
X74023714Y-53291000D01*
X74064666Y-53331952D01*
X74351333Y-53250047D02*
X74924666Y-53250047D01*
X74556095Y-54110047D01*
D11*
X110331142Y-143302380D02*
X110426380Y-143302380D01*
X110521619Y-143350000D01*
X110569238Y-143397619D01*
X110616857Y-143492857D01*
X110664476Y-143683333D01*
X110664476Y-143921428D01*
X110616857Y-144111904D01*
X110569238Y-144207142D01*
X110521619Y-144254761D01*
X110426380Y-144302380D01*
X110331142Y-144302380D01*
X110235904Y-144254761D01*
X110188285Y-144207142D01*
X110140666Y-144111904D01*
X110093047Y-143921428D01*
X110093047Y-143683333D01*
X110140666Y-143492857D01*
X110188285Y-143397619D01*
X110235904Y-143350000D01*
X110331142Y-143302380D01*
X111093047Y-144207142D02*
X111140666Y-144254761D01*
X111093047Y-144302380D01*
X111045428Y-144254761D01*
X111093047Y-144207142D01*
X111093047Y-144302380D01*
X112093047Y-144302380D02*
X111521619Y-144302380D01*
X111807333Y-144302380D02*
X111807333Y-143302380D01*
X111712095Y-143445238D01*
X111616857Y-143540476D01*
X111521619Y-143588095D01*
X112950190Y-143635714D02*
X112950190Y-144302380D01*
X112521619Y-143635714D02*
X112521619Y-144159523D01*
X112569238Y-144254761D01*
X112664476Y-144302380D01*
X112807333Y-144302380D01*
X112902571Y-144254761D01*
X112950190Y-144207142D01*
X113759714Y-143778571D02*
X113426380Y-143778571D01*
X113426380Y-144302380D02*
X113426380Y-143302380D01*
X113902571Y-143302380D01*
D12*
X111830666Y-146357142D02*
X111789714Y-146398095D01*
X111666857Y-146439047D01*
X111584952Y-146439047D01*
X111462095Y-146398095D01*
X111380190Y-146316190D01*
X111339238Y-146234285D01*
X111298285Y-146070476D01*
X111298285Y-145947619D01*
X111339238Y-145783809D01*
X111380190Y-145701904D01*
X111462095Y-145620000D01*
X111584952Y-145579047D01*
X111666857Y-145579047D01*
X111789714Y-145620000D01*
X111830666Y-145660952D01*
X112567809Y-145579047D02*
X112404000Y-145579047D01*
X112322095Y-145620000D01*
X112281142Y-145660952D01*
X112199238Y-145783809D01*
X112158285Y-145947619D01*
X112158285Y-146275238D01*
X112199238Y-146357142D01*
X112240190Y-146398095D01*
X112322095Y-146439047D01*
X112485904Y-146439047D01*
X112567809Y-146398095D01*
X112608761Y-146357142D01*
X112649714Y-146275238D01*
X112649714Y-146070476D01*
X112608761Y-145988571D01*
X112567809Y-145947619D01*
X112485904Y-145906666D01*
X112322095Y-145906666D01*
X112240190Y-145947619D01*
X112199238Y-145988571D01*
X112158285Y-146070476D01*
D11*
X78534142Y-79040380D02*
X78629380Y-79040380D01*
X78724619Y-79088000D01*
X78772238Y-79135619D01*
X78819857Y-79230857D01*
X78867476Y-79421333D01*
X78867476Y-79659428D01*
X78819857Y-79849904D01*
X78772238Y-79945142D01*
X78724619Y-79992761D01*
X78629380Y-80040380D01*
X78534142Y-80040380D01*
X78438904Y-79992761D01*
X78391285Y-79945142D01*
X78343666Y-79849904D01*
X78296047Y-79659428D01*
X78296047Y-79421333D01*
X78343666Y-79230857D01*
X78391285Y-79135619D01*
X78438904Y-79088000D01*
X78534142Y-79040380D01*
X79296047Y-79945142D02*
X79343666Y-79992761D01*
X79296047Y-80040380D01*
X79248428Y-79992761D01*
X79296047Y-79945142D01*
X79296047Y-80040380D01*
X80296047Y-80040380D02*
X79724619Y-80040380D01*
X80010333Y-80040380D02*
X80010333Y-79040380D01*
X79915095Y-79183238D01*
X79819857Y-79278476D01*
X79724619Y-79326095D01*
X81153190Y-79373714D02*
X81153190Y-80040380D01*
X80724619Y-79373714D02*
X80724619Y-79897523D01*
X80772238Y-79992761D01*
X80867476Y-80040380D01*
X81010333Y-80040380D01*
X81105571Y-79992761D01*
X81153190Y-79945142D01*
X81962714Y-79516571D02*
X81629380Y-79516571D01*
X81629380Y-80040380D02*
X81629380Y-79040380D01*
X82105571Y-79040380D01*
D12*
X80033666Y-82095142D02*
X79992714Y-82136095D01*
X79869857Y-82177047D01*
X79787952Y-82177047D01*
X79665095Y-82136095D01*
X79583190Y-82054190D01*
X79542238Y-81972285D01*
X79501285Y-81808476D01*
X79501285Y-81685619D01*
X79542238Y-81521809D01*
X79583190Y-81439904D01*
X79665095Y-81358000D01*
X79787952Y-81317047D01*
X79869857Y-81317047D01*
X79992714Y-81358000D01*
X80033666Y-81398952D01*
X80361285Y-81398952D02*
X80402238Y-81358000D01*
X80484142Y-81317047D01*
X80688904Y-81317047D01*
X80770809Y-81358000D01*
X80811761Y-81398952D01*
X80852714Y-81480857D01*
X80852714Y-81562761D01*
X80811761Y-81685619D01*
X80320333Y-82177047D01*
X80852714Y-82177047D01*
D11*
X97711142Y-143302380D02*
X97806380Y-143302380D01*
X97901619Y-143350000D01*
X97949238Y-143397619D01*
X97996857Y-143492857D01*
X98044476Y-143683333D01*
X98044476Y-143921428D01*
X97996857Y-144111904D01*
X97949238Y-144207142D01*
X97901619Y-144254761D01*
X97806380Y-144302380D01*
X97711142Y-144302380D01*
X97615904Y-144254761D01*
X97568285Y-144207142D01*
X97520666Y-144111904D01*
X97473047Y-143921428D01*
X97473047Y-143683333D01*
X97520666Y-143492857D01*
X97568285Y-143397619D01*
X97615904Y-143350000D01*
X97711142Y-143302380D01*
X98473047Y-144207142D02*
X98520666Y-144254761D01*
X98473047Y-144302380D01*
X98425428Y-144254761D01*
X98473047Y-144207142D01*
X98473047Y-144302380D01*
X99473047Y-144302380D02*
X98901619Y-144302380D01*
X99187333Y-144302380D02*
X99187333Y-143302380D01*
X99092095Y-143445238D01*
X98996857Y-143540476D01*
X98901619Y-143588095D01*
X100330190Y-143635714D02*
X100330190Y-144302380D01*
X99901619Y-143635714D02*
X99901619Y-144159523D01*
X99949238Y-144254761D01*
X100044476Y-144302380D01*
X100187333Y-144302380D01*
X100282571Y-144254761D01*
X100330190Y-144207142D01*
X101139714Y-143778571D02*
X100806380Y-143778571D01*
X100806380Y-144302380D02*
X100806380Y-143302380D01*
X101282571Y-143302380D01*
D12*
X99210666Y-146357142D02*
X99169714Y-146398095D01*
X99046857Y-146439047D01*
X98964952Y-146439047D01*
X98842095Y-146398095D01*
X98760190Y-146316190D01*
X98719238Y-146234285D01*
X98678285Y-146070476D01*
X98678285Y-145947619D01*
X98719238Y-145783809D01*
X98760190Y-145701904D01*
X98842095Y-145620000D01*
X98964952Y-145579047D01*
X99046857Y-145579047D01*
X99169714Y-145620000D01*
X99210666Y-145660952D01*
X99988761Y-145579047D02*
X99579238Y-145579047D01*
X99538285Y-145988571D01*
X99579238Y-145947619D01*
X99661142Y-145906666D01*
X99865904Y-145906666D01*
X99947809Y-145947619D01*
X99988761Y-145988571D01*
X100029714Y-146070476D01*
X100029714Y-146275238D01*
X99988761Y-146357142D01*
X99947809Y-146398095D01*
X99865904Y-146439047D01*
X99661142Y-146439047D01*
X99579238Y-146398095D01*
X99538285Y-146357142D01*
D11*
X84376142Y-143302380D02*
X84471380Y-143302380D01*
X84566619Y-143350000D01*
X84614238Y-143397619D01*
X84661857Y-143492857D01*
X84709476Y-143683333D01*
X84709476Y-143921428D01*
X84661857Y-144111904D01*
X84614238Y-144207142D01*
X84566619Y-144254761D01*
X84471380Y-144302380D01*
X84376142Y-144302380D01*
X84280904Y-144254761D01*
X84233285Y-144207142D01*
X84185666Y-144111904D01*
X84138047Y-143921428D01*
X84138047Y-143683333D01*
X84185666Y-143492857D01*
X84233285Y-143397619D01*
X84280904Y-143350000D01*
X84376142Y-143302380D01*
X85138047Y-144207142D02*
X85185666Y-144254761D01*
X85138047Y-144302380D01*
X85090428Y-144254761D01*
X85138047Y-144207142D01*
X85138047Y-144302380D01*
X86138047Y-144302380D02*
X85566619Y-144302380D01*
X85852333Y-144302380D02*
X85852333Y-143302380D01*
X85757095Y-143445238D01*
X85661857Y-143540476D01*
X85566619Y-143588095D01*
X86995190Y-143635714D02*
X86995190Y-144302380D01*
X86566619Y-143635714D02*
X86566619Y-144159523D01*
X86614238Y-144254761D01*
X86709476Y-144302380D01*
X86852333Y-144302380D01*
X86947571Y-144254761D01*
X86995190Y-144207142D01*
X87804714Y-143778571D02*
X87471380Y-143778571D01*
X87471380Y-144302380D02*
X87471380Y-143302380D01*
X87947571Y-143302380D01*
D12*
X85875666Y-146357142D02*
X85834714Y-146398095D01*
X85711857Y-146439047D01*
X85629952Y-146439047D01*
X85507095Y-146398095D01*
X85425190Y-146316190D01*
X85384238Y-146234285D01*
X85343285Y-146070476D01*
X85343285Y-145947619D01*
X85384238Y-145783809D01*
X85425190Y-145701904D01*
X85507095Y-145620000D01*
X85629952Y-145579047D01*
X85711857Y-145579047D01*
X85834714Y-145620000D01*
X85875666Y-145660952D01*
X86612809Y-145865714D02*
X86612809Y-146439047D01*
X86408047Y-145538095D02*
X86203285Y-146152380D01*
X86735666Y-146152380D01*
D11*
X107410142Y-83440380D02*
X107505380Y-83440380D01*
X107600619Y-83488000D01*
X107648238Y-83535619D01*
X107695857Y-83630857D01*
X107743476Y-83821333D01*
X107743476Y-84059428D01*
X107695857Y-84249904D01*
X107648238Y-84345142D01*
X107600619Y-84392761D01*
X107505380Y-84440380D01*
X107410142Y-84440380D01*
X107314904Y-84392761D01*
X107267285Y-84345142D01*
X107219666Y-84249904D01*
X107172047Y-84059428D01*
X107172047Y-83821333D01*
X107219666Y-83630857D01*
X107267285Y-83535619D01*
X107314904Y-83488000D01*
X107410142Y-83440380D01*
X108172047Y-84345142D02*
X108219666Y-84392761D01*
X108172047Y-84440380D01*
X108124428Y-84392761D01*
X108172047Y-84345142D01*
X108172047Y-84440380D01*
X109172047Y-84440380D02*
X108600619Y-84440380D01*
X108886333Y-84440380D02*
X108886333Y-83440380D01*
X108791095Y-83583238D01*
X108695857Y-83678476D01*
X108600619Y-83726095D01*
X110029190Y-83773714D02*
X110029190Y-84440380D01*
X109600619Y-83773714D02*
X109600619Y-84297523D01*
X109648238Y-84392761D01*
X109743476Y-84440380D01*
X109886333Y-84440380D01*
X109981571Y-84392761D01*
X110029190Y-84345142D01*
X110838714Y-83916571D02*
X110505380Y-83916571D01*
X110505380Y-84440380D02*
X110505380Y-83440380D01*
X110981571Y-83440380D01*
D12*
X108909666Y-82095142D02*
X108868714Y-82136095D01*
X108745857Y-82177047D01*
X108663952Y-82177047D01*
X108541095Y-82136095D01*
X108459190Y-82054190D01*
X108418238Y-81972285D01*
X108377285Y-81808476D01*
X108377285Y-81685619D01*
X108418238Y-81521809D01*
X108459190Y-81439904D01*
X108541095Y-81358000D01*
X108663952Y-81317047D01*
X108745857Y-81317047D01*
X108868714Y-81358000D01*
X108909666Y-81398952D01*
X109196333Y-81317047D02*
X109728714Y-81317047D01*
X109442047Y-81644666D01*
X109564904Y-81644666D01*
X109646809Y-81685619D01*
X109687761Y-81726571D01*
X109728714Y-81808476D01*
X109728714Y-82013238D01*
X109687761Y-82095142D01*
X109646809Y-82136095D01*
X109564904Y-82177047D01*
X109319190Y-82177047D01*
X109237285Y-82136095D01*
X109196333Y-82095142D01*
D11*
X36196380Y-92868857D02*
X36196380Y-92773619D01*
X36244000Y-92678380D01*
X36291619Y-92630761D01*
X36386857Y-92583142D01*
X36577333Y-92535523D01*
X36815428Y-92535523D01*
X37005904Y-92583142D01*
X37101142Y-92630761D01*
X37148761Y-92678380D01*
X37196380Y-92773619D01*
X37196380Y-92868857D01*
X37148761Y-92964095D01*
X37101142Y-93011714D01*
X37005904Y-93059333D01*
X36815428Y-93106952D01*
X36577333Y-93106952D01*
X36386857Y-93059333D01*
X36291619Y-93011714D01*
X36244000Y-92964095D01*
X36196380Y-92868857D01*
X37101142Y-92106952D02*
X37148761Y-92059333D01*
X37196380Y-92106952D01*
X37148761Y-92154571D01*
X37101142Y-92106952D01*
X37196380Y-92106952D01*
X37196380Y-91106952D02*
X37196380Y-91678380D01*
X37196380Y-91392666D02*
X36196380Y-91392666D01*
X36339238Y-91487904D01*
X36434476Y-91583142D01*
X36482095Y-91678380D01*
X36529714Y-90249809D02*
X37196380Y-90249809D01*
X36529714Y-90678380D02*
X37053523Y-90678380D01*
X37148761Y-90630761D01*
X37196380Y-90535523D01*
X37196380Y-90392666D01*
X37148761Y-90297428D01*
X37101142Y-90249809D01*
X36672571Y-89440285D02*
X36672571Y-89773619D01*
X37196380Y-89773619D02*
X36196380Y-89773619D01*
X36196380Y-89297428D01*
D12*
X34851142Y-91369333D02*
X34892095Y-91410285D01*
X34933047Y-91533142D01*
X34933047Y-91615047D01*
X34892095Y-91737904D01*
X34810190Y-91819809D01*
X34728285Y-91860761D01*
X34564476Y-91901714D01*
X34441619Y-91901714D01*
X34277809Y-91860761D01*
X34195904Y-91819809D01*
X34114000Y-91737904D01*
X34073047Y-91615047D01*
X34073047Y-91533142D01*
X34114000Y-91410285D01*
X34154952Y-91369333D01*
X34933047Y-90550285D02*
X34933047Y-91041714D01*
X34933047Y-90796000D02*
X34073047Y-90796000D01*
X34195904Y-90877904D01*
X34277809Y-90959809D01*
X34318761Y-91041714D01*
D11*
X56502380Y-145697619D02*
X56502380Y-146269047D01*
X56502380Y-145983333D02*
X55502380Y-145983333D01*
X55645238Y-146078571D01*
X55740476Y-146173809D01*
X55788095Y-146269047D01*
X55502380Y-145078571D02*
X55502380Y-144983333D01*
X55550000Y-144888095D01*
X55597619Y-144840476D01*
X55692857Y-144792857D01*
X55883333Y-144745238D01*
X56121428Y-144745238D01*
X56311904Y-144792857D01*
X56407142Y-144840476D01*
X56454761Y-144888095D01*
X56502380Y-144983333D01*
X56502380Y-145078571D01*
X56454761Y-145173809D01*
X56407142Y-145221428D01*
X56311904Y-145269047D01*
X56121428Y-145316666D01*
X55883333Y-145316666D01*
X55692857Y-145269047D01*
X55597619Y-145221428D01*
X55550000Y-145173809D01*
X55502380Y-145078571D01*
X55502380Y-144126190D02*
X55502380Y-144030952D01*
X55550000Y-143935714D01*
X55597619Y-143888095D01*
X55692857Y-143840476D01*
X55883333Y-143792857D01*
X56121428Y-143792857D01*
X56311904Y-143840476D01*
X56407142Y-143888095D01*
X56454761Y-143935714D01*
X56502380Y-144030952D01*
X56502380Y-144126190D01*
X56454761Y-144221428D01*
X56407142Y-144269047D01*
X56311904Y-144316666D01*
X56121428Y-144364285D01*
X55883333Y-144364285D01*
X55692857Y-144316666D01*
X55597619Y-144269047D01*
X55550000Y-144221428D01*
X55502380Y-144126190D01*
X55835714Y-142935714D02*
X56502380Y-142935714D01*
X55835714Y-143364285D02*
X56359523Y-143364285D01*
X56454761Y-143316666D01*
X56502380Y-143221428D01*
X56502380Y-143078571D01*
X56454761Y-142983333D01*
X56407142Y-142935714D01*
X55978571Y-142126190D02*
X55978571Y-142459523D01*
X56502380Y-142459523D02*
X55502380Y-142459523D01*
X55502380Y-141983333D01*
X51157142Y-144316666D02*
X51204761Y-144364285D01*
X51252380Y-144507142D01*
X51252380Y-144602380D01*
X51204761Y-144745238D01*
X51109523Y-144840476D01*
X51014285Y-144888095D01*
X50823809Y-144935714D01*
X50680952Y-144935714D01*
X50490476Y-144888095D01*
X50395238Y-144840476D01*
X50300000Y-144745238D01*
X50252380Y-144602380D01*
X50252380Y-144507142D01*
X50300000Y-144364285D01*
X50347619Y-144316666D01*
X50680952Y-143745238D02*
X50633333Y-143840476D01*
X50585714Y-143888095D01*
X50490476Y-143935714D01*
X50442857Y-143935714D01*
X50347619Y-143888095D01*
X50300000Y-143840476D01*
X50252380Y-143745238D01*
X50252380Y-143554761D01*
X50300000Y-143459523D01*
X50347619Y-143411904D01*
X50442857Y-143364285D01*
X50490476Y-143364285D01*
X50585714Y-143411904D01*
X50633333Y-143459523D01*
X50680952Y-143554761D01*
X50680952Y-143745238D01*
X50728571Y-143840476D01*
X50776190Y-143888095D01*
X50871428Y-143935714D01*
X51061904Y-143935714D01*
X51157142Y-143888095D01*
X51204761Y-143840476D01*
X51252380Y-143745238D01*
X51252380Y-143554761D01*
X51204761Y-143459523D01*
X51157142Y-143411904D01*
X51061904Y-143364285D01*
X50871428Y-143364285D01*
X50776190Y-143411904D01*
X50728571Y-143459523D01*
X50680952Y-143554761D01*
M02*
