G04 #@! TF.GenerationSoftware,KiCad,Pcbnew,(5.1.9-0-10_14)*
G04 #@! TF.CreationDate,2022-09-06T13:19:47-05:00*
G04 #@! TF.ProjectId,My6502,4d793635-3032-42e6-9b69-6361645f7063,rev?*
G04 #@! TF.SameCoordinates,Original*
G04 #@! TF.FileFunction,Soldermask,Bot*
G04 #@! TF.FilePolarity,Negative*
%FSLAX46Y46*%
G04 Gerber Fmt 4.6, Leading zero omitted, Abs format (unit mm)*
G04 Created by KiCad (PCBNEW (5.1.9-0-10_14)) date 2022-09-06 13:19:47*
%MOMM*%
%LPD*%
G01*
G04 APERTURE LIST*
%ADD10R,2.400000X1.600000*%
%ADD11O,2.400000X1.600000*%
%ADD12R,1.600000X1.600000*%
%ADD13C,1.600000*%
%ADD14R,1.700000X1.700000*%
%ADD15O,1.700000X1.700000*%
%ADD16R,3.500000X3.500000*%
%ADD17O,1.600000X1.600000*%
%ADD18C,1.700000*%
%ADD19R,1.600000X2.400000*%
%ADD20O,1.600000X2.400000*%
%ADD21C,1.300000*%
%ADD22R,1.300000X1.300000*%
G04 APERTURE END LIST*
D10*
X107950000Y-112395000D03*
D11*
X123190000Y-145415000D03*
X107950000Y-114935000D03*
X123190000Y-142875000D03*
X107950000Y-117475000D03*
X123190000Y-140335000D03*
X107950000Y-120015000D03*
X123190000Y-137795000D03*
X107950000Y-122555000D03*
X123190000Y-135255000D03*
X107950000Y-125095000D03*
X123190000Y-132715000D03*
X107950000Y-127635000D03*
X123190000Y-130175000D03*
X107950000Y-130175000D03*
X123190000Y-127635000D03*
X107950000Y-132715000D03*
X123190000Y-125095000D03*
X107950000Y-135255000D03*
X123190000Y-122555000D03*
X107950000Y-137795000D03*
X123190000Y-120015000D03*
X107950000Y-140335000D03*
X123190000Y-117475000D03*
X107950000Y-142875000D03*
X123190000Y-114935000D03*
X107950000Y-145415000D03*
X123190000Y-112395000D03*
D12*
X39370000Y-72390000D03*
D13*
X35570000Y-72390000D03*
X96520000Y-88980000D03*
X96520000Y-93980000D03*
X103505000Y-146050000D03*
X98505000Y-146050000D03*
X45720000Y-99615000D03*
X45720000Y-94615000D03*
X45720000Y-81360000D03*
X45720000Y-86360000D03*
X66120000Y-146050000D03*
X71120000Y-146050000D03*
X45720000Y-70645000D03*
X45720000Y-75645000D03*
D14*
X85090000Y-92710000D03*
D15*
X82550000Y-92710000D03*
X80010000Y-92710000D03*
X77470000Y-92710000D03*
X74930000Y-92710000D03*
D14*
X81915000Y-67945000D03*
D15*
X79375000Y-67945000D03*
X76835000Y-67945000D03*
D16*
X45085000Y-57150000D03*
G36*
G01*
X37585000Y-58150000D02*
X37585000Y-56150000D01*
G75*
G02*
X38335000Y-55400000I750000J0D01*
G01*
X39835000Y-55400000D01*
G75*
G02*
X40585000Y-56150000I0J-750000D01*
G01*
X40585000Y-58150000D01*
G75*
G02*
X39835000Y-58900000I-750000J0D01*
G01*
X38335000Y-58900000D01*
G75*
G02*
X37585000Y-58150000I0J750000D01*
G01*
G37*
G36*
G01*
X40335000Y-62725000D02*
X40335000Y-60975000D01*
G75*
G02*
X41210000Y-60100000I875000J0D01*
G01*
X42960000Y-60100000D01*
G75*
G02*
X43835000Y-60975000I0J-875000D01*
G01*
X43835000Y-62725000D01*
G75*
G02*
X42960000Y-63600000I-875000J0D01*
G01*
X41210000Y-63600000D01*
G75*
G02*
X40335000Y-62725000I0J875000D01*
G01*
G37*
D14*
X36830000Y-146685000D03*
D15*
X39370000Y-146685000D03*
X36830000Y-144145000D03*
X39370000Y-144145000D03*
X36830000Y-141605000D03*
X39370000Y-141605000D03*
X36830000Y-139065000D03*
X39370000Y-139065000D03*
X36830000Y-136525000D03*
X39370000Y-136525000D03*
X36830000Y-133985000D03*
X39370000Y-133985000D03*
X36830000Y-131445000D03*
X39370000Y-131445000D03*
X36830000Y-128905000D03*
X39370000Y-128905000D03*
X36830000Y-126365000D03*
X39370000Y-126365000D03*
X36830000Y-123825000D03*
X39370000Y-123825000D03*
X36830000Y-121285000D03*
X39370000Y-121285000D03*
X36830000Y-118745000D03*
X39370000Y-118745000D03*
X36830000Y-116205000D03*
X39370000Y-116205000D03*
X36830000Y-113665000D03*
X39370000Y-113665000D03*
X36830000Y-111125000D03*
X39370000Y-111125000D03*
X36830000Y-108585000D03*
X39370000Y-108585000D03*
X36830000Y-106045000D03*
X39370000Y-106045000D03*
X36830000Y-103505000D03*
X39370000Y-103505000D03*
X36830000Y-100965000D03*
X39370000Y-100965000D03*
X36830000Y-98425000D03*
X39370000Y-98425000D03*
D14*
X63500000Y-59690000D03*
D15*
X63500000Y-62230000D03*
X60960000Y-59690000D03*
X60960000Y-62230000D03*
X58420000Y-59690000D03*
X58420000Y-62230000D03*
X55880000Y-59690000D03*
X55880000Y-62230000D03*
X53340000Y-59690000D03*
X53340000Y-62230000D03*
D14*
X96520000Y-66040000D03*
D15*
X96520000Y-68580000D03*
D17*
X38100000Y-92710000D03*
D13*
X38100000Y-82550000D03*
X71120000Y-52705000D03*
D17*
X71120000Y-62865000D03*
D13*
X96520000Y-85090000D03*
D17*
X96520000Y-74930000D03*
X77470000Y-62865000D03*
D13*
X77470000Y-52705000D03*
X83820000Y-52705000D03*
D17*
X83820000Y-62865000D03*
X53340000Y-53975000D03*
D13*
X63500000Y-53975000D03*
D18*
X95400000Y-57840000D03*
X88900000Y-57840000D03*
X95400000Y-53340000D03*
X88900000Y-53340000D03*
D11*
X90805000Y-112395000D03*
X75565000Y-145415000D03*
X90805000Y-114935000D03*
X75565000Y-142875000D03*
X90805000Y-117475000D03*
X75565000Y-140335000D03*
X90805000Y-120015000D03*
X75565000Y-137795000D03*
X90805000Y-122555000D03*
X75565000Y-135255000D03*
X90805000Y-125095000D03*
X75565000Y-132715000D03*
X90805000Y-127635000D03*
X75565000Y-130175000D03*
X90805000Y-130175000D03*
X75565000Y-127635000D03*
X90805000Y-132715000D03*
X75565000Y-125095000D03*
X90805000Y-135255000D03*
X75565000Y-122555000D03*
X90805000Y-137795000D03*
X75565000Y-120015000D03*
X90805000Y-140335000D03*
X75565000Y-117475000D03*
X90805000Y-142875000D03*
X75565000Y-114935000D03*
X90805000Y-145415000D03*
D10*
X75565000Y-112395000D03*
X101600000Y-55245000D03*
D11*
X127000000Y-103505000D03*
X101600000Y-57785000D03*
X127000000Y-100965000D03*
X101600000Y-60325000D03*
X127000000Y-98425000D03*
X101600000Y-62865000D03*
X127000000Y-95885000D03*
X101600000Y-65405000D03*
X127000000Y-93345000D03*
X101600000Y-67945000D03*
X127000000Y-90805000D03*
X101600000Y-70485000D03*
X127000000Y-88265000D03*
X101600000Y-73025000D03*
X127000000Y-85725000D03*
X101600000Y-75565000D03*
X127000000Y-83185000D03*
X101600000Y-78105000D03*
X127000000Y-80645000D03*
X101600000Y-80645000D03*
X127000000Y-78105000D03*
X101600000Y-83185000D03*
X127000000Y-75565000D03*
X101600000Y-85725000D03*
X127000000Y-73025000D03*
X101600000Y-88265000D03*
X127000000Y-70485000D03*
X101600000Y-90805000D03*
X127000000Y-67945000D03*
X101600000Y-93345000D03*
X127000000Y-65405000D03*
X101600000Y-95885000D03*
X127000000Y-62865000D03*
X101600000Y-98425000D03*
X127000000Y-60325000D03*
X101600000Y-100965000D03*
X127000000Y-57785000D03*
X101600000Y-103505000D03*
X127000000Y-55245000D03*
D19*
X50800000Y-102235000D03*
D20*
X66040000Y-94615000D03*
X53340000Y-102235000D03*
X63500000Y-94615000D03*
X55880000Y-102235000D03*
X60960000Y-94615000D03*
X58420000Y-102235000D03*
X58420000Y-94615000D03*
X60960000Y-102235000D03*
X55880000Y-94615000D03*
X63500000Y-102235000D03*
X53340000Y-94615000D03*
X66040000Y-102235000D03*
X50800000Y-94615000D03*
X50800000Y-81915000D03*
X66040000Y-89535000D03*
X53340000Y-81915000D03*
X63500000Y-89535000D03*
X55880000Y-81915000D03*
X60960000Y-89535000D03*
X58420000Y-81915000D03*
X58420000Y-89535000D03*
X60960000Y-81915000D03*
X55880000Y-89535000D03*
X63500000Y-81915000D03*
X53340000Y-89535000D03*
X66040000Y-81915000D03*
D19*
X50800000Y-89535000D03*
D21*
X89535000Y-69215000D03*
X88265000Y-67945000D03*
D22*
X90805000Y-67945000D03*
D19*
X50800000Y-76835000D03*
D20*
X66040000Y-69215000D03*
X53340000Y-76835000D03*
X63500000Y-69215000D03*
X55880000Y-76835000D03*
X60960000Y-69215000D03*
X58420000Y-76835000D03*
X58420000Y-69215000D03*
X60960000Y-76835000D03*
X55880000Y-69215000D03*
X63500000Y-76835000D03*
X53340000Y-69215000D03*
X66040000Y-76835000D03*
X50800000Y-69215000D03*
D12*
X73660000Y-84455000D03*
D13*
X73660000Y-76835000D03*
X88900000Y-76835000D03*
X88900000Y-84455000D03*
M02*
