G04 #@! TF.GenerationSoftware,KiCad,Pcbnew,(5.1.9-0-10_14)*
G04 #@! TF.CreationDate,2022-10-07T18:33:01-05:00*
G04 #@! TF.ProjectId,My6502,4d793635-3032-42e6-9b69-6361645f7063,rev?*
G04 #@! TF.SameCoordinates,Original*
G04 #@! TF.FileFunction,Legend,Bot*
G04 #@! TF.FilePolarity,Positive*
%FSLAX46Y46*%
G04 Gerber Fmt 4.6, Leading zero omitted, Abs format (unit mm)*
G04 Created by KiCad (PCBNEW (5.1.9-0-10_14)) date 2022-10-07 18:33:01*
%MOMM*%
%LPD*%
G01*
G04 APERTURE LIST*
%ADD10C,0.300000*%
G04 APERTURE END LIST*
D10*
X120097857Y-64232142D02*
X118955000Y-64232142D01*
X119526428Y-64803571D02*
X119526428Y-63660714D01*
X116669285Y-63303571D02*
X116669285Y-64375000D01*
X116740714Y-64589285D01*
X116883571Y-64732142D01*
X117097857Y-64803571D01*
X117240714Y-64803571D01*
X115955000Y-64803571D02*
X115955000Y-63303571D01*
X115383571Y-63303571D01*
X115240714Y-63375000D01*
X115169285Y-63446428D01*
X115097857Y-63589285D01*
X115097857Y-63803571D01*
X115169285Y-63946428D01*
X115240714Y-64017857D01*
X115383571Y-64089285D01*
X115955000Y-64089285D01*
X113669285Y-64803571D02*
X114526428Y-64803571D01*
X114097857Y-64803571D02*
X114097857Y-63303571D01*
X114240714Y-63517857D01*
X114383571Y-63660714D01*
X114526428Y-63732142D01*
X113026428Y-64660714D02*
X112955000Y-64732142D01*
X113026428Y-64803571D01*
X113097857Y-64732142D01*
X113026428Y-64660714D01*
X113026428Y-64803571D01*
X113026428Y-63875000D02*
X112955000Y-63946428D01*
X113026428Y-64017857D01*
X113097857Y-63946428D01*
X113026428Y-63875000D01*
X113026428Y-64017857D01*
X110312142Y-64660714D02*
X110383571Y-64732142D01*
X110597857Y-64803571D01*
X110740714Y-64803571D01*
X110955000Y-64732142D01*
X111097857Y-64589285D01*
X111169285Y-64446428D01*
X111240714Y-64160714D01*
X111240714Y-63946428D01*
X111169285Y-63660714D01*
X111097857Y-63517857D01*
X110955000Y-63375000D01*
X110740714Y-63303571D01*
X110597857Y-63303571D01*
X110383571Y-63375000D01*
X110312142Y-63446428D01*
X109455000Y-64803571D02*
X109597857Y-64732142D01*
X109669285Y-64589285D01*
X109669285Y-63303571D01*
X108669285Y-64803571D02*
X108812142Y-64732142D01*
X108883571Y-64660714D01*
X108955000Y-64517857D01*
X108955000Y-64089285D01*
X108883571Y-63946428D01*
X108812142Y-63875000D01*
X108669285Y-63803571D01*
X108455000Y-63803571D01*
X108312142Y-63875000D01*
X108240714Y-63946428D01*
X108169285Y-64089285D01*
X108169285Y-64517857D01*
X108240714Y-64660714D01*
X108312142Y-64732142D01*
X108455000Y-64803571D01*
X108669285Y-64803571D01*
X107597857Y-64732142D02*
X107455000Y-64803571D01*
X107169285Y-64803571D01*
X107026428Y-64732142D01*
X106955000Y-64589285D01*
X106955000Y-64517857D01*
X107026428Y-64375000D01*
X107169285Y-64303571D01*
X107383571Y-64303571D01*
X107526428Y-64232142D01*
X107597857Y-64089285D01*
X107597857Y-64017857D01*
X107526428Y-63875000D01*
X107383571Y-63803571D01*
X107169285Y-63803571D01*
X107026428Y-63875000D01*
X105740714Y-64732142D02*
X105883571Y-64803571D01*
X106169285Y-64803571D01*
X106312142Y-64732142D01*
X106383571Y-64589285D01*
X106383571Y-64017857D01*
X106312142Y-63875000D01*
X106169285Y-63803571D01*
X105883571Y-63803571D01*
X105740714Y-63875000D01*
X105669285Y-64017857D01*
X105669285Y-64160714D01*
X106383571Y-64303571D01*
X104383571Y-64803571D02*
X104383571Y-63303571D01*
X104383571Y-64732142D02*
X104526428Y-64803571D01*
X104812142Y-64803571D01*
X104955000Y-64732142D01*
X105026428Y-64660714D01*
X105097857Y-64517857D01*
X105097857Y-64089285D01*
X105026428Y-63946428D01*
X104955000Y-63875000D01*
X104812142Y-63803571D01*
X104526428Y-63803571D01*
X104383571Y-63875000D01*
X102526428Y-64803571D02*
X102526428Y-63303571D01*
X101669285Y-64803571D01*
X101669285Y-63303571D01*
X100955000Y-64803571D02*
X100955000Y-63303571D01*
X100455000Y-64375000D01*
X99955000Y-63303571D01*
X99955000Y-64803571D01*
X98955000Y-63303571D02*
X98669285Y-63303571D01*
X98526428Y-63375000D01*
X98383571Y-63517857D01*
X98312142Y-63803571D01*
X98312142Y-64303571D01*
X98383571Y-64589285D01*
X98526428Y-64732142D01*
X98669285Y-64803571D01*
X98955000Y-64803571D01*
X99097857Y-64732142D01*
X99240714Y-64589285D01*
X99312142Y-64303571D01*
X99312142Y-63803571D01*
X99240714Y-63517857D01*
X99097857Y-63375000D01*
X98955000Y-63303571D01*
X97740714Y-64732142D02*
X97526428Y-64803571D01*
X97169285Y-64803571D01*
X97026428Y-64732142D01*
X96955000Y-64660714D01*
X96883571Y-64517857D01*
X96883571Y-64375000D01*
X96955000Y-64232142D01*
X97026428Y-64160714D01*
X97169285Y-64089285D01*
X97455000Y-64017857D01*
X97597857Y-63946428D01*
X97669285Y-63875000D01*
X97740714Y-63732142D01*
X97740714Y-63589285D01*
X97669285Y-63446428D01*
X97597857Y-63375000D01*
X97455000Y-63303571D01*
X97097857Y-63303571D01*
X96883571Y-63375000D01*
X94740714Y-65303571D02*
X94740714Y-63160714D01*
X92240714Y-63303571D02*
X91955000Y-63303571D01*
X91812142Y-63375000D01*
X91669285Y-63517857D01*
X91597857Y-63803571D01*
X91597857Y-64303571D01*
X91669285Y-64589285D01*
X91812142Y-64732142D01*
X91955000Y-64803571D01*
X92240714Y-64803571D01*
X92383571Y-64732142D01*
X92526428Y-64589285D01*
X92597857Y-64303571D01*
X92597857Y-63803571D01*
X92526428Y-63517857D01*
X92383571Y-63375000D01*
X92240714Y-63303571D01*
X90955000Y-63803571D02*
X90955000Y-65303571D01*
X90955000Y-63875000D02*
X90812142Y-63803571D01*
X90526428Y-63803571D01*
X90383571Y-63875000D01*
X90312142Y-63946428D01*
X90240714Y-64089285D01*
X90240714Y-64517857D01*
X90312142Y-64660714D01*
X90383571Y-64732142D01*
X90526428Y-64803571D01*
X90812142Y-64803571D01*
X90955000Y-64732142D01*
X89026428Y-64732142D02*
X89169285Y-64803571D01*
X89455000Y-64803571D01*
X89597857Y-64732142D01*
X89669285Y-64589285D01*
X89669285Y-64017857D01*
X89597857Y-63875000D01*
X89455000Y-63803571D01*
X89169285Y-63803571D01*
X89026428Y-63875000D01*
X88955000Y-64017857D01*
X88955000Y-64160714D01*
X89669285Y-64303571D01*
X88312142Y-63803571D02*
X88312142Y-64803571D01*
X88312142Y-63946428D02*
X88240714Y-63875000D01*
X88097857Y-63803571D01*
X87883571Y-63803571D01*
X87740714Y-63875000D01*
X87669285Y-64017857D01*
X87669285Y-64803571D01*
X84955000Y-64660714D02*
X85026428Y-64732142D01*
X85240714Y-64803571D01*
X85383571Y-64803571D01*
X85597857Y-64732142D01*
X85740714Y-64589285D01*
X85812142Y-64446428D01*
X85883571Y-64160714D01*
X85883571Y-63946428D01*
X85812142Y-63660714D01*
X85740714Y-63517857D01*
X85597857Y-63375000D01*
X85383571Y-63303571D01*
X85240714Y-63303571D01*
X85026428Y-63375000D01*
X84955000Y-63446428D01*
X84312142Y-64803571D02*
X84312142Y-63303571D01*
X83812142Y-64375000D01*
X83312142Y-63303571D01*
X83312142Y-64803571D01*
X82312142Y-63303571D02*
X82026428Y-63303571D01*
X81883571Y-63375000D01*
X81740714Y-63517857D01*
X81669285Y-63803571D01*
X81669285Y-64303571D01*
X81740714Y-64589285D01*
X81883571Y-64732142D01*
X82026428Y-64803571D01*
X82312142Y-64803571D01*
X82455000Y-64732142D01*
X82597857Y-64589285D01*
X82669285Y-64303571D01*
X82669285Y-63803571D01*
X82597857Y-63517857D01*
X82455000Y-63375000D01*
X82312142Y-63303571D01*
X81097857Y-64732142D02*
X80883571Y-64803571D01*
X80526428Y-64803571D01*
X80383571Y-64732142D01*
X80312142Y-64660714D01*
X80240714Y-64517857D01*
X80240714Y-64375000D01*
X80312142Y-64232142D01*
X80383571Y-64160714D01*
X80526428Y-64089285D01*
X80812142Y-64017857D01*
X80955000Y-63946428D01*
X81026428Y-63875000D01*
X81097857Y-63732142D01*
X81097857Y-63589285D01*
X81026428Y-63446428D01*
X80955000Y-63375000D01*
X80812142Y-63303571D01*
X80455000Y-63303571D01*
X80240714Y-63375000D01*
X120097857Y-66782142D02*
X118955000Y-66782142D01*
X119526428Y-67353571D02*
X119526428Y-66210714D01*
X116669285Y-65853571D02*
X116669285Y-66925000D01*
X116740714Y-67139285D01*
X116883571Y-67282142D01*
X117097857Y-67353571D01*
X117240714Y-67353571D01*
X115955000Y-67353571D02*
X115955000Y-65853571D01*
X115383571Y-65853571D01*
X115240714Y-65925000D01*
X115169285Y-65996428D01*
X115097857Y-66139285D01*
X115097857Y-66353571D01*
X115169285Y-66496428D01*
X115240714Y-66567857D01*
X115383571Y-66639285D01*
X115955000Y-66639285D01*
X114526428Y-65996428D02*
X114455000Y-65925000D01*
X114312142Y-65853571D01*
X113955000Y-65853571D01*
X113812142Y-65925000D01*
X113740714Y-65996428D01*
X113669285Y-66139285D01*
X113669285Y-66282142D01*
X113740714Y-66496428D01*
X114597857Y-67353571D01*
X113669285Y-67353571D01*
X113026428Y-67210714D02*
X112955000Y-67282142D01*
X113026428Y-67353571D01*
X113097857Y-67282142D01*
X113026428Y-67210714D01*
X113026428Y-67353571D01*
X113026428Y-66425000D02*
X112955000Y-66496428D01*
X113026428Y-66567857D01*
X113097857Y-66496428D01*
X113026428Y-66425000D01*
X113026428Y-66567857D01*
X110383571Y-67353571D02*
X111240714Y-67353571D01*
X110812142Y-67353571D02*
X110812142Y-65853571D01*
X110955000Y-66067857D01*
X111097857Y-66210714D01*
X111240714Y-66282142D01*
X109740714Y-67210714D02*
X109669285Y-67282142D01*
X109740714Y-67353571D01*
X109812142Y-67282142D01*
X109740714Y-67210714D01*
X109740714Y-67353571D01*
X107097857Y-65925000D02*
X107240714Y-65853571D01*
X107455000Y-65853571D01*
X107669285Y-65925000D01*
X107812142Y-66067857D01*
X107883571Y-66210714D01*
X107955000Y-66496428D01*
X107955000Y-66710714D01*
X107883571Y-66996428D01*
X107812142Y-67139285D01*
X107669285Y-67282142D01*
X107455000Y-67353571D01*
X107312142Y-67353571D01*
X107097857Y-67282142D01*
X107026428Y-67210714D01*
X107026428Y-66710714D01*
X107312142Y-66710714D01*
X106383571Y-67353571D02*
X106383571Y-65853571D01*
X105526428Y-67353571D01*
X105526428Y-65853571D01*
X104812142Y-67353571D02*
X104812142Y-65853571D01*
X104455000Y-65853571D01*
X104240714Y-65925000D01*
X104097857Y-66067857D01*
X104026428Y-66210714D01*
X103955000Y-66496428D01*
X103955000Y-66710714D01*
X104026428Y-66996428D01*
X104097857Y-67139285D01*
X104240714Y-67282142D01*
X104455000Y-67353571D01*
X104812142Y-67353571D01*
X101812142Y-67853571D02*
X101812142Y-65710714D01*
X99669285Y-65996428D02*
X99597857Y-65925000D01*
X99455000Y-65853571D01*
X99097857Y-65853571D01*
X98955000Y-65925000D01*
X98883571Y-65996428D01*
X98812142Y-66139285D01*
X98812142Y-66282142D01*
X98883571Y-66496428D01*
X99740714Y-67353571D01*
X98812142Y-67353571D01*
X98169285Y-67210714D02*
X98097857Y-67282142D01*
X98169285Y-67353571D01*
X98240714Y-67282142D01*
X98169285Y-67210714D01*
X98169285Y-67353571D01*
X96312142Y-67353571D02*
X96312142Y-65853571D01*
X95740714Y-65853571D01*
X95597857Y-65925000D01*
X95526428Y-65996428D01*
X95455000Y-66139285D01*
X95455000Y-66353571D01*
X95526428Y-66496428D01*
X95597857Y-66567857D01*
X95740714Y-66639285D01*
X96312142Y-66639285D01*
X94812142Y-67353571D02*
X94812142Y-65853571D01*
X94812142Y-66567857D02*
X93955000Y-66567857D01*
X93955000Y-67353571D02*
X93955000Y-65853571D01*
X93240714Y-67353571D02*
X93240714Y-65853571D01*
X92597857Y-65996428D02*
X92526428Y-65925000D01*
X92383571Y-65853571D01*
X92026428Y-65853571D01*
X91883571Y-65925000D01*
X91812142Y-65996428D01*
X91740714Y-66139285D01*
X91740714Y-66282142D01*
X91812142Y-66496428D01*
X92669285Y-67353571D01*
X91740714Y-67353571D01*
X89955000Y-67353571D02*
X89955000Y-65853571D01*
X89240714Y-67353571D02*
X89240714Y-65853571D01*
X88383571Y-67353571D01*
X88383571Y-65853571D01*
X86169285Y-67853571D02*
X86169285Y-65710714D01*
X84097857Y-65853571D02*
X83169285Y-65853571D01*
X83669285Y-66425000D01*
X83455000Y-66425000D01*
X83312142Y-66496428D01*
X83240714Y-66567857D01*
X83169285Y-66710714D01*
X83169285Y-67067857D01*
X83240714Y-67210714D01*
X83312142Y-67282142D01*
X83455000Y-67353571D01*
X83883571Y-67353571D01*
X84026428Y-67282142D01*
X84097857Y-67210714D01*
X82526428Y-67210714D02*
X82455000Y-67282142D01*
X82526428Y-67353571D01*
X82597857Y-67282142D01*
X82526428Y-67210714D01*
X82526428Y-67353571D01*
X80383571Y-65853571D02*
X80097857Y-65853571D01*
X79955000Y-65925000D01*
X79812142Y-66067857D01*
X79740714Y-66353571D01*
X79740714Y-66853571D01*
X79812142Y-67139285D01*
X79955000Y-67282142D01*
X80097857Y-67353571D01*
X80383571Y-67353571D01*
X80526428Y-67282142D01*
X80669285Y-67139285D01*
X80740714Y-66853571D01*
X80740714Y-66353571D01*
X80669285Y-66067857D01*
X80526428Y-65925000D01*
X80383571Y-65853571D01*
X79169285Y-67282142D02*
X78955000Y-67353571D01*
X78597857Y-67353571D01*
X78455000Y-67282142D01*
X78383571Y-67210714D01*
X78312142Y-67067857D01*
X78312142Y-66925000D01*
X78383571Y-66782142D01*
X78455000Y-66710714D01*
X78597857Y-66639285D01*
X78883571Y-66567857D01*
X79026428Y-66496428D01*
X79097857Y-66425000D01*
X79169285Y-66282142D01*
X79169285Y-66139285D01*
X79097857Y-65996428D01*
X79026428Y-65925000D01*
X78883571Y-65853571D01*
X78526428Y-65853571D01*
X78312142Y-65925000D01*
X76812142Y-67210714D02*
X76883571Y-67282142D01*
X77097857Y-67353571D01*
X77240714Y-67353571D01*
X77455000Y-67282142D01*
X77597857Y-67139285D01*
X77669285Y-66996428D01*
X77740714Y-66710714D01*
X77740714Y-66496428D01*
X77669285Y-66210714D01*
X77597857Y-66067857D01*
X77455000Y-65925000D01*
X77240714Y-65853571D01*
X77097857Y-65853571D01*
X76883571Y-65925000D01*
X76812142Y-65996428D01*
X74740714Y-65853571D02*
X74455000Y-65853571D01*
X74312142Y-65925000D01*
X74169285Y-66067857D01*
X74097857Y-66353571D01*
X74097857Y-66853571D01*
X74169285Y-67139285D01*
X74312142Y-67282142D01*
X74455000Y-67353571D01*
X74740714Y-67353571D01*
X74883571Y-67282142D01*
X75026428Y-67139285D01*
X75097857Y-66853571D01*
X75097857Y-66353571D01*
X75026428Y-66067857D01*
X74883571Y-65925000D01*
X74740714Y-65853571D01*
X73455000Y-65853571D02*
X73455000Y-67067857D01*
X73383571Y-67210714D01*
X73312142Y-67282142D01*
X73169285Y-67353571D01*
X72883571Y-67353571D01*
X72740714Y-67282142D01*
X72669285Y-67210714D01*
X72597857Y-67067857D01*
X72597857Y-65853571D01*
X72097857Y-65853571D02*
X71240714Y-65853571D01*
X71669285Y-67353571D02*
X71669285Y-65853571D01*
X68812142Y-67353571D02*
X69669285Y-67353571D01*
X69240714Y-67353571D02*
X69240714Y-65853571D01*
X69383571Y-66067857D01*
X69526428Y-66210714D01*
X69669285Y-66282142D01*
X68169285Y-67353571D02*
X68169285Y-65853571D01*
X67669285Y-66925000D01*
X67169285Y-65853571D01*
X67169285Y-67353571D01*
X66455000Y-67353571D02*
X66455000Y-65853571D01*
X65812142Y-67353571D02*
X65812142Y-66567857D01*
X65883571Y-66425000D01*
X66026428Y-66353571D01*
X66240714Y-66353571D01*
X66383571Y-66425000D01*
X66455000Y-66496428D01*
X65240714Y-66353571D02*
X64455000Y-66353571D01*
X65240714Y-67353571D01*
X64455000Y-67353571D01*
X120097857Y-69332142D02*
X118955000Y-69332142D01*
X119526428Y-69903571D02*
X119526428Y-68760714D01*
X116669285Y-68403571D02*
X116669285Y-69475000D01*
X116740714Y-69689285D01*
X116883571Y-69832142D01*
X117097857Y-69903571D01*
X117240714Y-69903571D01*
X115169285Y-69903571D02*
X116026428Y-69903571D01*
X115597857Y-69903571D02*
X115597857Y-68403571D01*
X115740714Y-68617857D01*
X115883571Y-68760714D01*
X116026428Y-68832142D01*
X114526428Y-69760714D02*
X114455000Y-69832142D01*
X114526428Y-69903571D01*
X114597857Y-69832142D01*
X114526428Y-69760714D01*
X114526428Y-69903571D01*
X114526428Y-68975000D02*
X114455000Y-69046428D01*
X114526428Y-69117857D01*
X114597857Y-69046428D01*
X114526428Y-68975000D01*
X114526428Y-69117857D01*
X113026428Y-67755000D02*
X111455000Y-67755000D01*
X112669285Y-69903571D02*
X112669285Y-68403571D01*
X111812142Y-69903571D01*
X111812142Y-68403571D01*
X111455000Y-67755000D02*
X109740714Y-67755000D01*
X111097857Y-69903571D02*
X111097857Y-68403571D01*
X110597857Y-69475000D01*
X110097857Y-68403571D01*
X110097857Y-69903571D01*
X109740714Y-67755000D02*
X109026428Y-67755000D01*
X109383571Y-69903571D02*
X109383571Y-68403571D01*
X109026428Y-67755000D02*
X107883571Y-67755000D01*
X107883571Y-67755000D02*
X107169285Y-67755000D01*
X107526428Y-69903571D02*
X107526428Y-68403571D01*
X107169285Y-67755000D02*
X105597857Y-67755000D01*
X106812142Y-69903571D02*
X106812142Y-68403571D01*
X105955000Y-69903571D01*
X105955000Y-68403571D01*
M02*
