M48
INCH,TZ
T1C0.0098
T2C0.0118
T3C0.0197
T4C0.0236
T5C0.0295
T6C0.0315
T7C0.0354
T8C0.0394
T9C0.0433
T10C0.1260
%
G90
G05
T1
X13134Y-29618
X13134Y-47846
X13331Y-56114
X15772Y-37059
X15961Y-38082
X16009Y-53161
X16149Y-38909
X17599Y-41846
X17789Y-42421
X18449Y-56783
X18646Y-54067
X18646Y-57334
X18686Y-53319
X18883Y-52846
X18883Y-55326
X19158Y-52059
X19158Y-54345
X19355Y-39263
X19355Y-40051
X19394Y-55917
X19552Y-46508
X19622Y-53949
X19631Y-49342
X19631Y-56311
X19631Y-33121
X19827Y-56626
X20064Y-55917
X21284Y-54736
X21300Y-55913
X21481Y-32059
X21481Y-49342
X21481Y-52728
X21757Y-35051
X21757Y-49342
X21757Y-55051
X21816Y-57767
X22229Y-41074
X22465Y-41350
X23095Y-56932
X23134Y-40169
X23174Y-47216
X23182Y-53161
X23371Y-48870
X23371Y-51311
X23488Y-32060
X23607Y-48673
X23607Y-51704
X23646Y-40169
X23804Y-48476
X23843Y-51901
X23961Y-47653
X24079Y-53870
X25182Y-45760
X25300Y-32492
X25575Y-37649
X25772Y-39539
X25772Y-42925
X26009Y-41508
X26009Y-42374
X26048Y-46823
X26245Y-38358
X26245Y-43538
X26245Y-43949
X26245Y-44303
X26284Y-45760
X26284Y-46271
X26284Y-52905
X26284Y-53319
X26304Y-47059
X26481Y-37334
X26717Y-38004
X26717Y-47334
X28764Y-56626
X28821Y-53279
X28883Y-49185
X28922Y-32492
X29158Y-32295
X29197Y-52886
X29197Y-49618
X29197Y-55917
X29386Y-49854
X29394Y-57571
X29729Y-48752
X30566Y-29933
X30713Y-45090
X30851Y-27571
X32308Y-28988
X32308Y-29637
X32347Y-44815
X32465Y-46823
X32741Y-46941
X32839Y-35937
X33095Y-32295
X33292Y-32492
X34473Y-54815
X34661Y-48279
X34670Y-48949
X34670Y-55090
X34709Y-26044
X34850Y-47334
X35024Y-38555
X35024Y-38949
X35024Y-40799
X35103Y-46311
X35308Y-44350
X35497Y-40523
X35772Y-20760
X35890Y-28397
X36914Y-28712
X38016Y-45917
X38056Y-47728
X38095Y-46744
X38222Y-44757
X38489Y-27728
X38725Y-49382
X38931Y-46744
X39119Y-49185
X39158Y-28082
X40575Y-32413
X40892Y-32096
X43253Y-43319
X43253Y-48949
X44906Y-29027
X45694Y-28949
X45694Y-30287
X45694Y-31114
X45694Y-32413
X45969Y-29278
X46166Y-30681
X46402Y-30484
X47367Y-49263
X47386Y-43358
X49552Y-28397
X49749Y-49303
T2
X12623Y-55248
X13961Y-25130
X16481Y-20366
X16678Y-57452
T3
X13961Y-30366
X32190Y-20760
T4
X41380Y-55510
X41380Y-56510
X41380Y-57510
X42380Y-55510
X42380Y-56510
X42380Y-57510
T5
X36886Y-56480
X37386Y-55980
X37386Y-56980
T6
X14540Y-23660
X14540Y-26660
X15851Y-31350
X15851Y-33319
X15910Y-55866
X15910Y-57834
X17600Y-50326
X17600Y-51326
X17600Y-52326
X17600Y-53326
X17600Y-54326
X17600Y-55326
X17600Y-56326
X17600Y-57326
X18570Y-29060
X18570Y-30060
X18570Y-31060
X18570Y-32060
X18570Y-33060
X18570Y-34060
X18570Y-35060
X18570Y-36060
X18570Y-37060
X18570Y-38060
X18570Y-39060
X18570Y-40060
X18570Y-41060
X18570Y-42060
X18570Y-43060
X18570Y-44060
X18570Y-45060
X18570Y-46060
X18570Y-47060
X18570Y-48060
X20540Y-23660
X20540Y-26660
X20600Y-50326
X20600Y-51326
X20600Y-52326
X20600Y-53326
X20600Y-54326
X20600Y-55326
X20600Y-56326
X20600Y-57326
X22485Y-51301
X22485Y-52301
X22485Y-53301
X22485Y-54301
X22485Y-55301
X22485Y-56301
X22485Y-57301
X24570Y-29060
X24570Y-30060
X24570Y-31060
X24570Y-32060
X24570Y-33060
X24570Y-34060
X24570Y-35060
X24570Y-36060
X24570Y-37060
X24570Y-38060
X24570Y-39060
X24570Y-40060
X24570Y-41060
X24570Y-42060
X24570Y-43060
X24570Y-44060
X24570Y-45060
X24570Y-46060
X24570Y-47060
X24570Y-48060
X25166Y-50170
X25485Y-51301
X25485Y-52301
X25485Y-53301
X25485Y-54301
X25485Y-55301
X25485Y-56301
X25485Y-57301
X27111Y-51301
X27111Y-52301
X27111Y-53301
X27111Y-54301
X27111Y-55301
X27111Y-56301
X27111Y-57301
X27134Y-50170
X28300Y-23279
X28300Y-24500
X28308Y-25720
X28320Y-26901
X28380Y-33043
X28386Y-35484
X28390Y-30602
X28390Y-31823
X28390Y-34263
X29970Y-50170
X30111Y-51301
X30111Y-52301
X30111Y-53301
X30111Y-54301
X30111Y-55301
X30111Y-56301
X30111Y-57301
X31939Y-50170
X32300Y-23279
X32300Y-24500
X32308Y-25720
X32320Y-26901
X32380Y-33043
X32386Y-35484
X32390Y-30602
X32390Y-31823
X32390Y-34263
X33790Y-35350
X33790Y-36350
X33790Y-37350
X33790Y-38350
X33790Y-39350
X33790Y-40350
X33790Y-41350
X33790Y-42350
X33790Y-43350
X33790Y-44350
X33790Y-45350
X33790Y-46350
X33790Y-47350
X33790Y-48350
X33900Y-25370
X33900Y-31370
X34900Y-25370
X34900Y-31370
X35900Y-25370
X35900Y-31370
X36610Y-52024
X36610Y-53520
X36678Y-20770
X36900Y-25370
X36900Y-31370
X37678Y-20770
X37900Y-25370
X37900Y-31370
X38134Y-33949
X38678Y-20770
X38900Y-25370
X38900Y-31370
X39678Y-20770
X39740Y-53010
X39740Y-57010
X39790Y-35350
X39790Y-36350
X39790Y-37350
X39790Y-38350
X39790Y-39350
X39790Y-40350
X39790Y-41350
X39790Y-42350
X39790Y-43350
X39790Y-44350
X39790Y-45350
X39790Y-46350
X39790Y-47350
X39790Y-48350
X39900Y-25370
X39900Y-31370
X40103Y-33949
X40678Y-20770
X40900Y-25370
X40900Y-31370
X41678Y-20770
X41900Y-25370
X41900Y-31370
X42310Y-35350
X42310Y-36350
X42310Y-37350
X42310Y-38350
X42310Y-39350
X42310Y-40350
X42310Y-41350
X42310Y-42350
X42310Y-43350
X42310Y-44350
X42310Y-45350
X42310Y-46350
X42310Y-47350
X42310Y-48350
X42678Y-20770
X42900Y-25370
X42900Y-31370
X43678Y-20770
X43900Y-25370
X43900Y-31370
X44678Y-20770
X44900Y-25370
X44900Y-31370
X46205Y-20799
X47485Y-23181
X47485Y-24181
X47485Y-25181
X47485Y-26181
X47485Y-27181
X47485Y-28181
X47485Y-29181
X47485Y-30181
X47485Y-31181
X47485Y-32181
X48174Y-20799
X48310Y-35350
X48310Y-36350
X48310Y-37350
X48310Y-38350
X48310Y-39350
X48310Y-40350
X48310Y-41350
X48310Y-42350
X48310Y-43350
X48310Y-44350
X48310Y-45350
X48310Y-46350
X48310Y-47350
X48310Y-48350
X50060Y-35366
X50060Y-37334
X50485Y-23181
X50485Y-24181
X50485Y-25181
X50485Y-26181
X50485Y-27181
X50485Y-28181
X50485Y-29181
X50485Y-30181
X50485Y-31181
X50485Y-32181
T7
X33646Y-22047
X33646Y-23047
X35339Y-22047
X35339Y-23047
X37032Y-22047
X37032Y-23047
X38725Y-22047
X38725Y-23047
X40418Y-22047
X40418Y-23047
X41380Y-53000
X42111Y-22047
X42111Y-23047
X42380Y-53000
X43804Y-22047
X43804Y-23047
X45497Y-22047
X45497Y-23047
T8
X13961Y-32216
X14025Y-34846
X14025Y-35846
X14025Y-36846
X14025Y-37846
X14025Y-38846
X14025Y-39846
X14025Y-40846
X14025Y-41846
X14025Y-42846
X14025Y-43846
X14025Y-44846
X14025Y-45846
X14025Y-46846
X14025Y-47846
X14025Y-48846
X14025Y-49846
X14025Y-50846
X14025Y-51846
X14025Y-52846
X14025Y-53846
X15025Y-34846
X15025Y-35846
X15025Y-36846
X15025Y-37846
X15025Y-38846
X15025Y-39846
X15025Y-40846
X15025Y-41846
X15025Y-42846
X15025Y-43846
X15025Y-44846
X15025Y-45846
X15025Y-46846
X15025Y-47846
X15025Y-48846
X15025Y-49846
X15025Y-50846
X15025Y-51846
X15025Y-52846
X15025Y-53846
X15442Y-29027
X16442Y-29027
X16953Y-21193
X17953Y-21193
X18953Y-21193
X23489Y-24342
X24240Y-21370
X25240Y-21370
X25339Y-26586
X26240Y-21370
X26640Y-29020
X27240Y-21370
X28240Y-21370
X29240Y-21370
X29375Y-28968
X30375Y-28968
X31375Y-28968
X45296Y-52295
X46296Y-52295
X47296Y-52295
X50500Y-53340
X50500Y-54340
X50500Y-55340
X50520Y-50360
T9
X32505Y-56035
X32505Y-57807
X35064Y-56035
X35064Y-57807
T10
X13650Y-21150
X13650Y-57600
X50100Y-21150
X50100Y-57600
T8
G00X45959Y-54758
M15
G01X46747Y-54758
M16
G05
G00X45959Y-57120
M15
G01X46747Y-57120
M16
G05
G00X48203Y-56333
M15
G01X48203Y-55545
M16
G05
T0
M30
